{"glyphs":{"0":{"ha":833,"x_min":0,"x_max":0,"o":"m 360 -5 l 386 1 b 633 76 469 24 551 49 l 631 76 b 592 66 626 76 613 73 b 532 52 567 58 547 54 b 522 54 525 52 522 52 b 652 151 605 115 648 148 l 654 151 b 740 279 664 151 693 193 b 772 334 757 310 768 328 b 804 430 782 346 792 378 l 819 507 l 823 567 b 829 708 827 607 829 654 b 827 713 829 709 828 711 b 824 718 825 715 824 716 b 825 722 824 720 825 721 b 827 727 826 723 827 725 l 825 736 b 810 781 819 763 814 777 l 817 782 b 814 785 817 783 815 783 b 810 790 812 787 811 789 b 805 793 808 791 807 793 l 814 795 b 792 833 810 798 803 810 b 751 910 781 857 767 882 b 694 985 734 938 715 963 b 625 1017 673 1006 650 1017 b 587 1023 621 1017 608 1019 b 514 1038 564 1027 541 1032 b 446 1055 488 1044 465 1049 b 416 1065 427 1059 416 1063 l 410 1053 b 408 1063 410 1057 410 1060 b 405 1071 407 1067 406 1069 b 401 1072 404 1072 402 1072 b 399 1070 401 1072 399 1072 b 393 1063 397 1066 395 1064 b 387 1067 389 1063 387 1065 l 387 1068 b 387 1072 387 1070 387 1072 l 387 1073 b 379 1082 387 1073 384 1076 b 343 1110 366 1101 355 1110 b 332 1108 341 1110 338 1109 b 311 1076 327 1107 320 1096 b 307 1069 309 1072 308 1069 l 306 1074 b 307 1088 306 1077 307 1082 l 309 1100 b 315 1112 313 1100 315 1104 b 309 1126 315 1121 313 1126 b 286 1078 304 1126 296 1110 l 292 1111 l 293 1123 l 292 1124 b 289 1107 292 1121 290 1116 b 278 1109 286 1108 281 1109 b 247 1094 267 1109 257 1104 b 231 1071 240 1086 235 1078 b 228 1080 231 1077 230 1080 b 201 1038 224 1080 215 1066 b 191 1021 196 1027 193 1021 b 0 492 64 800 0 623 b 14 410 0 460 5 433 b 45 361 22 384 33 368 l 48 359 b 47 361 48 360 47 361 b 4 481 18 391 4 431 b 9 546 4 489 6 511 b 50 697 13 581 26 631 b 122 865 74 762 98 818 l 157 935 b 132 866 153 922 144 899 l 127 815 b 110 780 125 803 120 791 b 105 774 106 777 105 775 l 109 725 l 98 684 b 96 692 98 690 97 692 b 81 643 94 692 89 676 b 73 591 77 621 74 603 l 73 585 l 73 584 l 73 566 b 71 563 72 564 72 564 l 70 565 b 64 361 66 433 64 365 l 65 362 b 66 361 66 362 66 362 b 64 357 66 361 65 359 b 63 350 64 354 63 352 b 64 347 63 348 64 347 l 66 328 b 76 283 68 328 72 313 b 87 223 79 264 83 244 b 125 144 97 171 109 144 l 124 130 l 137 113 b 157 90 144 103 151 95 l 163 87 l 164 77 b 168 79 165 78 166 79 b 180 71 171 79 175 76 b 192 56 188 62 192 57 b 321 3 204 31 247 13 b 360 -5 345 0 358 -3 z m 831 725 b 832 726 831 725 832 726 l 833 726 b 829 786 831 762 829 782 l 828 786 b 829 726 829 766 829 746 z m 827 797 l 827 800 b 806 935 825 854 818 900 b 770 1022 783 993 772 1022 b 769 1021 769 1022 769 1022 b 787 951 769 1019 775 995 b 827 797 808 882 821 830 z m 363 279 b 338 353 353 279 344 304 l 332 404 l 334 475 b 334 524 334 477 334 493 b 358 701 334 628 342 687 b 374 749 368 711 374 726 l 374 760 b 378 787 374 771 375 780 b 398 798 380 795 387 798 b 413 798 400 798 405 798 b 474 772 421 797 441 788 b 519 719 495 760 511 742 b 536 616 530 690 536 656 b 534 575 536 603 535 589 l 532 554 l 532 544 b 491 431 532 515 519 477 b 372 283 463 384 424 335 b 363 279 369 281 366 279 z "},"1":{"ha":634,"x_min":0,"x_max":0,"o":"m 298 1076 b 334 1099 322 1090 334 1098 b 332 1099 334 1099 334 1099 b 325 1097 332 1099 329 1099 b 311 1092 320 1096 316 1094 b 301 1084 307 1089 303 1086 b 298 1078 298 1082 298 1080 z m 119 -17 l 237 10 b 300 22 273 18 294 22 b 301 22 300 22 301 22 b 309 8 301 13 304 8 b 332 20 313 8 321 12 b 338 25 335 24 337 25 l 338 24 b 342 22 338 23 339 22 b 358 26 345 22 351 24 b 432 38 385 34 409 38 b 463 36 441 38 452 37 l 463 37 l 434 44 l 454 46 b 544 64 514 51 544 57 b 517 69 543 68 534 69 b 489 74 500 69 491 71 b 502 77 490 75 494 75 b 532 81 510 78 520 79 b 562 82 543 81 553 82 b 579 83 571 82 576 82 b 583 83 582 83 583 83 l 583 83 b 576 85 582 84 580 85 b 559 90 571 86 566 87 b 545 97 553 92 549 94 l 552 98 b 583 103 565 99 576 101 b 594 111 591 105 594 108 b 591 117 594 113 593 115 b 583 129 585 121 583 125 b 595 136 583 134 587 136 b 604 134 600 136 603 136 l 602 142 b 578 168 586 155 578 163 b 597 176 578 173 585 176 l 610 175 b 606 184 609 178 608 180 b 601 192 604 186 603 189 b 596 198 599 194 597 196 l 593 200 b 572 226 588 211 581 220 b 543 239 562 232 553 236 b 517 245 532 243 524 245 l 507 247 l 513 248 b 475 252 513 248 500 250 b 457 255 463 253 457 254 b 462 308 459 269 461 286 b 460 329 462 319 461 327 b 456 355 458 336 456 345 b 463 406 456 366 458 383 b 486 488 467 428 475 455 b 516 567 496 520 507 547 b 601 721 550 639 578 690 l 634 766 b 629 767 633 767 631 767 b 538 634 608 767 578 723 b 496 538 513 580 500 548 b 481 511 488 520 483 511 b 479 515 480 511 479 512 b 539 793 479 539 499 632 b 552 844 545 814 549 831 b 557 866 555 857 556 864 b 555 864 556 865 556 864 l 555 865 b 563 905 555 867 558 880 b 574 960 570 935 574 953 b 570 965 573 964 572 965 l 568 965 b 563 975 564 965 563 968 l 563 978 b 556 1003 563 992 561 1000 l 555 1004 b 550 996 553 1004 552 1001 b 548 993 549 994 549 993 b 542 1025 545 993 543 1004 l 541 1050 l 535 1050 b 522 1044 530 1050 526 1048 b 519 1043 522 1044 520 1043 b 511 1050 517 1043 514 1046 b 498 1059 509 1053 505 1055 l 489 1063 l 488 1055 b 487 1060 488 1057 487 1059 b 486 1063 486 1061 486 1062 l 487 1065 l 487 1067 l 483 1077 b 482 1076 483 1076 483 1076 b 475 1082 481 1076 479 1078 b 399 1120 452 1107 427 1120 b 383 1120 399 1120 393 1120 b 332 1086 373 1119 356 1108 l 330 1088 b 322 1075 330 1081 327 1077 b 302 1072 317 1073 310 1072 b 279 1067 294 1072 287 1070 b 268 1042 272 1063 269 1055 l 262 1052 l 192 985 l 198 994 b 163 963 191 994 179 983 b 123 920 153 951 140 937 l 120 911 b 116 901 117 905 116 902 b 115 894 115 900 115 897 b 113 878 115 886 115 881 b 106 874 112 876 109 874 b 104 873 105 874 104 874 b 100 868 103 871 102 869 b 92 865 98 867 96 865 b 79 852 86 862 82 858 b 71 843 77 849 74 846 l 64 836 b 62 808 62 827 62 818 b 71 747 62 788 65 768 b 83 728 75 735 78 729 b 99 715 93 723 98 719 b 96 710 99 713 98 712 l 97 708 b 106 695 98 703 101 699 b 120 690 109 692 114 690 b 128 692 123 690 125 691 b 144 709 131 692 136 699 l 155 726 b 155 723 155 724 155 724 b 151 707 155 722 153 718 b 153 711 152 707 153 709 b 158 718 154 713 156 715 b 164 725 160 722 162 724 b 169 727 166 726 168 727 b 182 711 174 727 178 722 l 194 726 b 212 744 197 729 203 735 l 214 745 l 214 745 l 243 774 b 117 429 181 646 139 530 b 109 354 111 401 109 376 b 124 281 109 325 114 300 b 126 278 125 279 125 278 l 125 281 b 121 317 123 286 121 298 b 127 414 121 335 123 368 b 213 687 130 461 159 552 b 233 730 223 712 230 726 l 235 731 b 236 727 235 731 236 730 b 227 677 236 722 233 705 b 214 597 218 636 214 610 b 216 585 214 591 214 587 l 208 584 b 212 570 211 582 212 577 b 200 507 212 559 208 537 b 191 461 194 485 191 470 b 192 392 191 437 191 414 b 193 345 193 375 193 359 l 193 306 b 136 245 191 266 172 245 b 85 214 121 245 105 235 b 77 207 81 210 79 207 l 76 208 l 68 207 b 53 195 62 204 56 200 b 17 111 49 190 37 161 l 28 112 l 38 112 b 48 109 45 112 48 111 b 20 93 48 106 39 100 b 9 85 13 90 9 87 l 9 85 b 26 79 9 81 15 79 b 42 88 37 79 42 82 b 43 94 42 92 42 93 l 43 94 b 52 87 45 94 49 92 l 60 79 b 68 73 66 77 68 75 b 66 71 68 72 68 71 b 59 68 64 70 62 69 b 50 67 56 68 53 67 b 41 66 46 66 43 66 l 37 66 l 47 71 b 39 75 44 73 41 75 l 37 75 b 33 71 36 74 35 73 b 29 64 31 68 30 66 b 28 60 28 62 28 60 b 26 59 27 59 27 59 b 32 46 27 57 29 52 b 41 27 35 40 38 33 b 50 12 45 20 47 15 b 55 6 52 8 54 6 l 56 7 b 77 24 65 18 72 24 l 79 23 b 82 15 81 22 82 20 b 91 -9 82 -1 85 -9 b 110 4 97 -9 104 -5 l 110 0 b 119 -17 110 -5 113 -11 z m 564 -5 b 562 -4 564 -5 563 -5 b 475 34 532 16 503 29 l 475 33 b 553 0 509 20 535 9 z m 0 754 b 14 772 1 754 5 760 l 63 841 b 65 850 63 844 64 847 b 68 857 66 854 67 856 b 91 884 77 863 84 873 b 96 890 92 886 94 888 l 105 901 b 107 906 105 903 106 904 b 110 910 109 907 109 909 b 111 916 110 913 111 916 l 110 916 b 5 765 100 916 65 866 l 0 755 z "},"2":{"ha":865,"x_min":0,"x_max":0,"o":"m 812 -117 b 762 -83 812 -113 795 -101 b 492 1 705 -53 615 -25 b 547 5 492 3 511 4 l 629 9 b 749 24 699 13 739 18 l 758 31 l 757 31 b 755 32 756 31 755 31 b 760 33 755 33 757 33 l 762 33 b 781 36 766 33 772 34 b 808 56 788 38 798 44 b 793 60 798 56 793 58 b 813 70 793 62 800 65 b 832 81 826 75 832 79 b 796 87 832 84 820 86 b 783 88 787 87 783 87 b 811 97 783 90 793 92 b 840 107 829 102 839 105 b 825 109 840 108 835 109 b 831 111 825 110 827 111 b 865 125 853 119 865 123 b 834 148 864 131 854 139 b 821 156 825 151 821 154 b 831 157 821 157 824 157 b 859 155 837 157 846 157 b 860 164 859 158 859 161 b 861 173 861 168 861 170 b 861 179 861 174 861 176 b 851 183 860 182 857 183 b 840 184 845 183 842 183 l 838 184 b 851 190 838 184 842 186 b 859 195 857 192 859 193 b 842 211 859 197 854 203 b 829 223 833 216 829 220 b 831 224 829 224 829 224 l 834 224 b 794 237 834 225 821 229 b 775 245 781 240 775 243 b 792 248 775 247 781 248 b 799 250 797 248 799 248 b 794 258 799 252 798 255 b 688 291 786 264 751 275 b 582 308 644 302 608 308 b 550 304 569 308 559 307 l 598 385 b 659 465 631 438 651 465 b 756 638 702 524 734 582 b 768 688 764 659 768 675 b 765 707 768 696 767 702 l 765 710 b 768 745 765 716 766 728 b 781 892 777 794 781 843 b 752 996 781 938 771 972 b 700 1060 726 1023 709 1044 b 672 1091 691 1074 682 1084 b 618 1107 662 1099 644 1103 b 541 1112 589 1110 563 1112 b 471 1103 517 1112 494 1109 b 435 1090 449 1097 437 1093 l 435 1090 l 431 1087 l 401 1078 l 398 1076 b 395 1078 397 1077 397 1078 b 269 986 382 1078 340 1047 b 110 840 187 917 134 868 b 73 775 92 817 79 795 b 62 739 66 755 62 743 b 84 794 67 754 75 772 b 164 884 105 825 132 855 b 181 899 175 895 180 899 b 182 899 182 899 182 899 b 168 876 182 897 177 888 b 132 803 144 842 132 817 b 133 795 132 800 132 798 b 136 782 135 791 136 786 b 135 775 136 780 136 777 l 134 772 b 135 772 134 772 134 772 b 148 782 136 772 140 775 l 158 767 b 161 759 160 764 161 761 b 159 758 161 758 160 758 b 153 760 158 758 156 758 l 151 760 b 144 743 147 760 145 755 b 135 722 143 730 140 722 l 147 719 l 133 718 l 142 715 b 137 714 142 715 140 715 l 180 682 l 185 686 l 188 690 b 197 703 193 699 195 703 l 197 702 b 203 673 197 682 199 673 b 212 677 205 673 208 674 b 229 685 218 682 224 685 b 220 672 226 678 222 674 b 217 668 218 670 217 669 l 218 668 b 374 779 229 668 281 705 l 392 794 b 401 801 398 799 401 801 l 402 801 b 528 864 466 843 508 864 b 553 840 545 864 553 856 b 520 732 553 820 543 784 l 515 720 b 419 585 503 694 471 649 b 349 507 376 533 353 507 l 350 509 b 420 697 395 580 419 643 b 416 748 420 720 418 736 b 410 766 412 760 411 766 b 415 716 414 749 415 732 b 382 586 415 676 404 633 b 286 441 360 539 328 491 b 159 307 243 392 201 347 b 72 212 122 271 93 239 b 73 212 73 212 73 212 b 66 208 73 210 71 209 b 37 177 51 203 41 193 l 33 153 b 33 155 33 154 33 155 b 17 138 31 155 25 149 l 7 125 l 5 117 b 0 85 2 106 0 95 b 1 68 0 81 1 75 b 8 49 2 62 4 55 b 23 39 12 42 17 39 b 28 39 24 39 26 39 b 52 49 40 45 48 49 b 56 46 54 49 56 48 b 45 29 56 43 52 37 b 22 13 35 18 26 13 l 20 13 l 28 1 b 39 -2 30 1 33 0 b 55 -9 44 -4 50 -7 b 64 -16 60 -12 64 -14 l 65 -7 b 76 -24 73 -14 76 -19 l 76 -25 b 157 -32 76 -30 103 -32 b 249 -26 182 -32 212 -30 b 353 -13 285 -23 320 -19 b 404 -1 387 -7 404 -3 l 416 0 b 433 -1 416 -1 422 -1 b 440 1 438 -1 440 -1 l 610 -46 b 810 -117 722 -78 788 -102 z "},"3":{"ha":850,"x_min":0,"x_max":0,"o":"m 160 -47 b 176 -47 162 -47 167 -47 b 206 -45 184 -46 195 -45 b 237 -43 218 -44 229 -43 b 251 -45 246 -43 251 -44 l 273 -45 b 274 -44 273 -44 273 -44 l 278 -45 b 284 -44 282 -45 284 -45 l 315 -45 l 366 -39 b 417 -31 400 -36 417 -33 b 457 -24 430 -28 444 -26 b 548 1 492 -22 522 -14 l 655 66 b 748 164 683 77 714 110 b 762 182 756 176 761 182 b 791 212 774 182 783 192 b 814 277 800 231 807 252 b 837 338 822 306 829 327 b 850 384 846 353 850 368 b 827 456 850 402 842 426 b 768 545 811 486 791 516 b 741 585 750 568 741 582 b 743 588 741 587 742 587 b 690 616 736 588 719 597 b 600 661 644 646 614 661 b 589 657 595 661 591 660 l 663 872 b 671 935 668 890 670 911 b 668 1006 671 962 670 986 b 660 1076 663 1048 660 1071 b 640 1097 660 1088 653 1095 l 640 1096 b 641 1086 640 1093 640 1089 l 643 1078 b 635 1090 641 1080 638 1084 b 629 1107 633 1096 631 1101 b 627 1119 627 1114 627 1117 l 627 1126 b 581 1168 627 1143 612 1157 l 552 1175 b 554 1178 553 1176 554 1177 b 532 1181 554 1180 547 1181 b 479 1180 511 1181 494 1181 b 408 1175 446 1177 422 1175 l 406 1175 b 370 1167 397 1172 385 1169 l 357 1166 b 349 1168 355 1167 353 1168 b 263 1135 334 1168 305 1157 b 262 1133 262 1134 262 1133 b 260 1130 262 1132 261 1131 b 199 1079 252 1122 232 1105 b 136 1025 162 1048 140 1031 b 133 1019 134 1025 133 1023 b 134 1013 133 1017 134 1015 l 126 1021 b 125 1020 125 1021 125 1021 b 129 1010 125 1017 127 1014 b 126 1011 128 1011 127 1011 b 63 943 115 1011 94 989 b 0 803 26 890 5 844 l 15 775 b 77 745 16 755 37 745 b 137 758 105 745 125 749 b 124 764 128 760 124 762 b 134 766 124 766 127 766 l 306 899 b 267 863 280 878 267 867 b 268 863 267 863 267 863 b 338 899 273 863 296 875 b 401 933 376 922 397 933 b 401 932 401 933 401 933 b 370 845 401 913 391 884 b 299 731 349 806 325 768 b 237 648 273 694 252 667 l 212 616 l 249 739 b 140 522 229 691 193 618 b 102 447 115 475 102 450 b 102 446 102 446 102 446 b 110 452 104 446 106 448 l 112 453 l 112 452 l 94 422 l 88 410 b 92 400 90 406 92 402 b 94 397 93 398 94 397 l 94 396 b 92 395 93 395 92 395 b 90 390 90 393 90 391 b 91 388 90 389 90 389 b 96 385 92 387 93 385 b 102 381 98 383 100 382 b 105 380 104 380 104 380 b 106 379 106 380 106 380 l 105 379 b 100 378 104 378 102 378 b 99 377 99 378 99 378 b 106 361 99 375 102 370 b 119 327 115 345 119 334 b 113 320 119 322 117 320 l 142 318 b 130 311 134 318 130 316 b 145 290 130 305 135 298 b 162 279 153 283 159 279 b 163 280 163 279 163 279 b 168 287 163 285 165 287 b 187 276 170 287 176 283 b 216 260 200 266 210 260 b 224 264 218 260 221 262 b 230 286 228 266 229 273 l 235 277 l 239 285 b 245 294 241 290 243 293 l 245 294 b 243 283 245 292 245 288 b 241 264 241 276 241 270 b 241 261 241 262 241 262 b 241 260 241 261 241 261 b 238 252 241 259 240 256 b 272 251 238 252 250 251 b 293 252 284 251 291 252 l 287 254 b 264 256 283 254 275 255 l 370 333 l 537 408 b 564 416 549 413 557 416 b 581 395 575 416 581 409 b 564 349 581 383 575 368 b 514 312 553 331 536 318 b 519 307 517 311 519 309 b 452 281 519 300 496 292 b 444 281 450 281 447 281 b 430 275 437 281 433 279 b 315 253 392 267 354 259 b 244 245 285 248 261 245 b 234 246 241 245 237 245 l 233 243 l 201 248 b 204 250 203 249 204 250 l 203 252 b 199 254 203 252 201 254 b 194 256 197 255 195 256 b 186 249 189 256 187 254 l 184 250 l 184 250 b 176 254 184 252 182 254 b 165 250 170 254 167 252 b 109 240 143 250 124 247 b 90 212 96 235 90 225 b 92 200 90 208 91 204 l 83 199 b 16 164 38 189 16 177 b 21 146 16 160 18 154 b 29 135 24 139 27 135 b 30 136 30 135 30 136 l 30 138 l 31 138 b 40 134 31 138 35 137 b 49 129 46 132 49 130 l 43 130 b 37 134 40 131 38 132 b 35 135 37 134 36 135 b 26 115 32 135 29 128 l 22 99 b 9 94 14 98 10 96 l 9 93 b 28 76 9 89 16 83 b 43 65 38 71 43 67 b 33 62 43 63 39 62 b 21 60 25 62 22 62 l 21 60 b 33 50 21 58 25 55 b 45 42 41 45 45 43 b 39 41 45 41 43 41 b 33 37 35 41 33 39 b 45 21 33 34 37 28 b 65 4 52 15 58 9 l 93 -16 l 98 -17 b 106 -22 104 -18 106 -20 b 100 -25 106 -23 104 -24 b 78 -28 95 -26 88 -27 b 113 -42 92 -35 104 -40 b 136 -45 121 -44 129 -45 b 160 -47 143 -45 151 -45 z m 40 994 b 175 1080 43 994 89 1023 b 237 1120 203 1099 223 1112 l 237 1120 b 77 1021 180 1088 127 1055 b 40 994 52 1004 40 996 z "},"4":{"ha":1053,"x_min":0,"x_max":0,"o":"m 253 1089 b 254 1094 254 1090 254 1091 b 260 1109 255 1096 257 1101 l 261 1112 b 257 1109 260 1112 259 1111 b 252 1102 255 1107 254 1105 b 248 1095 250 1099 248 1097 b 246 1092 246 1094 246 1093 l 246 1091 b 249 1090 247 1091 248 1090 b 252 1089 250 1089 251 1089 z m 724 3 l 772 29 b 792 49 782 36 789 43 b 801 58 795 52 798 56 b 814 62 804 60 808 62 l 814 71 l 812 73 b 817 76 812 74 814 75 l 821 115 b 798 173 821 126 813 145 b 788 196 791 186 788 194 b 789 197 788 197 788 197 b 792 195 789 197 791 196 l 787 202 l 798 212 l 789 220 l 791 236 b 797 308 795 267 797 291 b 794 328 797 319 796 326 b 791 344 792 330 791 335 b 801 426 791 358 795 385 b 836 597 807 467 819 524 b 895 818 852 670 872 744 l 844 682 l 854 721 l 823 613 b 808 576 815 589 810 576 l 821 622 l 863 751 b 876 800 870 775 874 791 l 876 803 b 866 783 876 803 872 796 l 866 783 b 865 784 865 783 865 783 l 867 800 b 884 892 869 827 875 858 b 913 964 893 935 903 959 b 930 978 924 968 930 973 b 924 993 930 984 928 989 b 909 1000 920 998 915 1000 b 905 999 908 1000 906 1000 b 914 1023 908 1012 911 1019 b 918 1037 917 1025 918 1030 b 903 1057 918 1042 912 1048 l 888 1067 l 850 1050 b 860 1089 857 1069 860 1082 b 859 1095 860 1093 859 1094 b 856 1095 858 1095 857 1095 b 841 1084 853 1095 848 1092 b 831 1077 836 1080 833 1077 b 831 1078 831 1077 831 1077 b 832 1086 831 1080 831 1082 l 833 1086 b 835 1087 833 1086 834 1086 b 840 1098 838 1091 840 1095 b 842 1104 841 1101 841 1103 l 842 1105 b 841 1105 841 1105 841 1105 b 838 1099 840 1104 840 1102 l 792 1086 b 782 1092 787 1090 784 1092 b 779 1090 781 1092 780 1091 b 774 1082 777 1090 776 1086 b 766 1065 773 1076 770 1071 b 744 1050 762 1059 754 1054 b 709 1014 733 1047 722 1035 b 673 941 696 992 684 968 b 644 869 661 913 651 890 l 632 838 b 688 1019 640 876 659 937 l 731 1136 l 730 1136 b 680 1008 724 1136 707 1093 b 616 795 652 924 631 852 l 608 756 b 574 669 587 706 576 677 b 573 668 574 669 574 669 b 570 660 571 665 570 662 b 571 657 570 659 570 658 b 572 654 572 656 572 656 b 545 620 572 649 564 637 b 468 555 527 602 501 581 b 369 489 435 530 401 509 b 296 460 336 469 312 460 b 279 568 285 460 279 496 b 283 669 279 605 281 639 b 290 715 286 695 288 711 b 312 766 300 731 307 748 b 332 904 317 789 323 834 b 344 996 336 947 340 977 b 348 1025 347 1009 348 1019 b 344 1034 348 1031 347 1034 l 342 1034 b 338 1031 341 1033 340 1032 b 336 1029 337 1030 336 1029 b 334 1029 335 1029 335 1029 l 334 1029 l 334 1034 b 334 1050 334 1036 334 1041 b 329 1063 334 1059 332 1063 l 327 1063 b 323 1057 324 1062 323 1060 l 323 1054 l 304 1094 l 305 1099 b 304 1100 305 1100 305 1100 l 302 1099 b 295 1091 301 1099 298 1096 b 282 1076 291 1086 287 1081 b 271 1060 277 1069 274 1065 l 266 1053 b 271 1090 266 1069 267 1081 b 276 1107 273 1100 275 1105 l 273 1103 b 250 1076 271 1099 263 1090 l 248 1076 l 245 1076 l 245 1075 b 252 1070 245 1074 248 1072 b 244 1074 249 1070 246 1072 b 238 1090 240 1078 238 1084 b 225 1112 237 1104 233 1112 b 198 1094 218 1112 209 1105 b 180 1076 187 1082 181 1076 l 179 1076 b 180 1072 180 1075 180 1074 l 176 1058 l 172 1050 b 170 1053 171 1050 171 1051 b 172 1066 170 1057 171 1061 b 87 895 130 999 102 942 b 71 837 77 857 72 838 b 70 838 70 837 70 838 b 76 876 70 842 72 854 b 93 958 80 897 85 924 b 114 1054 100 991 106 1023 b 18 636 68 873 37 734 b 4 528 9 587 4 551 b 5 512 4 522 5 516 l 7 522 b 8 513 7 520 8 517 b 6 506 8 508 7 506 l 5 506 l 4 497 b 7 462 6 497 7 486 b 5 427 7 438 6 427 b 0 420 2 427 0 425 b 47 311 0 410 16 374 b 66 270 60 287 66 273 l 67 270 b 75 264 68 270 71 268 l 102 237 b 115 229 109 231 113 229 b 115 231 115 229 115 229 b 119 232 115 231 117 232 b 128 220 122 230 125 227 l 129 221 l 129 220 b 138 215 132 218 135 216 b 144 212 140 214 142 212 b 146 205 145 210 146 208 b 180 186 161 199 173 193 l 186 186 b 239 177 198 184 216 180 b 303 168 261 174 283 170 b 332 170 317 170 326 170 b 337 170 334 170 336 170 l 349 175 b 332 172 344 173 338 172 b 323 173 330 172 327 172 l 290 172 b 326 176 290 172 302 174 b 411 187 359 180 388 183 l 422 195 b 523 239 464 224 497 239 b 541 229 531 239 537 235 b 549 204 544 221 547 213 b 557 180 551 195 554 186 b 573 168 561 173 566 169 b 564 161 567 168 564 165 b 580 132 564 155 570 146 b 606 81 597 110 606 93 b 633 47 606 68 614 57 b 688 22 651 38 669 30 b 724 3 712 13 724 7 z m 903 842 b 976 1018 939 934 963 993 b 1025 1083 991 1048 1007 1069 b 1053 1095 1037 1091 1046 1095 l 1049 1097 b 976 1021 1025 1094 1001 1069 b 903 842 950 973 926 913 z m 125 205 b 130 207 127 205 130 205 l 128 213 b 102 223 119 216 111 220 b 41 248 81 231 61 239 l 52 241 b 125 205 89 217 113 205 z m 172 1069 l 178 1078 l 180 1082 l 180 1082 b 175 1076 179 1082 177 1080 b 172 1070 174 1072 173 1070 z "},"5":{"ha":864,"x_min":0,"x_max":0,"o":"m 302 335 b 309 338 303 335 305 336 b 315 344 313 340 315 342 b 311 345 315 345 313 345 b 307 345 310 345 309 345 b 301 342 304 344 302 343 b 300 338 300 341 300 340 l 300 336 b 301 335 300 336 300 335 z m 183 -137 b 231 -130 196 -137 212 -135 l 239 -128 l 231 -123 b 233 -121 231 -122 231 -121 b 237 -122 233 -121 235 -121 b 241 -124 239 -123 240 -123 b 243 -125 241 -125 242 -125 b 325 -95 258 -121 285 -111 l 387 -71 l 322 -105 b 435 -42 342 -98 379 -77 l 518 9 b 529 7 522 8 526 7 b 566 49 543 7 555 21 b 581 69 571 62 576 69 b 589 59 583 69 586 66 l 594 73 b 591 75 592 73 591 74 b 620 100 591 78 601 87 l 640 113 b 664 153 642 127 650 140 b 701 203 678 165 690 182 b 665 123 698 192 686 165 l 631 56 b 673 92 646 56 660 68 b 704 176 685 117 695 144 b 724 258 713 207 719 235 b 730 296 728 282 730 294 l 734 296 b 745 319 741 296 745 303 b 744 329 745 321 745 325 b 743 341 743 333 743 337 l 741 347 b 731 342 738 347 734 346 b 743 395 739 353 743 371 b 736 453 743 406 741 425 b 687 555 732 480 716 514 b 562 641 658 595 616 624 l 389 647 b 381 653 388 647 386 649 b 365 667 376 656 371 661 b 345 695 352 679 345 688 b 365 705 345 701 352 705 l 368 724 b 378 824 372 728 376 761 b 380 920 379 849 380 881 b 393 934 380 924 384 929 b 456 947 411 943 432 947 b 473 940 465 946 471 944 l 476 947 b 523 941 479 943 494 941 b 628 944 557 941 593 942 b 793 967 718 950 774 958 b 810 984 802 972 807 978 b 821 996 812 989 816 993 b 848 1001 825 1000 834 1001 b 852 1002 851 1001 852 1002 l 852 1004 b 847 1006 852 1004 850 1005 b 835 1011 844 1008 840 1009 b 812 1024 819 1019 812 1023 b 823 1026 812 1025 815 1026 b 863 1023 830 1026 844 1025 l 863 1026 b 846 1053 863 1032 857 1041 b 836 1067 839 1059 836 1064 b 857 1074 836 1072 842 1074 b 864 1074 861 1074 864 1074 b 806 1085 864 1076 845 1079 l 761 1090 b 772 1093 761 1091 765 1092 b 848 1095 823 1093 848 1093 b 844 1107 848 1103 846 1107 b 839 1103 844 1107 842 1105 b 834 1099 836 1100 835 1099 b 832 1105 833 1099 832 1101 l 819 1121 b 763 1141 815 1124 796 1131 b 719 1152 741 1148 726 1152 b 711 1147 713 1152 711 1150 l 711 1147 b 633 1166 704 1154 678 1161 b 618 1167 628 1167 623 1167 b 595 1164 609 1167 602 1166 b 552 1155 589 1163 574 1160 l 575 1165 b 680 1189 619 1174 654 1182 b 718 1202 705 1196 718 1200 b 714 1203 718 1202 717 1203 b 461 1165 681 1203 596 1190 b 153 1058 281 1131 178 1095 b 144 1035 146 1046 144 1039 b 149 1028 144 1030 145 1028 b 155 1029 151 1028 153 1029 b 161 1031 157 1030 159 1031 b 163 1033 162 1032 163 1033 l 153 1027 b 142 1011 147 1023 144 1017 b 144 1001 142 1008 142 1004 l 147 962 l 77 618 b 77 616 77 618 77 617 b 76 611 77 615 77 613 b 73 601 75 608 74 605 b 66 552 73 578 71 562 l 73 551 b 68 538 71 550 69 546 b 64 513 66 531 65 523 b 62 486 63 503 62 494 b 60 470 61 478 60 473 b 62 471 60 471 61 471 b 63 470 62 471 62 471 b 64 466 64 469 64 468 b 65 460 65 464 65 462 b 64 457 65 458 65 457 b 62 460 64 457 63 458 l 78 421 b 83 402 81 410 83 404 l 81 400 b 91 387 85 397 89 393 b 90 383 91 385 91 384 l 98 380 l 105 374 b 122 357 115 366 121 359 l 112 361 b 98 364 105 363 100 364 b 96 363 97 364 96 364 b 104 355 96 362 99 359 b 140 322 122 341 134 330 b 138 328 139 324 138 326 b 138 330 138 330 138 330 l 142 330 b 151 368 142 355 145 368 b 154 366 151 368 152 368 b 163 332 160 361 163 350 b 180 316 163 324 169 319 b 229 312 190 313 206 312 b 258 320 237 313 248 315 b 273 344 268 325 273 333 b 281 340 275 341 278 340 b 338 368 290 340 309 349 b 387 394 363 385 380 394 b 405 397 389 394 395 395 b 474 405 435 402 458 405 b 500 403 481 405 490 404 b 514 387 509 401 514 396 b 482 341 514 377 503 362 b 48 136 395 265 251 197 b 0 119 18 127 2 121 b 1 118 0 118 1 118 b 50 125 6 118 22 121 b 171 155 91 133 132 142 b 268 191 210 168 242 180 l 307 206 l 297 202 b 200 143 297 196 264 176 l 103 95 b 73 55 98 90 88 77 l 50 22 b 42 15 45 22 42 20 b 43 7 42 12 43 9 l 47 -2 b 43 -7 44 -3 43 -5 l 43 -9 b 56 -25 44 -13 49 -18 l 68 -35 b 52 -56 57 -39 52 -46 b 56 -70 52 -60 53 -65 l 66 -83 l 87 -85 b 93 -87 91 -85 93 -85 b 91 -90 92 -89 92 -90 b 96 -93 91 -90 92 -92 b 109 -99 100 -95 104 -97 b 119 -104 113 -101 116 -103 b 125 -108 121 -106 123 -107 l 126 -109 b 136 -103 132 -106 135 -104 l 136 -104 b 127 -119 130 -111 127 -115 b 140 -132 127 -125 132 -130 l 151 -133 l 145 -129 b 183 -137 158 -134 171 -137 z m 74 621 b 76 699 75 645 75 671 b 77 774 76 726 77 751 b 81 823 78 798 79 814 l 81 825 b 69 724 73 815 69 782 b 73 621 69 678 71 644 z m 283 328 l 286 328 b 299 334 294 331 299 334 b 296 336 299 335 298 336 b 281 330 286 336 281 334 b 283 328 281 329 281 328 z "},"6":{"ha":901,"x_min":0,"x_max":0,"o":"m 296 -100 b 414 -71 325 -100 364 -90 b 488 -39 446 -59 471 -48 b 545 -5 495 -39 514 -27 b 624 56 576 18 603 39 b 819 243 709 126 774 189 b 901 404 874 311 901 364 b 899 421 901 406 901 412 b 766 208 898 372 854 300 b 632 76 729 168 684 123 b 663 114 635 85 646 98 b 688 135 671 122 680 129 l 812 376 b 806 400 808 388 806 396 b 805 409 805 404 805 407 b 825 469 805 429 812 448 b 838 521 833 485 838 503 b 835 549 838 530 837 539 b 810 630 829 580 821 606 b 799 667 803 649 799 661 b 800 671 799 669 800 670 l 795 673 b 798 677 797 673 798 675 b 763 726 798 685 786 701 b 692 787 734 755 711 776 b 678 793 685 791 680 793 b 675 790 676 793 675 792 l 668 792 b 633 814 668 806 656 814 b 468 764 589 812 534 795 b 413 739 442 751 424 743 b 518 834 456 776 491 808 b 593 900 545 860 570 882 b 595 899 594 899 595 899 b 643 942 602 899 617 913 b 709 1017 654 954 675 979 l 720 1031 b 736 1045 731 1037 736 1042 b 724 1056 736 1049 732 1053 b 711 1065 715 1059 711 1062 b 713 1067 711 1065 712 1067 b 718 1090 716 1074 718 1081 b 696 1113 716 1105 709 1113 b 682 1109 692 1113 687 1112 b 662 1103 673 1105 666 1103 b 658 1105 660 1103 659 1104 b 657 1107 657 1105 657 1107 b 664 1119 657 1110 659 1114 b 672 1126 668 1124 671 1126 l 669 1133 b 665 1133 668 1133 667 1133 b 659 1134 663 1133 661 1133 b 650 1136 656 1135 653 1135 b 644 1139 648 1137 646 1137 b 641 1141 642 1139 641 1141 b 640 1143 641 1142 640 1143 b 527 1099 634 1143 597 1128 l 464 1072 b 462 1072 463 1072 463 1072 b 373 989 454 1072 424 1044 b 267 868 327 940 292 899 b 220 774 251 844 235 812 b 164 667 203 732 184 696 b 157 644 164 656 162 649 b 135 573 152 625 144 602 b 94 436 111 501 98 456 b 90 410 91 423 90 414 b 92 402 90 405 90 403 b 67 322 83 398 75 372 b 52 267 62 286 56 267 b 32 201 43 267 37 245 b 28 138 29 180 28 159 b 31 109 28 119 29 109 b 35 115 32 109 33 111 b 39 120 37 118 38 120 b 44 98 41 119 43 111 l 45 79 l 50 71 b 60 86 56 78 59 83 b 72 106 64 94 68 100 b 77 110 74 109 75 110 b 81 100 78 109 79 106 b 94 72 83 94 87 84 b 102 62 97 66 100 62 b 106 79 104 62 106 68 b 106 85 106 83 106 85 b 118 60 108 85 112 77 b 180 -52 138 9 159 -28 l 182 -43 b 235 -75 186 -51 203 -62 b 256 -85 247 -80 254 -83 b 296 -100 264 -95 277 -100 z m 36 347 l 37 348 l 83 487 b 113 581 101 545 111 576 b 145 645 127 609 138 631 l 145 647 l 142 644 b 85 545 119 627 100 594 b 36 347 71 498 54 433 z m 31 326 b 0 225 10 266 0 233 b 1 224 0 224 0 224 b 2 225 1 224 1 224 b 31 326 8 233 18 267 z m 319 111 b 312 119 318 111 315 113 b 298 144 308 125 303 134 b 286 176 294 155 289 165 b 281 204 282 186 281 196 b 292 217 281 213 284 217 b 370 372 334 308 359 359 l 442 453 b 460 479 449 469 454 477 b 507 533 478 515 494 533 l 509 533 l 572 579 b 604 566 589 579 600 575 b 610 538 608 557 610 548 b 616 516 611 528 612 521 l 578 370 b 547 322 573 358 563 342 b 492 231 518 283 500 253 b 428 184 490 224 468 209 b 345 119 373 150 345 129 l 334 117 l 334 115 b 321 111 334 113 330 111 z m 349 186 b 365 232 350 187 355 203 b 441 441 392 315 418 385 b 362 248 405 378 378 314 b 349 186 353 210 349 189 z "},"7":{"ha":828,"x_min":0,"x_max":0,"o":"m 26 -121 b 28 -115 26 -121 27 -119 l 34 -99 b 44 -65 37 -87 41 -77 b 52 -45 47 -54 50 -47 b 55 -43 54 -44 54 -43 b 57 -54 56 -43 57 -47 l 57 -59 b 60 -76 57 -68 58 -74 b 65 -79 62 -78 63 -79 b 68 -78 66 -79 67 -79 b 80 -68 72 -76 76 -73 b 91 -55 83 -64 87 -60 b 100 -43 94 -50 98 -46 l 103 -37 b 94 -56 98 -45 96 -52 b 90 -67 92 -62 90 -65 b 90 -71 90 -69 90 -71 b 92 -77 90 -73 91 -75 b 96 -80 92 -79 94 -79 b 100 -81 98 -81 99 -81 b 104 -81 102 -81 103 -81 l 108 -81 b 125 -74 114 -81 119 -78 b 135 -64 130 -71 134 -67 b 136 -58 136 -61 136 -59 b 130 -51 136 -55 134 -52 l 138 -50 l 137 -50 l 138 -50 b 152 -45 140 -50 145 -48 b 176 -28 159 -43 167 -37 b 201 18 184 -18 193 -3 b 221 51 209 18 215 29 b 236 121 227 72 231 96 b 248 172 240 140 244 158 b 258 193 251 186 254 193 l 267 210 l 272 220 b 285 245 275 227 280 235 b 301 275 290 256 295 265 b 315 298 307 285 311 292 b 323 307 319 304 321 307 l 323 307 l 323 312 b 328 310 325 311 326 310 b 329 311 328 310 328 311 b 332 317 330 312 331 314 b 333 325 332 319 332 322 b 333 330 333 328 333 330 l 343 338 b 366 359 350 343 357 351 b 385 386 374 368 380 377 b 393 412 391 395 393 404 b 393 418 393 414 393 416 l 380 401 b 486 551 407 447 442 496 b 686 748 530 605 597 671 b 712 770 697 758 706 765 l 711 770 b 660 733 698 762 681 750 b 599 680 639 716 618 699 b 557 637 579 662 566 648 l 588 687 b 608 710 589 688 595 696 b 650 762 620 724 634 742 b 693 815 666 781 680 799 b 712 846 705 831 711 842 b 730 877 713 849 719 859 b 781 960 745 899 762 927 b 819 1040 800 994 812 1020 b 828 1082 825 1060 828 1074 b 814 1113 828 1096 823 1106 l 814 1107 b 814 1087 814 1103 814 1096 b 801 1039 812 1074 808 1058 b 764 978 793 1019 781 999 b 767 987 764 980 765 983 b 772 999 768 991 770 995 b 778 1009 774 1002 776 1006 l 780 1013 l 780 1019 b 779 1034 780 1023 780 1027 b 777 1050 779 1039 778 1044 b 773 1065 777 1057 775 1061 b 677 1133 760 1094 728 1116 b 498 1164 626 1148 566 1159 l 498 1164 b 584 1143 529 1160 557 1154 b 455 1149 540 1147 496 1149 b 214 1124 369 1149 288 1141 b 12 1029 104 1100 37 1068 b 11 1021 12 1027 11 1025 l 11 1017 b 13 998 12 1011 12 1005 b 16 979 14 989 15 983 b 16 972 16 975 16 973 b 11 964 16 967 14 964 l 35 959 b 30 947 32 954 30 950 b 31 944 30 946 31 945 b 39 938 33 941 35 939 b 52 935 43 937 47 936 b 63 933 57 935 61 934 b 66 930 65 932 66 931 b 65 926 66 929 66 928 l 513 960 l 243 623 l 399 890 b 309 765 376 865 346 823 b 196 580 271 707 234 645 b 99 411 157 515 125 458 l 59 340 b 21 276 42 329 30 308 b 4 176 12 244 7 211 b 0 82 1 140 0 109 l 0 59 b 5 -9 1 24 3 2 b 11 -26 7 -21 9 -26 b 16 -14 12 -26 14 -22 l 34 5 b 43 12 39 9 41 12 b 45 11 44 12 45 12 b 45 7 45 10 45 9 b 43 -3 45 5 45 1 b 35 -26 41 -10 39 -18 b 26 -50 32 -35 28 -43 b 22 -59 24 -54 22 -58 l 21 -61 l 23 -58 b 34 -38 25 -55 28 -48 b 43 -23 39 -28 42 -23 l 43 -24 b 38 -45 43 -26 41 -33 b 28 -83 34 -58 31 -71 b 24 -110 25 -95 24 -104 b 26 -121 24 -115 24 -119 z m 728 773 l 726 772 b 718 760 724 769 721 764 b 703 738 711 751 707 744 b 698 724 699 732 698 727 b 699 722 698 723 698 722 b 728 771 718 748 728 764 b 728 773 728 772 728 772 z m 482 1166 b 416 1168 460 1168 438 1168 l 402 1168 b 482 1166 429 1168 456 1167 z m 389 1168 l 389 1168 b 165 1140 296 1168 221 1158 b 155 1136 158 1138 155 1137 l 155 1136 b 171 1139 157 1136 162 1137 b 258 1155 189 1143 218 1149 b 389 1168 297 1161 340 1166 z "},"8":{"ha":835,"x_min":0,"x_max":0,"o":"m 300 -127 b 306 -129 300 -128 302 -129 b 312 -129 309 -129 311 -129 b 322 -128 315 -129 319 -129 b 336 -124 327 -127 332 -126 b 342 -115 340 -122 342 -119 b 362 -125 345 -121 351 -125 b 402 -117 372 -125 385 -122 b 526 -61 437 -104 479 -86 b 659 13 574 -37 618 -12 b 745 68 701 38 729 56 b 817 125 781 96 806 115 b 835 140 829 134 835 140 l 833 140 b 804 120 829 138 819 131 b 747 81 788 109 769 96 b 659 20 717 60 688 40 b 597 -20 630 1 610 -13 b 690 87 631 12 663 47 l 690 90 b 692 93 691 90 692 92 b 694 97 693 94 694 96 b 699 107 696 100 697 104 b 705 118 701 111 703 114 l 705 119 b 711 132 707 123 709 128 b 735 167 717 145 725 157 b 743 195 739 172 741 180 b 744 237 743 209 744 223 l 744 252 b 743 302 744 271 744 288 l 743 324 b 721 381 740 342 732 361 b 682 440 709 401 696 421 b 652 488 667 462 656 477 b 644 508 647 498 644 505 b 655 519 644 514 648 518 l 633 519 b 660 560 637 531 646 545 b 708 610 674 576 690 593 b 776 684 735 637 758 661 b 803 740 794 706 803 725 b 802 750 803 743 802 747 b 800 754 801 751 800 753 b 795 767 797 762 795 766 l 794 768 b 791 760 793 768 791 765 b 781 727 789 752 786 741 b 749 675 774 712 764 695 b 699 612 728 647 711 626 b 674 586 686 597 677 589 b 667 582 671 583 668 582 b 665 584 666 582 665 583 l 665 585 b 671 602 665 588 667 594 b 684 626 674 609 679 617 b 696 647 688 634 692 641 b 702 656 699 653 701 656 b 722 696 703 656 710 669 b 763 795 734 722 747 755 b 802 918 778 836 791 876 b 818 1025 812 959 818 994 l 818 1029 b 788 1088 817 1060 808 1080 b 776 1099 786 1089 782 1093 b 753 1120 769 1105 762 1112 b 730 1144 745 1128 738 1137 b 716 1160 723 1152 718 1157 l 712 1164 b 715 1162 713 1164 713 1164 l 715 1163 l 715 1162 b 720 1160 716 1162 718 1161 b 728 1157 722 1159 724 1158 b 607 1191 701 1179 660 1191 b 562 1188 593 1191 577 1190 b 366 1137 486 1181 421 1163 b 155 1006 277 1090 206 1047 b 41 897 104 964 66 928 b 0 823 17 865 3 841 b 101 942 6 847 40 887 b 307 1092 161 997 230 1046 b 507 1179 382 1137 450 1166 b 543 1185 526 1183 538 1185 b 549 1183 547 1185 549 1184 b 547 1181 549 1183 548 1182 b 530 1173 543 1179 538 1176 b 503 1162 521 1169 512 1165 b 478 1152 493 1158 485 1154 l 467 1148 b 449 1139 465 1147 459 1144 b 399 1113 436 1132 419 1123 b 340 1080 379 1102 359 1091 b 294 1052 320 1068 304 1059 b 279 1037 284 1044 279 1039 b 280 1035 279 1036 279 1036 b 220 989 262 1032 242 1017 b 171 899 197 960 181 930 b 163 872 168 890 165 881 b 141 797 154 846 147 821 b 127 708 135 772 130 743 b 129 711 127 709 128 710 b 130 711 130 711 130 711 l 131 711 b 132 709 132 711 132 710 b 130 706 132 709 132 707 b 121 680 124 699 121 690 b 134 639 121 668 125 654 b 184 562 150 611 166 585 b 208 524 199 542 208 530 b 185 476 208 515 199 499 b 181 462 184 471 183 467 b 174 451 179 456 176 453 l 75 224 b 59 210 65 224 60 219 b 57 188 58 201 57 193 b 60 155 57 178 58 167 b 72 96 63 135 67 115 b 85 46 77 76 81 60 l 92 26 l 92 3 b 172 -77 123 -39 150 -65 b 233 -98 195 -88 215 -96 b 267 -106 245 -100 256 -102 b 300 -127 277 -110 288 -117 z m 172 456 b 136 406 162 443 150 426 b 100 354 121 385 110 368 b 92 342 96 348 94 345 b 88 328 92 341 91 336 b 89 327 88 328 89 327 b 139 404 105 353 122 378 b 172 454 151 422 161 439 z m 86 321 b 85 321 86 321 86 321 b 40 226 59 280 44 248 b 38 200 39 214 38 205 b 40 192 38 195 39 192 b 53 216 43 193 47 201 b 71 269 59 232 65 250 b 86 321 77 289 82 307 z m 701 87 b 706 73 701 78 703 73 b 722 95 709 73 715 81 b 744 168 728 109 735 134 l 724 136 b 720 126 723 132 722 130 b 717 119 718 123 718 120 b 713 112 715 117 713 114 b 710 104 712 110 711 107 b 709 102 709 104 709 103 b 706 97 708 100 707 98 b 704 94 705 96 705 95 b 703 91 703 94 703 92 b 701 87 702 90 701 88 z m 347 127 b 324 120 337 123 330 120 b 319 121 322 120 321 121 b 314 133 316 123 314 127 l 314 136 b 319 161 315 144 316 153 b 321 173 319 165 320 170 b 315 163 318 167 316 163 l 315 163 b 314 168 314 164 314 165 l 314 172 b 316 191 314 178 315 184 b 319 209 317 197 318 203 b 320 217 319 214 320 216 l 321 218 b 331 245 322 221 326 231 b 351 295 336 260 343 277 b 372 345 358 313 365 330 b 387 371 379 360 384 369 b 391 374 389 373 391 374 b 395 360 394 374 395 370 l 395 356 l 401 347 b 415 324 406 340 410 333 b 425 303 420 315 422 309 b 429 296 427 298 428 296 b 429 296 429 296 429 296 b 432 305 430 298 431 301 b 435 315 433 309 434 312 b 439 319 437 317 438 319 b 439 313 439 319 439 317 b 444 281 439 295 441 285 b 451 277 446 278 449 277 b 456 278 453 277 454 277 b 469 288 461 280 465 283 b 475 293 473 291 475 292 l 477 293 b 478 291 477 293 478 292 l 478 287 b 482 277 478 282 479 279 b 494 271 486 275 489 273 b 506 266 498 270 503 268 b 511 255 509 264 511 260 l 511 253 b 498 227 510 247 506 238 b 445 174 484 204 466 186 b 381 143 424 161 403 151 b 347 127 369 138 357 133 z m 463 648 b 462 648 463 648 463 648 b 446 659 460 648 454 651 b 414 698 436 667 425 681 b 394 743 402 715 396 730 b 392 769 393 756 392 765 b 409 826 392 787 397 806 b 490 895 423 850 450 873 b 491 896 490 895 490 895 b 494 899 492 897 493 897 b 497 903 495 900 496 901 b 498 905 498 904 498 905 l 502 903 b 509 910 503 905 505 907 b 524 918 513 913 518 916 b 539 924 530 921 535 923 b 548 926 543 926 546 926 b 549 926 549 926 549 926 b 559 901 555 920 559 911 b 553 873 559 893 557 884 b 516 792 545 850 532 823 b 479 718 503 767 490 743 b 463 648 468 692 463 669 z "},"9":{"ha":913,"x_min":0,"x_max":0,"o":"m 262 -100 b 322 -77 266 -100 286 -92 b 437 -28 366 -59 404 -43 b 439 -28 437 -28 438 -28 b 528 54 448 -28 477 -1 b 634 175 574 103 610 144 b 682 269 650 199 666 231 b 736 376 698 311 716 347 b 743 399 737 387 739 394 b 766 470 749 418 757 441 b 812 634 797 564 812 618 b 809 641 812 639 811 641 b 833 721 819 645 827 672 b 841 760 836 736 839 749 b 849 776 843 770 846 776 b 869 842 858 776 865 798 b 873 908 871 864 873 886 b 869 935 873 926 871 935 b 866 929 869 935 867 932 b 863 923 865 925 863 923 b 859 931 861 924 860 926 b 857 945 859 935 858 940 b 857 959 857 950 857 955 l 856 964 l 851 972 b 841 958 846 965 842 960 b 830 937 838 949 833 943 b 825 934 828 935 827 934 b 817 951 822 938 819 944 b 801 981 810 970 804 980 b 795 964 798 981 795 975 b 794 958 795 960 795 958 b 783 983 793 958 789 966 b 720 1095 764 1034 743 1071 l 719 1086 b 667 1118 715 1095 697 1105 b 646 1128 653 1123 646 1126 b 606 1143 638 1138 625 1143 b 488 1115 575 1143 536 1133 b 413 1082 455 1102 430 1091 l 412 1082 b 355 1047 406 1082 388 1071 b 277 987 332 1030 306 1010 b 83 800 191 916 126 853 b 0 637 28 733 0 679 b 2 622 0 633 1 629 b 135 836 3 672 48 743 b 269 967 170 873 215 917 b 238 930 265 957 254 944 b 213 908 231 924 223 916 l 89 667 b 97 634 94 654 97 643 b 77 574 97 615 90 595 b 63 522 68 558 63 541 b 66 494 63 513 64 503 b 91 413 73 463 81 437 b 102 377 98 394 102 382 b 100 372 102 375 102 373 l 106 370 b 104 366 104 370 104 368 b 138 317 104 357 115 341 b 209 256 169 286 192 265 b 223 250 216 252 221 250 b 227 254 225 250 227 251 l 233 251 b 267 229 233 237 244 229 b 433 279 313 231 368 248 b 492 313 459 292 479 302 l 454 279 b 307 143 391 216 342 170 l 306 144 b 258 102 300 144 284 130 b 193 26 236 77 214 52 l 181 12 b 165 -3 170 6 165 1 b 178 -13 165 -6 169 -9 b 190 -22 186 -16 190 -19 b 189 -24 190 -22 189 -24 b 184 -47 185 -31 184 -38 b 205 -70 185 -62 193 -70 b 220 -66 210 -70 214 -68 b 239 -60 229 -62 235 -60 b 243 -63 241 -60 243 -61 b 237 -76 243 -66 241 -71 b 229 -83 233 -81 231 -83 l 233 -90 l 243 -91 b 260 -99 254 -93 260 -96 b 262 -100 260 -100 261 -100 z m 755 396 b 817 498 781 414 801 448 b 865 696 831 545 847 610 l 863 695 l 819 557 b 788 463 800 498 789 467 b 755 398 774 434 764 412 z m 871 718 b 899 798 882 750 891 777 b 912 832 907 820 911 831 b 913 833 913 833 913 833 l 913 834 b 871 718 898 816 884 777 z m 329 464 b 298 477 312 464 302 469 b 291 505 294 486 292 495 b 285 527 290 515 288 522 l 323 673 b 354 722 328 685 338 701 b 409 812 382 759 401 789 b 473 859 412 819 433 834 b 556 924 528 893 556 914 l 568 926 l 567 928 b 571 930 567 930 568 930 b 578 932 573 931 576 931 b 582 932 581 932 582 932 b 603 899 585 932 591 921 b 621 840 614 874 621 854 b 610 826 621 831 616 826 b 532 671 569 738 543 686 l 470 603 b 458 590 466 598 462 593 b 441 564 453 574 448 566 b 393 510 423 528 408 510 l 391 510 z m 459 603 b 539 796 495 662 522 726 b 553 857 549 833 553 854 b 536 811 551 856 545 840 b 459 603 507 722 481 652 z "},"\u0000":{"ha":0,"x_min":0,"x_max":0,"o":""},"\u001d":{"ha":0,"x_min":0,"x_max":0,"o":""}," ":{"ha":339,"x_min":0,"x_max":0,"o":""}," ":{"ha":339,"x_min":0,"x_max":0,"o":""},"A":{"ha":755,"x_min":0,"x_max":0,"o":"m 600 -185 b 602 -178 602 -185 602 -182 l 602 -158 l 595 -109 b 620 -159 602 -109 610 -125 b 629 -184 624 -175 627 -183 b 633 -149 631 -184 633 -172 b 633 -131 633 -139 633 -133 b 635 -137 634 -132 634 -134 b 637 -149 635 -140 636 -144 b 642 -159 639 -153 640 -157 b 648 -163 644 -162 646 -163 l 652 -163 l 663 -163 b 673 -162 666 -163 669 -163 b 680 -158 676 -161 678 -160 b 682 -153 682 -157 682 -155 l 682 -149 b 676 -115 678 -132 676 -121 b 678 -109 676 -111 677 -109 b 687 -117 679 -109 682 -112 b 694 -123 690 -121 692 -123 l 694 -115 b 689 24 690 -93 689 -46 b 692 127 689 50 690 85 b 697 212 694 184 696 212 b 703 205 698 212 699 210 b 714 182 705 199 709 192 b 730 153 719 173 724 163 b 744 125 734 142 739 133 l 753 106 b 715 376 743 149 730 239 b 702 570 707 463 702 528 b 708 616 702 595 704 611 l 726 894 b 772 1048 727 910 743 962 b 783 1101 780 1071 783 1088 b 782 1103 783 1103 783 1103 b 766 1069 779 1103 774 1092 b 745 1006 755 1038 748 1017 b 733 979 740 988 736 979 b 730 983 732 979 731 981 b 728 996 730 985 728 989 b 726 1017 727 1002 726 1009 b 723 1038 725 1025 724 1031 b 720 1046 722 1043 721 1046 b 701 1041 711 1042 705 1041 b 696 1045 698 1041 696 1042 l 696 1056 b 696 1065 696 1059 696 1061 b 695 1076 696 1067 696 1072 b 683 1090 694 1081 690 1086 b 644 1099 675 1095 662 1098 b 648 1105 646 1099 648 1102 b 643 1114 648 1111 646 1114 b 640 1108 642 1114 641 1112 b 632 1073 637 1084 634 1073 b 631 1076 631 1073 631 1074 b 632 1081 631 1077 631 1079 b 633 1086 632 1083 632 1084 b 633 1088 633 1088 633 1088 l 632 1093 b 635 1105 633 1093 633 1097 l 635 1115 b 612 1102 629 1114 621 1109 b 585 1076 602 1094 593 1085 b 570 1055 576 1067 572 1059 b 569 1059 570 1055 569 1057 l 570 1071 b 570 1073 570 1072 570 1073 b 562 1062 568 1073 566 1069 b 526 1044 555 1050 543 1044 l 514 1044 b 472 1012 499 1033 485 1022 b 408 943 429 977 408 954 b 410 937 408 941 408 939 b 276 754 408 934 363 873 b 199 647 245 714 220 678 b 102 498 151 578 119 528 b 62 420 81 465 68 438 b 56 389 58 408 56 398 l 56 386 b 104 496 56 413 72 450 b 204 630 136 541 169 586 b 239 673 227 659 238 673 b 261 708 239 673 246 685 b 107 439 195 591 144 501 b 60 378 82 398 66 378 b 26 293 56 368 44 340 b -9 176 11 254 -1 215 b -14 135 -13 160 -14 146 b -2 91 -14 116 -10 101 l -3 -34 b 1 28 -2 -6 -1 14 b 6 53 2 41 4 50 b 12 57 8 56 10 57 b 26 47 16 57 20 54 b 38 36 31 40 36 36 b 43 32 41 35 42 34 b 43 12 43 21 43 14 b 50 8 43 9 45 8 b 71 17 54 8 60 11 b 71 10 71 14 71 12 b 85 -3 73 1 77 -3 b 142 11 108 1 127 5 b 191 40 158 17 174 26 b 357 137 271 83 327 115 b 446 186 399 170 429 186 b 472 120 463 186 472 164 b 470 81 472 109 471 96 b 468 34 469 66 468 50 b 483 -105 468 -16 473 -62 l 490 -141 l 491 -141 b 489 -126 491 -139 490 -134 b 476 36 480 -64 476 -10 b 481 68 476 57 478 68 b 500 28 486 68 492 55 b 534 -94 513 -14 525 -55 b 542 -120 538 -108 541 -117 l 538 -103 b 538 -102 538 -103 538 -103 l 538 -100 b 538 -92 538 -96 538 -94 l 564 -144 b 569 -114 566 -124 567 -114 b 575 -132 570 -114 572 -120 b 600 -185 582 -162 590 -180 z m 322 360 b 333 374 328 366 332 370 b 355 414 339 401 347 414 b 431 537 385 459 410 500 b 476 611 460 587 475 611 b 477 594 477 611 477 606 b 469 504 477 581 474 551 l 458 402 l 412 390 b 330 365 357 374 330 366 z m 732 465 l 728 488 b 724 547 725 502 724 522 l 724 577 b 736 666 724 594 728 623 b 712 545 720 618 712 578 b 713 515 712 540 713 530 b 732 465 714 501 720 484 z m 226 5 b 241 14 228 5 233 7 b 263 35 256 26 263 33 b 262 35 263 35 262 35 b 241 22 259 35 252 30 b 224 6 230 14 224 9 b 226 5 224 5 225 5 z "},"B":{"ha":802,"x_min":0,"x_max":0,"o":"m 341 -142 b 435 -99 361 -142 393 -127 b 584 31 477 -71 527 -27 b 732 208 640 88 690 147 b 802 375 779 277 802 333 b 772 469 802 406 792 437 b 753 519 760 486 753 502 b 736 547 753 529 747 538 b 650 587 716 562 688 575 b 630 595 637 591 631 594 b 629 599 629 595 629 597 b 696 720 629 613 652 653 b 736 783 711 743 724 764 b 753 821 747 802 753 814 b 749 850 753 840 751 850 b 744 831 748 849 746 843 l 741 814 b 747 882 741 838 743 860 b 753 937 751 900 753 919 b 748 991 753 951 751 968 b 690 1073 745 1013 726 1040 b 585 1141 663 1096 628 1118 b 539 1158 562 1152 547 1158 b 534 1154 536 1158 534 1156 b 536 1149 534 1153 535 1151 l 500 1149 b 499 1149 500 1149 500 1149 l 491 1148 b 467 1145 481 1146 473 1145 b 460 1147 463 1145 460 1145 b 425 1158 454 1154 442 1158 b 336 1140 408 1158 378 1152 b 172 1067 294 1128 239 1104 b 3 940 105 1031 48 988 b 113 1015 47 972 84 998 l 157 1040 b 111 992 141 1025 125 1009 l 59 930 b 43 906 54 930 49 922 b 28 831 33 880 28 855 b 45 795 28 807 34 795 b 61 800 50 795 55 796 l 59 791 b 42 747 54 791 48 777 b 24 646 36 718 30 685 b 9 541 18 608 13 572 b 0 479 4 506 1 486 b 1 496 0 485 0 491 l 3 545 l -4 478 b -24 381 -9 423 -16 391 l -2 688 b -28 549 -16 688 -24 642 b -33 380 -31 498 -33 442 l -33 284 b -26 166 -33 236 -31 197 b 1 36 -21 136 -12 92 b 32 -7 4 23 14 9 b 92 -50 50 -22 70 -37 b 169 -77 125 -68 151 -77 b 187 -68 178 -77 184 -75 l 416 -24 b 492 15 419 -22 444 -9 b 588 85 505 23 538 46 l 634 120 l 654 132 b 584 47 651 117 627 88 b 441 -72 541 5 493 -34 b 321 -136 390 -110 350 -132 b 341 -142 327 -140 334 -142 z m 667 1099 b 637 1120 666 1101 656 1108 b 604 1135 621 1130 610 1135 b 600 1134 603 1135 602 1135 b 667 1099 623 1122 645 1111 z m 786 895 b 793 941 791 895 793 910 b 770 1040 793 978 785 1010 b 746 1072 758 1061 750 1072 l 745 1072 b 748 1066 745 1071 746 1069 b 785 972 770 1030 783 999 b 787 943 786 962 787 951 b 784 913 787 930 786 920 b 783 902 783 908 783 905 l 783 898 b 786 895 784 896 785 895 z m 718 1051 l 718 1055 b 714 1067 718 1059 717 1063 b 699 1076 711 1073 706 1076 l 697 1075 b 699 1073 697 1074 698 1074 b 718 1051 703 1071 709 1063 z m 677 1092 b 678 1093 678 1092 678 1092 l 673 1094 b 677 1092 674 1093 675 1092 z m 185 132 b 184 140 184 132 184 135 b 192 243 184 162 186 196 l 199 310 l 203 315 l 214 321 b 230 330 220 326 226 329 b 235 327 232 330 234 329 l 235 335 l 239 330 l 242 201 b 245 239 244 214 245 227 b 245 252 245 244 245 248 l 245 280 b 252 313 245 290 248 301 b 274 342 258 325 265 334 b 307 360 288 354 299 360 b 310 364 307 360 308 361 b 316 370 312 366 314 368 b 441 425 352 393 393 412 b 499 433 460 431 479 433 b 533 431 511 433 522 433 b 602 383 579 421 602 406 b 602 374 602 382 602 379 b 589 349 601 368 597 359 b 564 321 582 339 573 330 l 526 292 b 406 231 524 292 484 271 l 341 195 l 342 193 b 277 168 342 186 320 178 b 186 133 226 156 195 144 z m 231 594 b 229 595 230 594 229 595 l 230 605 b 235 631 233 618 235 626 b 230 665 232 637 230 649 b 232 700 230 671 231 683 b 245 771 233 717 237 741 b 269 850 252 802 260 828 b 298 883 279 872 288 883 b 368 903 313 884 336 890 b 479 932 406 919 444 929 b 531 907 513 932 531 924 b 528 888 531 905 530 899 b 481 832 525 876 509 857 b 386 770 452 806 420 785 b 328 755 364 760 345 755 b 302 760 319 755 310 756 l 304 758 b 329 750 308 753 317 750 b 387 764 345 750 365 755 b 473 817 411 775 439 792 b 488 824 481 821 486 824 b 488 823 488 824 488 824 l 488 823 b 484 812 488 821 487 818 l 419 741 l 342 685 b 234 597 293 648 257 618 b 231 594 232 595 231 594 z "},"C":{"ha":667,"x_min":0,"x_max":0,"o":"m 2 474 l 71 705 l 70 705 b 24 602 59 705 44 670 b 1 484 9 547 1 508 b 2 474 1 479 1 476 z m 330 -119 b 444 -102 372 -119 410 -113 b 526 -60 477 -92 505 -77 b 572 -12 548 -41 564 -26 b 585 12 581 3 585 11 b 452 -88 556 -33 511 -66 b 328 -110 412 -103 370 -110 b 229 -98 306 -110 273 -106 b 96 -3 185 -91 141 -59 b 79 20 85 11 79 18 l 83 19 b 96 14 87 16 92 14 b 101 16 98 14 99 15 l 102 8 b 105 11 103 9 104 11 b 106 10 105 11 106 11 b 107 8 106 9 107 9 l 106 5 b 140 -18 106 2 117 -6 b 197 -65 177 -38 196 -54 b 269 -75 198 -71 222 -75 b 329 -73 289 -75 309 -74 b 379 -71 349 -72 366 -71 l 400 -68 b 469 -7 412 -49 435 -28 b 550 60 502 14 528 36 b 559 75 550 61 553 66 b 582 107 566 84 573 95 b 606 140 590 119 598 130 b 621 161 613 151 618 157 l 621 161 b 628 174 623 161 626 165 b 627 179 628 178 627 179 b 610 163 624 178 618 173 b 587 143 598 151 591 144 l 600 160 b 667 298 645 218 667 264 b 652 344 667 315 663 330 b 593 380 635 362 616 374 l 581 382 b 583 380 582 382 583 381 b 533 350 583 376 566 366 b 470 309 491 331 470 317 b 413 243 470 288 451 267 b 357 216 383 224 365 216 b 357 216 357 216 357 216 b 332 211 345 214 337 212 b 321 208 328 209 324 208 b 296 227 317 208 309 214 b 288 267 291 233 288 247 b 294 345 288 292 290 318 b 372 557 305 431 331 503 b 437 633 402 596 424 622 l 442 639 b 411 614 439 639 428 631 b 303 439 361 568 326 510 b 301 435 302 436 301 435 l 307 465 b 329 553 315 502 323 531 b 347 596 337 581 343 596 l 347 595 b 363 642 350 608 355 624 l 374 669 l 373 668 b 380 685 373 669 376 675 b 404 729 385 695 393 710 b 438 787 414 748 426 768 b 472 833 451 806 463 821 b 496 850 482 844 490 850 b 507 822 503 850 507 840 l 507 809 b 504 770 505 791 504 777 b 505 758 504 762 505 758 b 514 801 507 758 509 772 l 515 811 b 520 799 519 808 520 804 b 507 752 520 791 515 775 b 507 750 507 751 507 750 b 521 764 508 750 513 755 b 518 745 519 758 518 751 b 530 722 518 734 522 726 b 562 714 539 716 549 714 b 596 746 572 714 583 724 l 602 755 b 604 752 603 755 604 754 l 605 745 b 607 748 605 745 606 746 b 616 769 610 762 613 768 b 617 768 616 769 617 768 l 620 781 l 622 750 b 627 739 623 743 625 739 b 634 754 629 739 631 744 b 656 895 649 808 656 854 b 631 1007 656 940 648 977 b 502 1084 602 1059 558 1084 b 437 1079 495 1084 473 1082 b 273 949 399 1076 345 1033 l 258 933 b 378 1109 279 992 319 1050 b 210 939 315 1076 260 1019 b 85 683 160 859 119 774 b 13 448 51 593 27 515 b 0 366 4 409 0 381 b 6 349 0 355 2 349 b 16 170 10 247 14 186 l 18 163 b 45 76 20 147 29 118 b 127 -46 61 34 88 -7 b 294 -117 166 -85 222 -109 b 330 -119 307 -118 319 -119 z m 388 237 b 398 246 389 237 392 240 b 404 255 402 250 404 254 b 404 256 404 255 404 256 b 401 254 403 256 402 255 b 396 251 400 254 398 252 b 391 246 395 250 393 248 b 387 241 389 244 388 242 l 385 239 b 386 237 385 238 385 237 z m 627 188 l 632 189 b 640 196 637 190 640 193 b 640 201 640 199 640 200 l 638 201 b 635 198 637 201 636 200 l 633 195 z "},"D":{"ha":953,"x_min":0,"x_max":0,"o":"m 257 -43 l 280 -39 b 445 -3 346 -28 401 -16 l 448 -4 b 446 -6 446 -4 446 -5 b 448 -7 446 -7 446 -7 b 494 12 452 -7 467 -1 b 628 87 552 38 597 63 l 629 87 b 687 135 637 87 656 103 b 731 182 711 159 726 175 b 734 184 733 183 734 184 b 661 87 734 182 710 150 l 602 14 l 605 14 b 642 46 612 14 624 24 b 781 244 679 90 725 156 b 850 368 827 318 850 359 b 849 368 850 368 850 368 l 848 368 l 848 372 b 863 405 850 372 854 382 b 886 466 877 446 884 466 b 914 616 905 466 914 516 l 913 663 l 909 750 b 878 838 909 768 899 798 b 850 918 862 868 852 895 b 778 1016 848 947 825 980 b 590 1104 731 1052 669 1082 b 410 1125 534 1118 473 1125 b 307 1119 376 1125 342 1123 b 5 1013 205 1110 105 1075 b 0 1009 1 1011 0 1010 l 1 1009 b 66 1036 5 1009 26 1018 l 96 1049 b 342 1109 189 1082 272 1103 b 443 1114 380 1112 414 1114 b 506 1110 467 1114 488 1113 b 557 1102 540 1105 557 1103 b 556 1101 557 1101 556 1101 b 422 1109 517 1107 473 1109 b 306 1074 372 1109 334 1097 l 284 1062 b 187 1008 250 1043 218 1025 b 177 994 185 1003 182 998 b 165 970 169 985 165 977 b 176 952 165 965 169 959 b 178 949 178 951 178 950 b 172 939 178 947 176 945 b 157 914 162 931 157 922 b 160 902 157 911 158 907 b 163 884 161 898 162 892 b 171 858 164 867 167 859 b 183 851 176 857 180 854 b 189 848 185 849 187 848 b 201 864 192 848 196 853 b 204 865 202 865 203 865 b 214 853 206 865 210 861 b 226 840 220 845 224 840 b 229 835 228 838 229 837 l 252 853 l 258 855 b 220 767 253 850 240 821 b 147 553 199 712 175 641 b 78 301 119 465 96 381 b 60 168 66 247 60 203 b 65 123 60 151 62 136 b 73 102 68 109 71 102 b 75 117 74 102 75 107 l 75 131 b 122 426 75 220 90 319 b 133 451 127 443 131 451 b 135 444 134 451 135 449 b 132 420 135 438 134 430 b 123 398 130 406 126 398 b 130 378 127 394 130 387 b 123 335 130 369 127 355 b 120 316 121 328 121 321 b 113 288 117 316 115 307 b 106 170 109 253 106 214 b 109 113 106 138 108 120 b 111 104 110 111 111 108 b 94 77 111 96 105 87 b 77 54 85 71 80 63 l 94 57 b 106 62 100 60 104 62 b 107 62 107 62 107 62 b 96 48 107 60 104 56 b 77 25 83 35 77 28 b 81 23 77 24 78 23 b 105 19 97 23 105 22 b 99 11 105 17 103 14 b 89 -3 92 5 89 1 b 96 -13 89 -6 92 -9 b 213 -41 100 -16 140 -26 z m 921 433 b 932 456 925 433 929 441 b 950 610 940 488 946 539 b 953 691 952 641 953 668 b 952 701 953 698 953 701 b 945 633 951 701 949 678 b 937 578 945 625 941 606 b 926 518 932 559 929 539 b 916 445 919 479 916 454 b 918 435 916 440 916 437 b 921 433 919 434 920 433 z m 317 183 b 313 189 316 183 315 185 b 308 220 310 196 308 206 b 315 241 308 230 310 237 b 372 443 319 247 338 314 b 414 641 400 550 414 616 b 412 650 414 646 414 648 b 410 654 410 651 410 652 b 417 673 410 658 412 664 b 445 776 435 705 445 740 b 454 825 445 787 448 804 l 463 854 b 498 907 466 887 477 905 b 510 908 502 908 506 908 b 567 891 527 908 546 903 b 616 855 587 880 604 868 b 665 792 627 844 643 823 l 691 752 b 692 732 692 747 692 741 b 703 679 692 705 695 688 b 709 654 707 673 709 665 b 672 534 709 633 697 593 b 651 472 658 500 651 479 b 652 467 651 470 652 469 b 653 462 652 465 653 464 b 627 416 653 452 644 437 b 475 276 601 387 550 340 b 429 237 452 256 437 243 b 399 211 413 220 403 211 b 397 213 397 211 397 212 b 416 256 397 220 404 234 b 455 314 433 286 446 306 b 509 478 469 334 488 388 b 519 510 516 496 519 506 b 519 511 519 511 519 511 l 519 510 b 465 374 504 469 486 423 b 396 243 444 323 421 280 b 319 184 372 206 346 186 b 317 183 319 184 318 183 z "},"E":{"ha":677,"x_min":0,"x_max":0,"o":"m 251 -10 b 374 9 299 -10 340 -3 b 444 26 396 16 419 22 b 492 37 476 31 492 35 b 475 38 492 37 486 38 l 439 37 b 463 43 439 38 448 40 b 500 56 488 50 500 54 b 559 90 519 61 539 72 b 577 112 571 101 577 109 l 576 112 b 549 103 563 106 554 103 b 545 104 547 103 546 104 b 547 109 545 106 546 108 l 555 117 b 590 149 555 126 566 137 b 612 165 604 155 612 160 b 582 182 612 172 602 177 b 601 195 595 186 601 191 b 591 203 601 197 597 200 b 511 182 548 189 522 182 b 509 182 510 182 509 182 l 518 189 l 568 207 b 604 227 568 218 581 224 l 578 225 b 536 216 576 219 562 216 l 537 221 l 541 220 b 555 225 545 220 549 222 b 566 230 561 229 564 230 b 585 232 578 231 585 231 b 568 233 585 233 579 233 b 530 238 548 237 535 238 b 522 235 524 238 522 237 b 484 244 517 241 505 244 b 389 239 458 244 426 242 b 310 234 358 235 332 234 b 287 235 301 234 294 234 l 281 230 b 281 228 281 229 281 228 b 254 328 279 228 269 261 b 252 330 253 329 252 329 b 262 336 252 331 256 333 b 339 359 281 344 307 352 b 396 370 371 367 390 370 b 399 370 397 370 399 370 b 414 368 404 368 408 368 b 511 393 433 368 466 376 b 600 427 567 415 597 427 b 644 448 629 433 644 439 b 629 462 644 452 640 456 l 616 470 b 620 471 616 471 617 471 b 644 467 628 469 636 468 b 668 471 654 467 662 469 b 670 473 669 471 670 472 b 650 486 670 475 663 479 b 669 488 663 486 669 486 b 655 494 668 490 663 492 b 590 504 635 499 614 502 b 592 505 590 505 591 505 b 600 507 593 505 595 506 b 612 507 604 507 608 507 b 633 504 624 507 631 506 b 652 498 641 501 648 499 b 657 498 654 498 656 498 b 672 535 667 498 672 510 b 669 553 672 547 671 553 l 669 553 b 629 571 648 562 635 568 b 615 584 620 577 615 581 b 633 589 615 587 621 589 b 640 590 637 589 640 589 b 635 593 640 591 639 592 b 588 611 604 601 588 607 b 617 618 588 614 597 616 b 673 624 636 621 654 622 b 661 625 673 625 669 625 b 441 640 526 625 453 630 l 386 634 b 373 631 381 632 377 631 b 372 633 372 631 372 631 b 287 625 330 627 302 625 b 262 634 271 625 262 628 b 283 656 262 639 269 646 b 304 774 290 710 298 749 b 335 822 311 798 321 814 b 399 843 349 830 370 837 b 448 855 413 846 429 850 b 443 859 445 857 443 858 b 487 869 443 863 458 865 b 485 867 486 868 485 867 b 492 869 488 867 491 867 b 539 888 499 880 515 886 b 567 888 548 888 557 888 b 693 871 608 882 650 877 l 730 870 b 612 895 652 878 612 886 b 614 900 613 897 613 898 b 632 907 614 901 620 904 b 708 920 656 915 682 919 b 734 940 726 922 734 928 b 726 967 734 947 732 956 b 749 945 738 953 745 945 b 761 959 753 945 758 950 b 775 972 765 968 770 972 l 776 981 b 771 1009 776 988 774 998 b 774 1013 773 1010 774 1011 b 703 1072 774 1034 750 1053 b 555 1093 665 1086 615 1093 b 475 1089 531 1093 505 1091 b 473 1088 475 1088 475 1088 b 467 1086 471 1087 469 1087 b 459 1086 464 1086 461 1086 b 454 1088 457 1086 455 1086 b 439 1093 451 1091 446 1093 b 319 1051 420 1093 381 1079 b 200 1009 258 1023 218 1009 b 191 1010 197 1009 193 1010 b 485 1114 328 1074 426 1108 l 486 1114 b 484 1115 486 1115 486 1115 b 412 1107 476 1115 452 1112 b 220 1038 371 1101 307 1078 b 130 968 185 1017 155 994 b 90 938 111 948 97 938 b 83 940 87 939 85 940 b 67 909 73 940 67 930 b 68 903 67 906 67 904 l 68 903 b 57 894 68 899 64 896 b 41 877 50 892 44 886 b 37 825 39 869 37 852 b 50 807 37 817 41 812 l 62 800 b 81 753 75 779 81 764 b 73 719 81 741 79 730 b 54 620 60 690 54 656 b 35 508 54 596 48 559 l 16 437 b 14 446 15 439 14 441 b 37 633 14 465 22 527 b 25 666 33 655 28 666 b 9 582 19 666 14 638 b 0 358 3 509 0 435 b 4 286 0 310 1 286 l 12 191 b 12 189 12 191 12 190 b 35 127 12 181 20 160 l 52 92 b 42 117 48 103 45 111 b 37 142 39 122 37 130 b 37 153 37 147 37 151 l 39 159 b 38 155 38 157 38 156 b 44 131 38 149 40 141 b 71 79 49 118 58 100 b 237 -10 102 32 158 2 z m 296 -35 b 344 -28 328 -33 344 -31 l 344 -28 b 211 -17 297 -26 253 -23 b 70 15 169 -11 122 -1 b 69 13 69 14 69 14 b 90 -1 69 9 76 5 b 149 -20 104 -7 124 -14 b 220 -34 173 -26 197 -31 b 267 -35 226 -35 241 -35 z "},"F":{"ha":680,"x_min":0,"x_max":0,"o":"m 159 -1 b 173 0 161 -1 165 -1 b 206 13 180 1 191 5 b 264 118 243 33 262 68 b 239 221 264 146 256 181 l 240 229 l 243 238 b 243 237 243 238 243 237 b 256 181 248 199 253 181 b 265 221 260 181 263 195 l 269 309 b 273 330 269 319 271 326 b 298 341 277 336 286 339 l 367 360 b 608 430 450 382 531 406 b 707 470 674 451 707 464 b 695 474 707 472 703 473 l 692 474 b 693 475 692 475 692 475 b 700 477 694 475 696 476 b 711 479 703 477 707 478 b 719 480 714 479 717 479 b 723 481 721 481 722 481 l 724 483 b 718 482 722 482 720 482 b 714 484 715 482 714 483 b 720 488 714 484 716 486 b 730 492 724 490 728 491 b 732 493 731 492 732 492 b 721 500 726 495 723 498 b 718 511 719 503 718 506 b 727 523 718 513 721 517 l 736 529 b 715 535 722 529 715 531 b 732 550 715 538 721 543 l 735 553 b 716 574 730 567 724 574 b 707 573 713 574 709 574 l 712 576 b 716 578 715 576 716 576 b 701 587 716 583 711 585 b 659 603 691 587 677 593 b 686 597 671 600 681 597 b 694 598 692 597 694 597 l 694 599 b 679 614 694 601 689 606 l 662 624 b 656 623 661 623 659 623 b 622 631 648 623 637 625 l 602 639 b 580 637 601 638 593 637 b 471 640 563 637 527 638 b 433 637 453 640 440 639 l 385 629 b 357 628 373 629 363 628 b 349 629 351 628 349 628 b 497 648 383 635 433 642 b 594 662 559 654 591 659 b 509 653 576 659 547 656 b 323 627 424 647 361 638 l 336 741 l 336 746 b 399 795 336 763 357 780 b 557 838 440 811 493 825 b 732 867 620 850 678 860 b 829 880 785 875 817 879 b 868 892 842 881 854 885 b 900 914 881 899 892 907 b 909 928 906 920 909 924 b 908 930 909 928 909 930 b 888 951 895 941 888 948 b 895 955 888 954 890 955 b 921 949 901 955 909 953 b 913 985 921 967 918 979 b 892 999 908 991 901 996 b 857 1027 882 1002 869 1012 l 890 1011 b 899 1014 896 1011 899 1012 b 859 1046 899 1019 886 1029 b 818 1077 842 1057 828 1067 b 773 1093 809 1084 794 1089 b 667 1097 748 1096 713 1097 b 645 1093 652 1097 645 1096 b 646 1091 645 1093 646 1092 b 648 1090 647 1090 647 1090 b 652 1087 648 1089 650 1088 b 446 1076 524 1080 455 1076 l 420 1072 b 380 1066 401 1068 388 1066 b 565 1109 441 1083 503 1098 b 721 1136 627 1121 678 1130 l 785 1145 b 767 1147 782 1147 776 1147 b 536 1113 726 1147 649 1136 b 337 1064 469 1099 403 1082 b 108 1004 195 1024 119 1004 b 105 1004 106 1004 106 1004 b 66 975 104 1000 91 989 l 26 952 b 38 941 34 947 38 944 b 10 930 38 937 28 933 b -36 914 -5 926 -21 922 b -56 876 -49 907 -56 895 b -43 872 -55 873 -51 872 b -5 879 -33 872 -20 874 l 22 886 b -33 865 17 883 -1 876 b -52 857 -45 861 -52 858 l -14 865 b -18 864 -15 865 -16 865 b -26 861 -20 863 -23 862 b -35 857 -30 859 -33 858 b -39 852 -37 855 -39 854 b -35 850 -39 852 -38 850 b -61 836 -46 846 -55 842 b -71 817 -67 829 -71 823 b -57 808 -71 812 -66 808 l -52 817 b -50 810 -50 815 -50 812 b -56 794 -50 805 -52 800 l -64 785 b -31 794 -46 791 -35 794 b -28 793 -29 794 -28 794 b -41 779 -28 788 -33 783 l -54 772 b -47 767 -54 770 -52 769 b -33 760 -43 765 -39 763 b 1 741 -12 752 0 745 l 15 738 b 71 732 31 734 50 732 l 84 732 b 87 724 86 732 87 730 b 65 603 87 705 80 664 b 50 522 55 556 50 530 l 40 534 b 43 496 42 520 43 508 b 33 454 43 469 39 455 l 32 454 b 22 487 28 454 25 465 b 19 559 20 503 19 527 l 20 605 l 14 551 b 7 404 9 506 7 457 b 58 99 7 272 24 170 b 130 22 77 66 100 41 b 148 3 142 14 148 8 b 159 -1 148 1 152 -1 z m 267 23 b 273 34 267 23 269 26 b 288 94 283 56 288 76 b 286 113 288 100 288 106 b 279 128 285 119 283 124 b 272 134 276 132 274 134 b 271 134 271 134 271 134 b 274 128 271 133 272 131 b 277 113 276 125 277 120 b 269 69 277 105 274 90 b 262 33 264 51 262 39 b 264 24 262 28 262 26 b 266 23 264 23 265 23 z "},"G":{"ha":861,"x_min":0,"x_max":0,"o":"m 671 -178 l 673 -172 l 675 -164 b 679 -174 675 -169 677 -172 b 688 -176 681 -175 684 -176 b 697 -169 694 -174 697 -172 b 691 -167 697 -168 695 -167 l 702 -165 b 758 -151 724 -162 742 -157 b 781 -127 773 -144 781 -136 b 778 -118 781 -125 780 -121 l 790 44 b 891 -140 802 16 835 -46 b 810 25 862 -65 835 -9 b 783 79 791 53 783 71 b 791 93 783 85 785 90 b 800 233 793 100 795 146 b 807 245 803 234 805 238 l 810 257 b 795 264 800 257 795 260 b 824 299 795 272 805 283 b 927 346 857 327 891 342 b 941 348 934 347 939 347 b 945 351 943 349 945 349 b 935 355 943 353 939 355 b 932 357 935 356 933 357 b 931 358 932 357 931 357 l 933 358 b 960 359 945 358 954 359 b 968 362 964 360 967 361 b 968 364 968 363 968 363 b 959 371 968 366 965 368 l 951 374 l 962 381 l 989 400 l 993 405 l 951 422 l 956 420 b 970 418 960 419 965 418 b 985 419 977 418 981 418 b 994 431 991 420 994 425 b 991 438 994 433 993 436 b 981 445 989 440 985 443 b 971 449 977 447 974 448 b 966 451 968 450 966 450 b 964 452 965 451 964 451 l 985 453 b 996 454 992 453 996 454 b 994 456 996 455 996 456 b 986 462 991 457 989 459 b 979 473 983 465 981 468 b 975 481 977 477 975 479 b 932 496 975 484 961 488 b 948 503 932 497 937 499 b 979 518 968 509 978 515 l 979 519 b 910 536 979 525 956 531 b 786 555 874 541 833 547 l 705 569 b 868 598 706 571 760 581 l 957 611 b 931 615 954 614 945 615 b 774 596 900 615 848 609 l 604 565 l 597 559 b 595 559 597 559 597 559 l 588 559 b 543 549 567 554 552 551 l 538 547 b 452 496 491 545 463 528 b 446 486 450 490 448 486 l 445 486 b 434 497 443 486 439 490 b 427 486 429 490 427 486 b 427 483 427 484 427 484 l 426 482 l 426 481 l 427 481 l 405 439 b 387 384 393 414 387 395 b 395 373 387 376 390 373 l 401 374 b 419 380 412 378 418 380 b 420 379 420 380 420 380 l 405 372 b 393 361 397 367 393 363 b 404 359 393 360 397 359 l 410 359 l 416 356 b 402 358 410 357 406 358 b 396 355 398 358 396 357 b 404 347 396 353 399 350 b 411 338 408 342 411 340 l 411 336 b 406 336 410 336 409 336 b 399 334 401 335 399 335 b 402 333 399 334 400 334 b 446 329 404 332 418 331 b 426 317 433 329 426 325 b 427 307 426 316 427 313 b 444 288 428 301 433 295 b 461 281 449 283 455 281 b 479 286 467 281 473 283 b 477 280 477 283 477 281 b 477 279 477 279 477 279 b 488 283 479 279 483 280 b 495 287 490 285 492 286 l 375 199 b 372 196 375 197 374 196 b 338 210 366 196 355 201 l 319 222 l 317 221 b 307 248 314 221 311 230 b 290 389 296 290 290 337 b 292 422 290 394 291 406 b 306 471 292 439 297 456 b 378 610 334 518 357 565 l 390 646 b 389 651 389 648 389 649 b 422 691 389 659 399 672 b 458 736 446 712 458 728 b 455 745 458 740 457 743 l 456 739 b 451 729 456 732 454 729 b 449 733 450 729 449 730 b 506 814 449 747 468 774 l 562 872 l 578 861 b 590 844 586 854 590 848 l 589 843 b 580 841 589 842 586 841 l 578 831 b 580 829 578 831 579 830 b 580 826 580 828 580 827 b 576 812 580 819 578 814 b 570 787 573 809 571 800 b 572 743 570 771 571 756 b 585 711 576 722 580 711 b 591 720 587 711 589 714 b 595 729 593 726 595 728 l 596 728 b 595 726 596 728 596 727 b 594 719 595 725 595 722 b 591 701 592 711 591 705 b 592 698 591 699 591 698 b 603 715 594 698 597 704 b 612 733 608 727 612 733 b 613 732 613 733 613 733 b 606 707 613 730 610 722 b 604 702 605 703 604 702 b 600 678 602 691 600 683 b 604 670 600 673 602 670 b 614 675 606 670 610 671 b 625 680 618 677 622 680 b 629 680 627 680 628 680 b 629 677 629 679 629 677 b 627 673 629 676 628 675 l 623 663 l 623 659 l 626 659 b 641 676 635 663 640 669 b 642 687 641 684 641 687 b 644 681 642 687 644 685 b 646 671 645 677 646 673 b 644 667 646 668 645 667 b 637 663 640 667 638 665 b 640 652 637 659 638 656 b 652 646 644 648 648 646 b 668 662 660 646 665 651 b 665 659 666 661 665 660 b 663 656 664 657 663 656 l 662 659 b 667 665 662 663 663 665 b 682 656 670 665 675 663 l 694 646 l 699 654 b 710 673 701 660 705 666 b 726 693 715 681 720 687 b 743 704 731 699 737 703 b 735 700 739 702 736 701 b 733 694 734 699 733 696 l 736 690 b 743 669 741 684 743 677 b 760 694 749 675 754 684 b 774 722 766 704 770 713 b 780 733 777 728 779 731 b 781 735 781 734 781 735 l 781 732 l 787 745 b 817 858 803 745 813 783 l 819 930 l 817 950 b 848 844 821 950 831 915 l 860 801 b 861 802 861 801 861 801 b 850 865 861 804 857 825 b 840 901 848 873 845 886 b 821 951 833 916 827 932 b 785 1059 797 1008 785 1045 b 786 1066 785 1062 785 1064 b 764 1085 786 1069 779 1076 b 725 1122 739 1099 726 1112 b 631 1158 721 1146 690 1158 b 602 1158 627 1158 617 1158 b 547 1150 586 1157 568 1155 b 515 1136 526 1145 515 1141 l 484 1125 b 510 1142 501 1133 510 1138 b 506 1145 509 1143 508 1144 b 496 1139 499 1145 496 1143 l 353 1034 b 390 1064 371 1048 384 1059 b 410 1081 396 1069 402 1075 b 428 1096 417 1087 423 1093 l 435 1103 b 415 1088 432 1101 425 1096 b 260 953 361 1044 309 1000 b 180 850 207 902 180 868 b 187 839 180 846 182 842 b 184 837 186 839 186 838 b 169 828 177 831 172 828 b 165 832 167 828 165 829 b 173 853 165 836 168 843 b 216 931 181 873 195 899 b 355 1124 239 969 286 1034 b 432 1231 406 1191 432 1226 b 431 1232 432 1232 431 1232 b 380 1187 427 1232 410 1217 b 214 935 356 1162 301 1078 b 74 669 121 783 74 694 b 64 635 74 667 71 656 b 23 505 52 602 39 558 b -18 311 -5 413 -18 349 b -1 275 -18 288 -12 275 l 1 275 b -1 277 0 275 0 276 b -3 279 -1 277 -2 278 b -4 281 -3 279 -4 280 b 5 283 -4 282 -1 283 l 5 221 b 18 157 6 180 10 159 l 31 136 l 51 101 l 54 94 l 62 83 b 85 45 77 63 85 50 b 82 43 85 43 84 43 b 62 53 79 43 73 46 b -138 190 -68 144 -135 190 l -136 187 b -16 100 -130 181 -90 152 b 104 23 58 49 98 23 l 110 24 b 142 -5 119 24 130 14 b 172 -32 153 -23 163 -32 b 184 -28 176 -32 180 -31 l 184 -28 b 207 -50 184 -33 191 -40 b 273 -73 229 -66 251 -73 b 336 -66 296 -73 316 -71 b 385 -51 355 -61 372 -56 l 404 -43 b 379 -41 387 -43 379 -43 b 412 -31 379 -39 390 -36 l 435 -27 l 424 -30 l 420 -39 b 267 -142 367 -92 316 -127 b 224 -148 256 -146 241 -148 b 178 -127 211 -148 196 -141 l 183 -134 b 202 -144 189 -136 195 -139 b 233 -151 209 -149 219 -151 b 249 -150 238 -151 243 -151 b 293 -136 259 -146 273 -142 b 467 -20 343 -121 401 -82 b 505 10 490 0 503 10 b 509 -3 508 10 509 6 b 546 -69 509 -26 522 -49 l 544 -68 b 543 -70 543 -68 543 -69 b 551 -75 543 -71 545 -73 l 555 -87 b 600 -140 571 -123 586 -140 z "},"H":{"ha":949,"x_min":0,"x_max":0,"o":"m 928 1062 b 936 1078 933 1069 936 1074 b 935 1081 936 1080 935 1081 b 928 1069 931 1081 929 1077 z m 692 -134 l 698 -129 b 708 -118 702 -125 705 -121 b 713 -114 710 -115 712 -114 l 713 -115 b 718 -123 713 -120 715 -123 l 722 -123 b 749 -103 728 -121 738 -115 b 762 -85 758 -96 762 -90 b 761 -84 762 -85 762 -84 b 774 -66 767 -78 772 -72 l 775 -62 l 774 -61 b 769 -62 772 -61 771 -62 l 770 -45 b 770 -1 770 -33 770 -18 b 772 50 771 16 772 33 b 776 92 773 67 774 81 b 780 109 777 104 778 109 b 785 61 782 108 784 92 b 786 38 785 52 785 45 l 789 24 b 798 63 791 24 793 37 b 829 -30 800 40 811 9 b 852 -74 843 -59 850 -74 l 832 -26 b 804 129 814 18 804 70 b 827 312 804 169 812 230 b 914 603 842 394 871 491 b 1031 863 957 715 996 801 b 1058 894 1044 884 1053 894 l 1061 892 b 1066 875 1063 892 1065 886 l 1065 857 b 1067 884 1067 867 1067 877 b 1060 907 1067 899 1065 907 b 1049 901 1059 907 1055 905 b 1013 842 1043 897 1031 877 b 904 595 981 780 945 698 l 874 513 l 878 528 l 924 689 b 985 911 964 832 985 907 b 984 912 985 912 985 912 l 974 890 b 966 877 970 881 967 877 b 966 886 966 878 966 880 b 964 899 966 895 965 899 l 972 920 l 974 911 l 975 911 b 979 914 976 911 977 912 b 989 930 983 918 986 923 l 989 935 b 983 944 987 939 985 942 l 1002 995 b 993 983 997 987 994 983 b 991 987 992 983 992 985 b 995 1008 991 990 993 997 l 999 1023 b 991 1008 995 1013 992 1008 b 988 1023 989 1008 988 1013 l 988 1044 l 962 1036 l 968 1062 b 943 1053 962 1059 954 1057 l 923 1047 l 923 1068 b 917 1085 922 1080 920 1085 b 907 1074 913 1085 911 1081 b 894 1038 899 1049 894 1038 b 896 1044 895 1040 895 1042 b 897 1050 897 1047 897 1049 b 895 1052 897 1051 896 1052 l 894 1051 b 888 1044 893 1050 891 1048 l 899 1076 l 870 1068 l 869 1069 b 833 1029 864 1069 852 1056 b 769 931 813 1003 792 970 b 713 827 745 892 727 858 b 699 787 704 808 699 795 b 704 779 699 782 701 779 b 690 747 698 777 693 767 b 680 713 688 736 684 725 b 677 707 678 709 677 707 l 676 707 l 676 712 l 669 699 b 637 619 648 659 637 632 l 637 618 b 604 610 637 615 626 612 b 429 602 581 608 522 606 l 387 601 b 358 588 387 592 377 588 b 349 595 352 588 349 590 b 475 656 349 608 391 629 b 551 684 526 672 551 682 b 549 684 551 684 550 684 b 450 656 537 684 504 675 b 351 609 397 637 364 622 b 340 603 346 605 342 603 b 336 614 337 603 336 606 b 340 640 336 621 337 629 b 351 671 344 659 348 669 l 382 787 b 357 716 377 787 369 763 b 334 650 346 672 338 650 l 432 993 l 429 1005 b 425 1031 429 1013 427 1021 b 419 1060 423 1042 421 1051 b 411 1076 416 1071 413 1076 b 407 1065 410 1076 408 1072 b 405 1060 406 1061 406 1060 b 404 1065 405 1061 405 1062 b 403 1076 404 1069 404 1072 b 399 1086 402 1080 401 1084 b 395 1090 398 1088 397 1090 b 381 1078 391 1090 387 1086 l 387 1097 l 364 1099 b 336 1104 351 1100 341 1102 l 280 1072 l 263 1056 b 224 1015 252 1046 238 1032 b 168 893 186 971 168 930 b 135 791 168 871 157 837 l 102 728 b 100 731 101 728 100 729 b 122 799 100 739 108 761 b 241 1095 153 881 192 980 b 281 1175 264 1148 278 1175 b 283 1174 282 1175 282 1175 b 283 1171 283 1173 283 1173 b 282 1160 283 1166 283 1163 b 281 1150 281 1156 281 1152 l 281 1149 l 283 1150 b 292 1174 289 1157 292 1165 b 286 1183 292 1180 290 1183 b 210 1076 271 1183 245 1147 b 89 706 186 1027 146 903 b 31 524 56 593 37 532 b 0 378 10 499 0 451 b 12 195 0 317 4 255 b 30 67 20 130 26 88 b 35 72 31 71 33 72 l 36 70 b 45 66 39 67 41 66 b 54 68 48 66 51 66 l 59 45 l 63 32 b 64 33 64 32 64 32 b 64 43 64 33 64 37 b 71 35 65 42 67 39 b 94 6 81 18 89 9 b 97 15 96 6 97 9 l 97 24 b 99 25 98 24 98 25 b 111 14 100 25 104 21 l 116 5 l 126 10 l 132 10 l 143 5 l 148 10 b 171 31 153 10 161 17 b 182 50 177 41 180 47 b 186 54 184 53 185 54 b 189 53 186 54 188 54 b 190 43 189 52 189 48 b 194 27 191 33 192 27 b 220 135 199 27 208 63 b 236 232 230 189 235 221 l 237 233 b 238 237 237 236 237 237 b 239 220 239 237 239 231 b 271 53 239 182 250 126 b 288 3 281 20 286 3 l 288 4 b 279 58 288 9 285 27 b 264 148 274 85 269 115 b 254 254 257 192 254 227 b 260 288 254 271 256 283 b 330 317 276 302 299 311 b 428 331 361 323 394 328 b 505 341 457 334 483 337 b 549 360 528 345 542 351 b 556 366 551 363 554 366 b 576 196 566 366 573 309 b 606 -72 579 52 589 -37 l 607 -68 b 608 -63 608 -66 608 -64 b 609 -62 608 -62 608 -62 b 620 -75 611 -62 614 -66 l 622 -81 b 621 -83 622 -83 622 -83 l 621 -84 l 619 -84 l 658 -112 b 656 -123 657 -117 656 -120 b 660 -128 656 -126 658 -128 l 661 -128 b 667 -124 662 -128 664 -127 l 670 -121 b 665 -119 667 -121 666 -120 b 674 -108 665 -116 668 -112 b 684 -106 676 -106 680 -106 b 692 -132 689 -107 692 -116 b 692 -134 692 -133 692 -134 z m 456 604 b 458 606 458 604 458 604 b 451 614 457 611 455 614 b 444 605 448 614 446 611 l 444 604 b 445 604 444 604 444 604 b 446 606 445 605 446 605 b 448 607 447 606 447 607 l 449 606 b 456 604 452 604 454 604 z "},"I":{"ha":609,"x_min":0,"x_max":0,"o":"m 105 292 l 97 337 b 90 392 92 368 90 387 b 89 418 90 410 90 418 b 87 387 88 417 87 407 b 105 292 87 329 93 298 z m 118 -109 b 163 -75 123 -109 138 -98 b 235 -11 207 -36 231 -14 b 313 20 244 -4 270 6 b 378 36 349 31 370 36 b 380 35 379 36 380 36 b 391 32 382 33 387 32 b 409 44 396 33 402 37 l 419 55 l 424 54 b 444 58 429 54 436 56 b 467 75 459 60 467 66 b 475 64 469 68 472 64 b 481 66 477 64 479 64 b 484 75 483 68 484 71 b 494 71 485 73 488 71 b 519 81 499 71 507 74 l 533 92 b 532 93 532 92 532 92 b 539 100 532 94 534 96 b 555 119 550 108 555 115 b 539 121 554 121 549 121 l 526 121 b 519 121 522 121 519 121 l 521 122 b 530 124 522 123 525 123 b 545 128 534 125 540 127 b 565 132 553 130 559 131 b 574 136 570 134 574 134 l 575 141 b 555 159 575 150 568 156 b 511 165 542 163 528 165 l 498 164 b 512 167 499 165 504 166 b 568 172 549 169 568 170 l 505 172 b 531 175 506 173 515 174 b 559 179 549 176 558 178 b 560 183 559 180 560 182 b 556 189 560 186 559 188 b 550 198 552 191 550 194 b 566 208 550 203 555 207 b 568 209 566 208 567 209 l 561 209 b 569 220 566 214 568 218 b 565 222 569 221 568 222 l 547 221 b 537 224 541 221 537 222 b 524 256 537 238 533 248 b 443 279 509 266 482 273 b 380 298 408 284 387 290 b 378 311 378 301 378 306 b 394 381 378 325 383 348 b 443 506 405 415 421 456 b 505 639 465 555 485 600 b 548 713 526 679 540 703 b 559 719 552 717 555 719 b 566 717 562 718 565 718 l 569 717 l 568 720 b 556 726 564 724 560 726 b 432 512 533 726 492 654 b 418 486 425 494 420 486 b 418 487 418 486 418 486 b 421 500 418 489 419 494 b 432 513 425 509 428 513 l 431 519 b 428 532 429 523 429 527 b 429 551 428 541 428 547 b 448 577 430 564 436 572 b 448 579 448 577 448 578 b 464 637 448 585 453 604 b 487 724 479 688 487 717 b 549 836 487 778 508 815 b 572 844 551 839 559 842 b 659 852 599 850 627 852 b 676 850 671 852 676 851 b 678 852 677 850 678 850 b 686 859 682 854 684 857 b 690 871 688 861 690 865 b 688 865 688 867 688 865 b 686 863 687 864 687 863 l 687 869 b 694 886 689 880 692 886 b 696 882 695 886 696 884 l 701 891 b 701 883 701 888 701 886 b 703 882 701 882 702 882 b 707 883 704 882 705 882 b 713 884 709 884 711 884 b 720 882 716 884 718 884 b 722 890 721 884 722 887 b 713 897 721 892 718 895 l 713 897 b 728 926 722 897 726 907 b 733 943 728 937 729 943 l 724 951 l 716 958 l 716 960 l 719 962 l 716 977 b 686 1018 710 998 701 1012 b 598 1035 671 1025 642 1030 l 587 1036 l 590 1036 b 623 1042 612 1036 623 1038 b 621 1045 623 1043 622 1044 b 570 1054 613 1051 596 1054 b 441 1057 519 1054 477 1055 l 408 1059 l 281 1022 b 415 1099 296 1035 340 1060 l 528 1154 b 506 1159 521 1158 514 1159 b 317 1053 473 1159 410 1124 b 196 977 264 1012 224 987 l 142 917 b 87 848 107 878 89 854 b 83 819 84 836 83 826 b 83 807 83 817 83 812 b 87 794 84 802 85 798 b 90 785 89 791 90 788 b 87 774 90 782 89 779 b 86 768 87 772 86 770 b 90 759 86 765 87 762 b 103 751 93 755 98 753 b 125 746 111 747 119 746 l 131 747 b 125 753 131 749 129 751 l 132 755 b 144 757 136 756 140 757 b 142 755 144 757 143 756 b 124 740 130 747 124 741 b 125 739 124 740 124 739 b 132 741 127 739 130 740 b 143 743 135 743 139 743 b 146 740 145 743 146 742 b 145 734 146 739 146 736 b 143 730 144 733 144 731 b 142 724 142 728 142 726 l 142 724 l 207 732 b 203 740 205 736 203 739 l 205 740 b 220 723 208 740 212 734 b 223 709 222 720 223 715 b 214 705 223 707 220 705 l 212 705 b 204 707 212 707 209 707 b 197 696 199 705 197 702 b 199 688 197 692 198 690 b 201 684 201 686 201 685 b 190 655 199 684 195 675 b 164 593 180 621 171 601 b 138 508 154 581 145 553 b 122 336 127 449 122 391 b 129 266 122 305 124 281 b 131 252 130 261 131 256 b 117 209 131 239 126 225 b 81 159 109 192 96 176 b 41 126 65 143 52 132 l 21 100 b 14 85 16 93 14 88 b 14 84 14 85 14 84 b 28 86 20 84 24 85 b 30 87 28 87 29 87 b 31 86 30 87 31 87 b 3 59 31 85 21 75 b 0 52 1 57 0 54 b 6 51 1 52 3 51 b 5 42 5 51 5 48 b 8 33 5 39 6 36 b 12 23 9 29 11 26 b 8 14 12 20 10 17 l 7 12 b 18 14 9 12 13 12 b 30 18 24 17 28 18 b 31 18 31 18 31 18 b 32 16 32 17 32 17 b 13 -5 32 14 26 7 b 37 -16 20 -12 28 -16 b 52 -13 42 -16 47 -15 l 62 -7 b 55 -13 60 -9 58 -12 b 45 -18 52 -15 49 -16 b 39 -22 42 -20 40 -21 b 39 -23 39 -22 39 -23 b 68 -28 39 -25 48 -26 b 83 -30 77 -28 81 -28 l 73 -29 b 64 -43 67 -32 64 -37 l 122 -40 l 125 -38 l 126 -38 b 127 -41 126 -39 126 -40 b 130 -42 128 -41 129 -42 b 134 -43 131 -43 132 -43 l 159 -30 b 191 -16 176 -22 186 -17 b 193 -17 193 -16 193 -16 b 190 -20 193 -18 192 -18 b 187 -25 188 -23 187 -24 l 187 -26 l 189 -26 b 193 -24 190 -26 191 -25 b 199 -22 195 -24 197 -22 b 205 -19 201 -20 203 -20 l 207 -18 l 191 -29 b 157 -55 181 -36 170 -45 b 115 -104 129 -78 115 -94 b 117 -108 115 -105 115 -107 z "},"J":{"ha":825,"x_min":0,"x_max":0,"o":"m 273 174 l 272 175 b 269 179 272 176 271 177 b 233 264 247 201 235 229 b 229 300 233 288 231 300 b 228 284 228 300 228 294 b 233 233 228 267 229 249 b 270 175 239 201 252 182 z m 337 -123 l 456 -90 b 461 -92 458 -92 459 -92 b 590 7 475 -92 518 -59 b 636 46 618 32 634 45 l 694 138 b 908 588 802 312 873 463 b 923 659 918 628 923 651 b 922 661 923 661 923 661 b 877 550 920 661 905 624 b 779 319 829 420 796 343 b 791 373 779 327 783 345 b 819 427 800 405 809 423 b 816 436 817 428 816 431 b 838 550 816 450 823 488 b 876 755 863 650 876 719 b 868 790 876 771 873 783 b 854 823 859 800 854 810 b 862 858 854 836 857 847 b 885 884 870 876 878 884 b 891 880 887 884 889 883 b 896 886 892 883 894 886 l 899 884 b 912 876 901 879 905 876 b 922 877 913 876 917 876 b 945 886 926 878 934 880 b 978 904 956 891 967 897 b 1004 922 988 911 997 917 l 1015 930 b 999 925 1008 926 1002 925 b 994 928 996 925 994 926 b 996 935 994 930 994 932 b 999 940 997 937 998 939 b 1001 943 1000 941 1000 942 b 1000 943 1001 943 1001 943 l 983 935 l 1002 949 b 1015 966 1010 956 1015 962 b 1005 973 1015 970 1011 972 b 994 976 998 974 994 975 b 991 977 992 977 991 977 b 1015 985 991 979 999 982 l 1029 988 l 1007 991 b 1000 989 1002 991 1000 991 l 1000 988 b 998 989 999 988 998 989 b 992 998 997 990 995 994 l 991 1002 l 992 1000 b 1002 995 996 997 998 995 b 1017 1005 1007 995 1013 998 b 1023 1019 1021 1010 1022 1015 b 1017 1027 1023 1024 1021 1027 b 996 1020 1012 1027 1004 1025 b 988 1016 992 1018 989 1017 b 987 1017 987 1016 987 1016 b 996 1029 987 1017 989 1021 l 1002 1036 b 998 1038 1001 1037 1000 1038 b 989 1035 996 1038 993 1037 b 979 1029 986 1033 982 1031 b 970 1024 975 1026 972 1025 l 970 1025 b 973 1031 970 1025 971 1027 b 974 1033 974 1031 974 1032 b 922 1068 974 1041 957 1053 b 862 1086 896 1080 876 1086 b 852 1083 857 1086 854 1085 b 833 1078 847 1080 841 1078 b 768 1097 820 1078 798 1084 b 754 1101 759 1098 754 1100 l 754 1102 b 756 1110 755 1104 756 1107 b 749 1115 756 1114 753 1115 b 739 1114 746 1115 743 1114 b 677 1118 728 1114 707 1115 b 618 1124 641 1121 621 1123 b 614 1128 616 1126 614 1127 l 614 1128 b 784 1145 633 1139 690 1145 b 911 1142 821 1145 863 1144 b 781 1152 867 1148 824 1152 b 590 1130 707 1152 643 1144 b 546 1122 574 1125 560 1122 b 447 1095 524 1122 491 1113 b 330 1029 403 1076 364 1054 b 281 960 297 1005 281 982 b 301 979 294 973 300 979 b 302 979 302 979 302 979 b 300 975 302 978 301 977 b 283 951 295 969 290 961 b 276 934 279 943 276 937 b 281 931 276 932 278 931 b 271 912 274 925 271 919 b 273 904 271 908 271 905 l 275 903 b 297 916 286 911 294 916 b 299 914 298 916 299 916 b 292 892 299 911 296 903 b 288 884 290 887 288 884 b 313 868 288 873 296 868 l 319 868 b 315 859 317 865 315 862 b 318 852 315 857 316 855 b 329 844 320 850 323 847 b 347 838 334 842 340 840 b 362 836 353 837 357 836 l 369 835 l 403 838 b 490 849 425 839 454 843 b 602 877 525 855 562 864 b 619 880 608 879 614 880 b 644 842 635 880 644 867 b 625 745 644 822 637 790 b 611 677 616 709 611 687 b 613 667 611 673 612 669 b 615 656 614 664 615 661 b 601 607 615 646 610 629 b 512 452 583 566 553 514 l 492 418 b 515 446 493 418 501 428 b 545 492 523 456 532 471 b 585 551 568 531 582 551 l 586 551 b 587 548 587 551 587 550 b 578 515 587 543 584 532 l 505 327 b 506 326 506 327 506 327 b 424 224 506 320 479 286 b 390 185 410 208 399 195 b 376 170 380 175 376 170 b 367 163 375 169 372 167 b 357 158 361 160 358 158 l 307 150 b 258 146 290 147 274 146 b 214 163 229 146 214 152 b 210 168 214 164 213 165 b 159 220 176 197 159 214 b 160 222 159 221 159 222 b 175 232 170 227 174 230 l 175 233 b 153 242 175 236 168 239 b 133 248 141 244 135 246 l 133 249 b 155 260 133 252 140 256 b 170 267 165 264 170 266 l 165 267 l 160 267 b 142 264 152 265 146 264 l 140 264 b 157 282 151 272 157 278 b 140 289 157 287 151 289 b 121 288 134 289 127 289 b 104 287 114 288 109 288 l 97 286 l 119 297 b 88 293 109 297 98 296 b 57 281 68 287 58 283 b 62 285 57 282 58 283 b 79 295 65 287 71 290 l 82 297 l 73 295 b 22 277 48 288 31 282 b -19 233 3 268 -10 253 b -29 222 -22 226 -26 222 b -28 218 -28 222 -28 220 b -33 208 -28 216 -30 212 l -39 201 l -37 197 l -42 177 b -48 169 -46 177 -48 174 b -19 96 -48 158 -39 134 l 5 52 b 72 -26 5 41 27 15 b 109 -67 97 -50 109 -64 l 109 -68 b 35 -41 93 -68 68 -60 b -28 12 5 -26 -16 -8 b -45 44 -39 27 -45 38 b -43 47 -45 46 -44 47 b -36 43 -41 47 -39 45 l -24 34 b -24 35 -24 34 -24 34 l -30 41 l -39 49 b -53 56 -45 54 -50 56 b -56 52 -55 56 -56 54 b -49 31 -56 48 -54 41 b 27 -46 -29 -6 -3 -32 b 110 -76 58 -61 85 -71 l 113 -77 b 148 -94 136 -82 148 -88 l 148 -95 b 167 -102 148 -98 154 -100 b 271 -117 191 -108 226 -113 z "},"K":{"ha":1096,"x_min":0,"x_max":0,"o":"m 59 -35 b 60 -34 60 -35 60 -35 b 37 -4 60 -32 52 -22 b -26 77 8 28 -13 55 l -26 76 b 57 -35 -21 22 7 -15 z m 153 -38 b 172 -30 156 -38 163 -35 l 188 -21 l 218 68 l 222 60 b 233 115 225 60 229 79 b 237 170 235 143 237 161 l 245 183 b 250 208 246 189 248 198 b 256 239 252 218 254 229 b 268 263 259 255 263 263 b 275 257 270 263 273 261 b 308 215 283 244 294 230 b 295 260 299 234 295 249 b 296 264 295 263 295 264 b 300 243 298 264 299 257 l 306 253 b 328 229 307 251 314 243 b 382 179 342 214 361 197 b 493 107 435 132 472 109 l 515 98 b 669 51 584 66 635 51 l 680 52 b 892 60 702 56 773 58 b 987 82 933 68 964 75 b 1050 119 1012 90 1033 102 b 1049 119 1050 119 1050 119 b 1044 120 1046 119 1044 119 b 1027 125 1038 123 1032 125 l 1069 153 b 1096 189 1084 157 1094 168 b 1095 215 1096 199 1095 208 l 1088 242 l 1088 248 l 1052 297 b 1036 277 1047 284 1042 277 b 1029 288 1032 277 1030 281 b 1025 299 1029 296 1027 299 b 1009 283 1023 299 1017 294 b 1006 281 1008 282 1007 281 b 1004 283 1006 281 1005 282 b 1003 291 1004 283 1003 286 b 1015 298 1006 291 1010 294 l 950 311 b 920 319 930 314 920 317 l 920 319 b 947 332 928 321 937 326 b 1003 372 966 344 985 357 l 1018 383 b 1011 378 1017 383 1015 382 b 913 334 983 357 951 342 b 764 317 867 322 818 317 l 755 317 l 751 331 b 736 323 748 326 743 323 b 680 345 726 323 707 330 b 631 366 664 352 648 359 b 583 376 614 373 599 376 b 550 393 561 376 550 382 b 572 431 550 404 557 417 l 591 450 b 667 525 595 460 621 485 b 753 606 697 552 726 579 b 794 661 781 632 794 650 b 813 707 794 671 800 687 b 859 777 826 728 841 751 b 922 873 882 808 903 841 b 956 956 942 905 953 932 b 949 949 953 951 950 949 b 946 954 947 949 946 951 b 947 962 946 956 947 959 b 951 977 948 966 949 970 b 955 992 952 983 954 988 b 957 999 956 996 957 998 b 943 968 956 999 952 989 b 939 958 941 962 939 959 b 941 970 939 961 939 965 b 947 998 945 983 947 993 b 946 1001 947 1000 947 1001 b 944 1000 945 1001 945 1000 b 930 989 937 993 932 989 b 929 991 930 989 929 990 b 937 1009 929 995 932 1000 l 944 1021 b 946 1027 945 1025 946 1027 b 946 1029 946 1028 946 1029 b 945 1029 945 1029 945 1029 b 938 1024 944 1029 942 1027 b 930 1019 934 1021 931 1019 b 935 1031 930 1021 932 1025 b 937 1039 936 1034 937 1037 b 920 1059 937 1052 931 1059 b 899 1044 913 1059 906 1055 l 899 1048 b 888 1074 899 1065 896 1074 b 882 1073 885 1074 883 1074 b 878 1071 880 1072 879 1071 b 877 1072 878 1071 878 1071 b 870 1072 876 1072 873 1072 l 855 1069 b 831 1063 840 1065 831 1063 l 831 1063 b 771 1017 819 1063 800 1048 b 741 978 758 1002 747 989 b 632 859 725 949 688 909 l 549 788 b 627 933 586 846 612 895 b 645 1006 639 965 645 989 l 642 1026 b 598 903 642 1002 627 962 b 498 739 569 844 536 789 b 410 665 463 690 433 665 b 374 630 410 659 398 648 b 336 598 357 618 345 608 b 334 597 335 597 334 597 b 333 598 333 597 333 597 b 339 625 333 601 335 610 b 342 634 340 628 341 631 l 353 699 b 362 723 357 715 359 723 b 363 722 363 723 363 722 l 428 873 b 413 871 419 872 414 871 l 410 871 l 412 880 b 416 878 414 878 415 878 b 429 956 425 878 429 903 b 420 982 428 973 425 982 b 416 979 419 982 418 981 b 412 1002 416 994 415 1002 b 403 987 410 1002 406 997 b 396 984 402 985 399 984 b 382 994 391 984 387 987 b 380 996 382 995 380 996 b 373 987 378 996 375 993 l 366 972 b 372 1013 366 977 368 991 b 375 1030 374 1022 375 1027 b 374 1034 375 1033 375 1034 b 373 1034 374 1034 374 1034 b 370 1029 372 1033 372 1031 b 366 1019 368 1025 367 1023 b 361 1011 363 1016 362 1013 b 359 1008 360 1009 359 1008 l 359 1015 b 361 1029 361 1021 361 1025 b 359 1039 361 1034 361 1037 b 351 1046 357 1044 354 1046 b 336 1042 345 1046 340 1044 b 317 1024 323 1034 317 1028 l 316 1035 b 311 1042 314 1040 313 1042 l 310 1042 l 289 1028 l 213 960 l 212 960 b 193 935 208 960 201 951 b 128 796 172 899 151 852 l 90 703 b 88 722 89 709 88 715 b 91 751 88 731 89 741 b 38 527 68 665 51 591 b 17 422 25 463 18 429 b 16 399 16 422 16 414 b 9 371 15 380 12 371 b 3 331 5 371 3 357 b 13 193 3 298 6 252 l 24 96 b 20 87 22 94 20 92 b 54 14 20 74 31 50 l 79 -24 l 83 -18 b 87 -21 83 -20 84 -20 l 92 -22 l 91 -22 b 85 -25 90 -23 89 -24 z m 478 72 l 449 94 b 380 148 429 108 407 126 b 309 214 355 169 330 191 b 478 72 333 161 389 115 z m 91 752 b 118 849 100 785 109 817 b 91 752 105 813 96 781 z m 119 852 b 202 1054 140 912 168 979 b 234 1133 224 1104 234 1131 l 234 1134 b 212 1097 232 1134 224 1122 b 119 852 179 1033 148 951 z m -26 79 b -28 113 -28 92 -28 104 b -31 132 -28 125 -29 132 b -33 130 -31 132 -33 131 b -39 113 -37 125 -39 120 b -26 79 -39 104 -35 92 z "},"L":{"ha":804,"x_min":0,"x_max":0,"o":"m 316 383 b 322 390 317 383 319 385 l 326 396 b 316 391 320 394 316 392 b 315 387 315 390 315 389 l 315 385 b 315 383 315 384 315 383 b 316 383 315 383 315 383 z m -35 -39 b 12 -30 -22 -39 -6 -36 b 33 -18 22 -26 29 -22 l 98 -11 b 171 3 140 -6 165 -1 b 249 18 184 14 210 18 b 296 18 254 18 270 18 b 422 5 323 17 364 12 b 572 -18 479 -3 529 -10 l 636 -29 b 598 -12 636 -23 623 -17 b 395 13 557 -3 490 5 b 280 28 321 20 283 25 l 357 30 b 492 28 447 30 492 29 b 515 28 499 28 507 28 b 600 33 536 28 564 30 b 635 36 614 35 626 35 b 649 35 644 36 648 36 b 670 47 650 41 657 45 b 685 54 680 47 685 49 b 719 76 685 64 696 72 l 733 78 b 714 83 730 78 723 80 b 696 92 703 88 696 91 l 700 91 b 718 88 706 89 712 88 b 743 94 726 88 734 90 l 762 106 l 758 107 b 736 115 749 109 742 111 b 726 121 729 117 726 119 b 769 128 726 126 740 128 b 777 144 774 128 777 134 b 777 158 777 149 777 153 b 774 170 776 163 775 166 l 773 174 b 778 176 776 174 777 175 b 770 186 778 178 775 182 l 762 192 l 766 198 b 768 208 768 201 768 204 b 768 215 768 210 768 212 l 764 227 b 711 279 745 255 728 272 b 663 288 695 285 679 288 b 609 307 640 288 622 294 b 553 326 599 315 581 322 b 418 333 518 331 473 333 l 344 331 b 331 321 340 324 336 321 b 316 334 325 321 319 325 b 315 336 315 334 315 335 b 314 338 314 336 314 337 b 313 339 313 338 313 338 b 312 340 312 339 312 339 b 311 341 311 340 311 340 b 302 360 305 345 302 351 b 332 416 302 376 312 395 b 338 428 336 420 338 425 b 330 434 338 431 336 433 l 323 435 b 322 440 322 436 322 438 b 349 522 322 452 331 479 l 384 595 l 447 787 l 465 818 b 522 983 500 876 519 930 l 522 1001 l 521 1002 l 519 1000 b 513 991 517 995 515 992 b 507 994 511 991 509 992 l 504 1068 b 507 1073 506 1069 507 1071 b 498 1076 505 1075 503 1076 b 495 1075 496 1076 496 1076 b 498 1073 495 1074 496 1074 l 482 1074 l 451 1101 l 453 1108 b 455 1110 454 1109 454 1109 b 455 1112 455 1111 455 1112 b 455 1114 455 1113 455 1114 b 454 1116 454 1115 454 1116 b 453 1117 454 1117 454 1117 b 452 1116 452 1117 452 1117 b 450 1112 451 1116 451 1114 b 448 1106 450 1110 449 1108 b 444 1099 446 1104 445 1101 b 439 1092 441 1096 440 1094 b 435 1088 437 1090 435 1088 b 434 1090 434 1088 434 1088 l 435 1095 b 418 1113 435 1101 429 1107 l 407 1116 l 374 1092 b 376 1109 376 1099 376 1105 b 372 1116 376 1114 375 1116 b 359 1107 369 1116 365 1114 b 342 1086 354 1101 348 1095 b 337 1082 340 1084 338 1083 b 336 1086 336 1082 336 1084 l 337 1090 b 336 1093 337 1093 336 1093 b 294 1046 332 1093 318 1078 b 274 1023 281 1031 275 1023 l 276 1034 l 268 1017 l 263 1005 b 218 946 250 1005 235 985 b 170 817 201 906 186 863 b 139 730 159 783 149 754 b 113 687 127 701 119 687 b 105 683 111 685 109 684 l 103 682 b 49 509 73 593 55 535 l 47 502 b 45 484 46 497 45 491 b 38 384 45 462 43 429 b -22 213 25 270 5 213 b -26 214 -24 213 -25 213 b -31 214 -28 214 -30 214 b -71 184 -42 214 -56 204 b -116 115 -87 163 -102 140 l -145 60 l -141 58 b -116 41 -124 50 -116 45 b -117 39 -116 40 -116 39 b -130 36 -117 37 -122 37 l -119 33 l -121 22 b -121 9 -121 18 -121 14 b -118 2 -121 5 -120 2 b -110 7 -116 2 -113 4 b -104 2 -108 5 -106 3 b -100 1 -102 2 -100 1 b -106 -5 -100 -1 -102 -3 b -71 -26 -103 -15 -91 -22 b -45 -37 -60 -28 -52 -32 b -35 -39 -43 -38 -39 -39 z m 318 348 b 370 461 333 386 351 424 b 329 398 355 438 341 417 b 311 363 317 379 311 368 l 311 362 b 318 348 315 356 317 351 z m 373 465 l 416 528 l 404 513 b 373 465 393 498 382 482 z m 98 686 b 102 688 99 686 100 688 b 106 690 103 689 104 690 l 117 722 l 116 722 b 114 719 115 721 115 720 b 98 688 103 703 98 693 z m 118 726 b 130 747 125 736 130 743 b 129 749 130 748 130 748 b 127 750 128 749 127 749 z m 127 753 l 137 781 l 127 755 z m 138 784 b 228 985 163 840 193 907 b 297 1143 273 1087 296 1139 b 292 1151 296 1148 295 1151 b 264 1110 288 1151 278 1137 b 209 977 251 1082 233 1038 b 138 784 185 916 162 851 z m 335 446 b 338 451 336 447 336 448 b 342 459 339 453 340 456 b 347 467 344 462 345 465 b 349 470 347 469 348 470 b 350 474 349 470 349 471 b 351 483 351 476 351 479 b 352 492 352 486 352 489 b 351 498 352 496 351 498 b 334 450 349 498 343 481 l 334 446 z "},"M":{"ha":949,"x_min":0,"x_max":0,"o":"m 770 -67 b 847 -31 795 -67 821 -55 b 868 5 860 -20 867 -7 b 891 139 869 23 877 68 l 912 246 b 920 239 918 246 920 244 l 920 235 b 934 113 920 224 924 184 b 951 13 944 46 949 13 b 951 15 951 13 951 14 b 947 121 951 33 950 68 b 934 407 938 240 934 336 b 935 463 934 417 934 436 b 949 502 935 489 940 502 l 1018 910 l 1016 918 b 1008 947 1014 929 1011 939 l 1004 957 b 1003 953 1004 957 1003 956 l 998 930 b 991 960 996 930 994 940 b 978 1004 986 989 981 1004 l 977 1003 b 960 996 970 998 965 996 b 943 1003 956 996 950 998 b 924 1025 937 1008 930 1015 b 911 1036 918 1032 913 1036 b 909 1029 910 1036 909 1034 b 906 1006 909 1014 908 1006 b 898 1018 903 1006 900 1010 l 894 1026 b 863 1015 882 1019 871 1015 b 853 1017 857 1015 853 1016 b 852 1019 853 1018 853 1019 b 689 800 846 1019 791 946 b 524 562 615 695 560 616 b 505 536 511 545 505 536 b 490 623 494 548 490 577 b 515 768 490 695 498 744 l 521 764 l 522 764 b 519 768 522 765 522 766 b 511 770 517 769 515 770 b 505 767 508 770 506 769 b 484 694 491 750 484 726 l 485 682 b 484 666 485 671 484 666 b 476 673 482 666 479 669 b 450 798 465 696 456 737 b 421 956 444 854 434 907 b 353 1035 408 1005 385 1031 l 336 1040 b 340 1035 337 1036 338 1035 b 342 1033 342 1035 342 1034 l 342 1026 l 345 1020 l 343 1020 b 339 1023 342 1021 341 1021 b 330 1031 337 1025 334 1028 b 323 1037 328 1034 326 1035 b 288 1052 311 1047 300 1052 b 269 1048 281 1052 275 1050 b 258 1040 262 1044 258 1042 l 259 1040 b 239 1021 257 1036 250 1029 b 205 991 228 1012 216 1002 l 208 997 b 205 999 207 998 206 999 b 199 993 205 999 203 997 b 191 978 195 987 192 982 b 167 938 175 962 167 948 b 172 926 167 934 168 930 l 169 909 b 170 907 170 909 170 908 b 157 883 170 903 165 895 l 142 861 b 138 857 140 859 138 858 b 140 854 138 855 138 854 l 142 853 l 136 826 l 132 829 b 127 817 128 829 127 825 b 127 814 127 815 127 814 b 128 812 127 813 127 812 b 134 813 130 812 132 812 l 132 808 b 130 795 130 802 130 798 b 132 791 130 793 130 791 l 133 791 l 117 725 b 107 663 111 696 107 675 b 109 655 107 659 108 656 b 81 555 94 644 84 610 b 67 486 78 526 73 503 b 56 466 62 473 58 466 b 54 471 55 466 54 467 b 68 528 54 479 59 498 b 65 525 66 526 66 525 b 63 531 64 525 63 527 b 66 565 63 536 64 547 b 108 804 70 589 83 669 b 143 1017 132 933 143 1004 b 142 1021 143 1019 143 1021 b 113 922 140 1021 130 987 b 33 337 59 535 33 340 l 24 313 b -14 188 9 268 -4 227 b -28 117 -24 153 -28 130 b -23 104 -28 109 -26 104 l -9 132 b -2 144 -5 140 -3 144 l -5 132 b -14 95 -11 117 -14 105 b -7 88 -13 92 -10 89 b -2 86 -5 87 -3 87 b 0 80 -1 85 -1 83 b -2 66 0 76 -1 71 l -3 62 b -1 58 -3 60 -2 58 b 14 71 2 58 7 62 l 18 75 b 16 59 16 68 16 62 b 20 51 16 54 17 52 l 28 51 l 31 52 b 37 49 34 52 36 51 b 64 31 45 37 54 31 b 104 56 77 31 90 39 l 125 86 l 125 88 b 126 77 125 86 126 83 b 123 68 126 71 125 68 b 120 52 121 60 120 55 b 121 50 120 51 121 50 l 125 54 b 150 100 127 56 136 71 l 159 118 b 155 106 159 117 157 113 l 154 104 b 178 149 155 104 163 119 l 208 204 b 144 5 165 77 144 11 b 150 18 144 5 146 9 b 221 223 161 46 185 114 b 281 445 259 340 279 414 b 296 500 290 482 295 500 b 311 453 299 500 304 485 b 435 211 338 317 379 237 l 443 210 b 473 217 452 210 461 212 l 495 227 b 509 213 498 218 503 213 b 517 214 510 213 513 214 b 535 225 520 215 526 219 b 557 236 543 231 551 235 b 454 139 522 208 487 176 l 490 170 b 571 245 513 191 541 216 b 648 332 602 274 627 302 b 686 380 669 360 682 376 b 683 347 684 370 684 359 b 686 310 683 332 684 319 b 701 290 688 300 693 294 b 686 286 694 290 688 288 b 681 276 682 282 681 279 b 682 273 681 275 681 273 l 682 271 b 679 218 680 261 679 243 l 684 168 b 693 100 687 168 690 145 b 694 38 694 85 694 65 b 688 14 694 28 692 20 b 685 8 686 12 685 10 b 688 1 685 6 686 4 b 711 -24 691 -6 699 -15 l 730 -39 l 747 -47 l 746 -47 l 747 -47 b 751 -48 748 -47 749 -47 l 752 -51 b 770 -67 755 -62 761 -67 z m 154 890 b 164 909 158 890 161 896 b 168 928 166 922 168 928 b 168 929 168 928 168 929 l 165 926 b 158 906 164 924 162 918 l 152 890 z "},"N":{"ha":903,"x_min":0,"x_max":0,"o":"m 173 -90 b 175 -87 174 -89 175 -88 l 168 -77 l 161 -71 b 159 -56 160 -64 159 -59 b 163 -47 159 -50 161 -47 b 165 -49 163 -47 164 -48 b 172 -56 167 -50 169 -52 b 181 -69 175 -60 178 -64 b 188 -81 184 -74 186 -78 l 191 -87 b 194 -76 191 -82 192 -78 b 204 -73 196 -74 199 -73 l 207 -73 b 195 -62 207 -72 203 -68 b 188 -54 193 -60 191 -57 b 178 -43 182 -48 179 -45 b 180 -42 178 -43 179 -42 b 197 -48 181 -42 187 -44 b 220 -56 208 -52 215 -55 b 224 -54 222 -56 224 -55 l 241 -33 b 250 -25 244 -31 248 -28 b 252 -4 252 -22 252 -14 l 250 7 l 250 16 l 242 96 b 240 161 241 113 240 135 b 250 176 241 171 243 176 b 257 145 253 176 255 165 b 290 14 260 113 271 68 b 319 -38 295 2 304 -16 l 326 -46 b 317 -30 326 -45 323 -39 b 262 136 283 31 264 85 l 262 172 b 270 274 262 208 264 242 b 277 353 275 302 277 329 b 294 408 277 372 283 389 b 304 428 300 416 304 423 l 304 429 b 308 420 304 429 306 427 b 359 312 319 395 336 359 b 399 240 383 264 396 240 l 416 215 b 426 210 418 215 422 213 b 437 190 433 201 437 195 b 435 183 437 188 436 185 l 439 184 b 440 181 439 182 439 182 b 443 180 440 180 441 180 l 453 181 l 444 170 b 458 168 450 170 455 169 b 470 153 464 165 468 161 l 472 142 b 471 142 471 142 471 142 b 484 121 471 140 475 132 b 524 78 493 109 506 94 b 645 20 566 39 606 20 b 671 22 648 20 656 20 b 724 60 684 23 702 36 l 724 44 b 725 28 724 39 724 35 l 728 20 b 730 36 729 20 730 25 b 762 -15 745 2 755 -15 b 768 4 766 -15 768 -9 b 768 31 768 15 768 24 l 766 46 b 770 56 768 53 769 56 b 772 55 771 56 772 56 b 775 49 773 54 774 52 b 777 40 776 45 777 43 b 779 32 778 37 778 34 l 779 28 b 791 45 783 31 787 37 b 792 43 792 45 792 45 b 793 41 792 42 792 41 l 797 52 b 808 90 799 60 802 73 b 818 110 813 103 816 110 b 821 98 820 110 821 106 b 819 73 821 92 820 83 b 840 144 827 87 834 111 b 854 249 845 178 850 213 b 874 353 862 319 869 353 b 915 494 883 353 897 400 l 941 635 b 939 639 940 636 939 637 b 954 678 939 644 944 657 b 994 760 963 699 977 726 b 1048 860 1012 793 1030 827 b 1095 945 1067 893 1082 922 l 1115 979 b 1113 981 1115 981 1114 981 b 1101 968 1111 981 1107 977 b 1036 859 1092 956 1070 920 b 977 766 1000 797 981 766 b 977 766 977 766 977 766 b 1000 830 977 770 984 791 b 1008 876 1003 830 1006 845 l 1008 900 b 1010 904 1008 900 1010 901 b 1013 922 1013 909 1013 916 b 1013 925 1013 924 1013 925 b 1008 917 1012 924 1010 922 b 999 901 1004 906 1001 901 b 996 902 998 901 998 901 b 994 930 994 903 994 911 b 995 958 994 941 994 950 b 987 961 994 958 991 960 b 955 967 975 963 964 965 l 947 969 b 951 970 947 970 948 970 b 970 971 964 970 970 970 l 964 972 b 955 975 958 974 956 975 b 954 976 954 975 954 975 l 955 977 l 962 977 b 950 987 954 981 950 984 b 949 991 950 989 949 991 b 946 988 948 991 947 990 l 922 994 b 924 1003 923 998 924 1001 b 918 1009 924 1007 922 1009 b 897 1002 913 1009 905 1006 b 871 987 888 997 879 991 l 857 979 b 847 981 854 980 850 981 b 771 907 823 981 798 956 b 696 718 745 857 720 794 b 639 502 673 641 653 569 b 616 376 624 435 616 393 b 616 368 616 371 616 368 l 614 371 b 610 392 612 378 611 385 l 608 401 b 587 445 606 401 598 416 b 551 559 575 474 563 513 b 526 744 534 625 526 687 b 540 854 526 783 530 820 l 530 825 b 515 722 524 806 519 771 b 513 711 515 715 514 712 l 510 714 b 504 737 508 719 506 727 l 501 753 b 492 764 496 755 493 760 b 491 781 492 769 491 774 b 490 800 491 789 490 795 b 477 807 488 804 484 806 l 474 817 b 471 831 472 823 471 828 b 473 835 471 833 471 834 b 475 839 474 835 475 836 b 474 848 475 840 475 843 b 469 867 473 852 471 859 b 463 894 467 876 465 885 b 456 914 460 903 458 909 l 454 921 b 455 909 454 916 455 911 b 454 907 455 908 455 907 l 454 907 b 439 941 452 908 446 920 l 425 972 b 420 991 425 980 423 986 b 405 1000 414 997 409 1000 b 401 996 403 1000 401 998 b 408 981 401 992 403 987 b 424 954 418 968 424 959 l 424 954 b 420 951 423 951 422 951 b 411 956 418 951 416 952 b 394 977 406 958 400 966 b 384 1020 387 989 384 1003 b 383 1024 384 1023 384 1024 l 381 1021 b 374 1000 380 1020 377 1013 l 368 981 b 357 1006 367 982 363 990 b 344 1037 351 1025 346 1036 b 341 1021 342 1037 341 1031 b 338 1002 341 1008 340 1002 b 329 1018 336 1002 334 1007 b 324 1027 327 1023 325 1027 b 323 1017 323 1027 323 1024 b 324 1002 323 1008 323 1003 b 325 1001 324 1002 324 1001 b 324 1001 325 1001 325 1001 b 319 1002 323 1001 322 1001 b 312 1005 314 1002 312 1004 b 312 1006 312 1006 312 1006 b 313 1007 312 1006 313 1006 b 316 1010 314 1008 315 1008 b 317 1013 317 1011 317 1013 b 314 1014 317 1014 316 1014 b 292 1007 311 1014 303 1012 b 280 999 284 1004 280 1001 b 283 998 280 998 281 998 l 273 989 l 270 997 b 264 1004 268 1002 266 1004 l 263 1004 b 262 998 262 1004 262 1002 b 264 972 262 989 262 981 l 265 958 b 264 955 265 956 265 955 l 258 976 b 252 977 256 977 254 977 b 215 944 244 977 232 966 b 200 927 208 932 203 927 b 198 928 199 927 199 928 b 193 938 195 935 193 938 b 190 932 192 938 191 936 b 185 924 189 927 187 924 l 183 925 l 176 916 b 174 907 176 916 176 912 b 165 886 172 901 169 894 b 156 866 162 879 159 872 l 152 857 b 157 871 152 858 153 863 b 161 884 160 878 161 883 l 152 865 b 117 787 138 833 126 808 b 98 746 109 767 102 753 l 99 743 b 87 720 99 738 95 730 b 60 623 79 684 70 652 b 22 416 49 589 37 520 l 1 255 l 7 249 b 5 243 5 248 5 245 b 6 235 5 239 5 237 b 7 231 7 233 7 232 l 0 238 l 2 229 l 3 202 b 28 26 8 106 17 48 b 46 -2 35 16 41 6 b 69 -39 56 -19 64 -31 b 79 -53 75 -47 79 -52 b 83 -56 80 -54 81 -54 l 83 -56 l 83 -54 b 84 -54 84 -54 84 -54 l 85 -54 b 132 -75 90 -58 106 -65 l 165 -87 b 173 -90 169 -89 172 -90 z m 94 751 l 104 802 l 105 806 b 90 751 97 782 92 764 z m 109 819 b 162 971 124 867 142 918 b 209 1112 193 1057 209 1103 b 208 1113 209 1112 209 1113 l 206 1111 b 147 983 182 1077 162 1034 b 108 821 132 931 119 878 z "},"O":{"ha":762,"x_min":0,"x_max":0,"o":"m 357 -33 b 461 7 379 -33 414 -20 l 471 12 b 472 13 471 12 472 12 l 471 13 b 389 -12 469 13 441 5 l 337 -28 b 357 -33 342 -31 349 -33 z m 309 -3 b 442 26 335 -3 379 7 b 603 134 535 54 589 90 b 605 130 603 131 604 130 b 626 157 608 130 616 139 b 648 184 637 176 645 184 l 650 184 b 701 278 660 184 677 216 b 743 395 726 340 739 380 l 696 158 b 739 237 715 163 729 189 b 758 403 748 286 754 340 b 762 569 761 465 762 521 l 762 642 l 762 649 l 752 692 b 742 764 745 722 742 746 b 732 827 742 779 739 800 b 680 994 721 872 703 928 b 659 1043 668 1027 661 1043 l 659 1042 b 693 916 659 1034 670 991 b 699 891 697 903 699 895 b 698 890 699 890 699 890 b 663 937 695 890 684 905 b 588 1040 631 988 606 1023 b 488 1088 578 1047 545 1063 l 400 1127 b 382 1131 400 1129 394 1131 b 283 1121 358 1130 326 1126 l 220 1112 l 182 1097 b 159 1086 182 1095 174 1092 b 126 1069 139 1080 128 1074 b 92 1036 125 1067 114 1057 b 31 975 51 998 31 978 l 31 975 b 51 988 32 975 39 979 b 52 990 51 989 52 989 b 56 992 53 991 54 991 b 60 994 58 993 59 993 b 61 994 60 994 60 994 l 61 994 l 51 985 b 35 972 45 982 40 978 b 30 966 31 969 30 967 b 30 964 30 966 30 965 l 31 963 l 30 963 b 16 938 20 963 16 955 b 35 885 16 916 22 898 b 44 880 38 882 41 880 b 56 886 48 880 52 882 b 73 898 64 894 71 898 b 79 887 77 898 79 895 l 78 880 l 77 867 b 81 863 78 865 79 863 b 96 874 84 863 89 867 l 97 875 l 97 874 b 90 858 97 873 95 868 b 33 736 77 835 58 794 b -57 307 -27 595 -57 452 l -56 262 l -55 261 b -43 328 -49 261 -45 283 b -8 568 -40 387 -28 467 b 119 871 12 668 55 769 l 114 859 b 83 797 106 845 96 824 b 37 678 52 734 37 694 b 38 672 37 675 37 673 b 1 519 28 638 16 587 b -20 400 -13 454 -20 414 b -18 395 -20 397 -19 395 b 0 240 -18 385 -12 333 l 84 89 b 115 49 84 73 94 59 b 260 9 144 33 193 20 b 305 -1 290 5 305 1 l 305 -2 b 309 -3 305 -3 307 -3 z m 340 286 b 316 292 332 286 323 288 b 304 298 311 294 308 296 b 295 303 301 299 298 301 b 281 361 286 310 281 329 b 288 435 281 379 283 404 l 301 519 l 418 858 b 427 884 418 876 421 884 b 467 841 436 884 449 870 l 484 811 b 513 690 494 796 503 756 b 522 604 519 652 522 623 b 506 502 522 594 517 560 b 512 544 507 516 509 530 b 479 651 512 578 500 614 b 497 548 491 612 497 578 l 497 542 b 477 431 496 511 490 473 b 407 319 465 387 441 350 b 340 286 383 296 361 286 z "},"P":{"ha":741,"x_min":0,"x_max":0,"o":"m 656 378 b 722 401 677 378 699 385 b 787 456 745 416 767 435 b 841 517 808 477 826 498 b 764 455 819 497 793 477 b 687 401 735 434 709 416 l 654 379 b 656 378 654 378 655 378 z m 18 -5 l 18 -5 b 7 18 18 -3 14 5 b -7 53 -3 38 -7 50 b -5 56 -7 55 -7 56 b 0 52 -4 56 -2 54 b 6 41 2 49 4 45 b 12 29 8 36 9 33 b 14 22 13 26 14 23 b 16 20 15 21 15 20 l 16 21 b 18 42 16 35 16 42 l 20 41 b 22 35 20 40 21 38 b 26 23 24 31 25 27 b 30 12 27 19 28 16 b 33 7 31 9 32 7 l 33 5 b 36 22 35 5 36 11 b 37 24 36 24 37 24 l 39 23 b 50 10 41 22 44 18 l 58 -1 b 67 23 63 -1 66 7 b 71 39 68 34 69 39 b 88 9 74 39 79 29 b 92 4 90 5 91 4 b 97 7 94 4 95 5 b 109 15 101 12 105 15 b 117 13 111 15 114 14 b 123 28 120 13 122 18 b 127 43 123 39 125 43 b 138 30 130 43 134 39 l 164 96 b 177 121 170 113 175 121 b 178 119 178 121 178 121 b 181 156 180 128 181 140 b 185 210 181 176 182 193 b 204 250 187 225 194 239 b 277 264 210 255 235 260 b 336 277 317 269 336 273 l 638 400 b 649 397 642 398 645 397 b 728 453 667 397 693 416 b 805 538 745 471 770 499 b 815 545 810 543 813 545 b 817 543 816 545 817 545 b 823 554 817 543 819 547 b 837 583 826 561 831 570 b 854 622 842 596 848 609 b 868 654 859 635 864 646 b 873 683 871 658 872 667 l 875 704 b 876 701 876 702 876 701 b 878 706 877 701 878 703 b 880 725 879 709 880 715 b 882 753 881 734 882 743 b 873 789 882 777 879 789 b 873 800 873 789 873 793 b 873 818 873 806 873 812 b 867 835 873 829 871 835 b 863 833 867 835 865 834 l 862 850 b 860 846 861 848 861 847 l 857 848 b 854 862 857 855 856 860 b 832 885 840 873 832 882 b 833 890 832 886 833 888 b 834 895 834 891 834 892 b 793 943 834 905 821 922 b 684 1012 766 964 729 987 b 550 1076 638 1037 593 1058 b 444 1105 502 1096 467 1105 b 420 1100 430 1105 422 1103 l 420 1099 b 429 1098 420 1099 423 1098 b 555 1072 464 1098 505 1089 b 588 1055 577 1064 588 1059 b 578 1053 588 1054 585 1053 b 492 1065 561 1053 532 1057 b 485 1070 492 1068 489 1070 b 469 1069 479 1070 474 1070 b 455 1068 465 1069 460 1068 b 441 1071 450 1068 445 1069 b 397 1081 427 1078 412 1081 b 307 1061 376 1081 345 1074 b 248 1047 283 1052 263 1047 b 235 1048 243 1047 239 1048 b 216 1051 229 1050 222 1051 b 135 1022 195 1051 168 1042 b 32 943 102 1002 67 976 b -49 850 -3 909 -31 878 b -64 818 -59 836 -64 825 b -52 809 -64 812 -60 809 b -31 824 -37 818 -31 823 l -29 810 l -39 762 b -12 728 -39 749 -30 738 b 14 718 -1 721 7 718 b 18 722 16 718 18 719 l 18 725 l 19 725 b 23 722 20 724 21 724 b 29 714 25 720 27 717 l 37 704 b 39 698 38 704 39 702 b 14 504 39 681 31 616 b -12 288 -3 379 -11 307 l -11 271 b -12 191 -11 241 -12 215 b -17 170 -13 179 -15 172 l -22 150 l -26 142 b -32 171 -28 142 -31 151 l -38 190 b 10 2 -30 97 -14 34 b 18 -5 14 -3 17 -5 z m -32 227 b -28 376 -31 262 -30 311 b -24 475 -26 424 -24 456 b -26 495 -24 488 -25 495 b -30 466 -27 495 -28 486 b -34 324 -33 430 -34 383 b -32 227 -34 293 -33 261 z m 261 494 l 316 799 b 397 803 346 802 373 803 b 497 791 433 803 466 799 b 570 764 528 783 552 774 b 607 748 586 755 598 750 b 612 738 607 745 609 742 b 616 728 614 735 616 732 b 552 660 616 712 595 689 l 507 631 b 501 623 503 627 501 624 b 503 615 501 621 501 618 l 494 623 b 456 591 482 608 469 598 b 416 574 444 585 430 579 b 365 536 390 567 372 554 b 423 604 366 554 385 576 b 463 644 450 629 463 643 l 462 644 b 358 572 454 644 419 621 z m 844 520 b 877 565 866 540 877 555 z "},"Q":{"ha":911,"x_min":0,"x_max":0,"o":"m 645 -124 b 676 -117 653 -124 664 -122 b 650 -121 667 -120 659 -121 b 631 -119 644 -121 637 -121 l 631 -120 b 638 -123 634 -122 636 -123 z m 623 -117 l 624 -115 b 541 -50 602 -100 575 -79 b 623 -117 563 -80 590 -102 z m 702 -84 l 724 -82 b 673 -75 690 -82 673 -79 b 677 -71 673 -74 674 -73 b 688 -69 679 -70 683 -69 b 701 -75 696 -69 701 -71 l 715 -77 b 713 -75 713 -76 713 -75 b 725 -70 713 -74 717 -72 l 735 -68 l 734 -80 b 745 -81 737 -81 741 -81 b 812 -64 764 -81 786 -75 l 857 -43 l 854 -43 b 848 -42 852 -43 850 -43 b 842 -41 846 -41 844 -41 b 836 -39 839 -40 837 -40 l 834 -39 b 840 -37 835 -38 836 -38 b 876 -15 858 -35 870 -28 b 882 9 880 -7 882 1 b 880 20 882 16 881 20 l 879 20 b 863 23 875 20 869 21 l 847 28 b 865 45 849 35 854 41 b 888 65 880 53 888 60 b 882 68 888 67 886 68 b 844 62 869 68 857 65 l 831 60 l 830 60 b 838 73 830 62 833 67 l 847 81 l 846 85 l 844 84 l 844 84 b 841 86 843 85 842 85 b 839 88 840 87 840 87 b 825 90 838 88 834 89 b 785 97 817 91 803 94 b 730 110 766 100 748 105 b 682 127 711 115 695 121 b 663 149 669 134 663 142 b 692 191 663 155 673 169 b 906 654 810 323 881 477 b 905 660 906 656 905 658 b 888 736 904 662 899 688 b 869 836 882 774 876 807 b 854 864 867 836 862 846 b 841 897 846 882 842 893 l 831 886 b 823 917 831 900 829 910 b 808 931 817 923 812 928 b 800 938 803 934 801 936 b 803 937 801 937 802 937 b 806 937 804 937 804 937 b 808 941 807 937 808 938 b 806 947 808 942 808 944 l 741 999 b 675 1060 697 1034 675 1054 l 667 1069 b 612 1112 637 1098 618 1112 b 609 1111 610 1112 610 1112 b 623 1124 609 1117 614 1121 b 628 1126 627 1124 628 1125 l 625 1128 b 609 1132 620 1131 614 1132 b 584 1123 598 1132 590 1129 l 582 1122 l 581 1122 b 582 1126 581 1123 581 1124 b 584 1132 583 1128 583 1130 b 587 1137 585 1134 586 1135 l 587 1139 b 553 1150 574 1147 564 1150 b 519 1143 542 1150 531 1148 b 483 1135 509 1138 497 1135 b 476 1137 478 1135 476 1136 b 484 1145 476 1139 479 1141 b 488 1149 487 1147 488 1148 b 488 1150 488 1149 488 1149 l 488 1150 b 454 1137 483 1150 471 1146 b 324 1065 419 1120 376 1096 b 265 1023 285 1041 265 1027 b 267 1023 265 1023 266 1023 l 269 1023 l 199 941 b 45 746 153 886 101 821 b -96 528 -12 670 -59 597 b -134 408 -121 479 -134 439 b -127 374 -134 395 -132 384 l -127 378 b 7 675 -127 440 -83 539 b 197 931 89 798 152 883 b 248 971 222 958 239 971 b 254 960 252 971 254 968 b 239 919 254 947 249 934 b 222 907 233 911 227 907 l 154 798 b 121 739 145 791 134 771 b 86 682 106 701 94 682 l 33 551 b 14 505 23 551 17 536 b 5 397 10 473 7 437 b -15 245 2 311 -5 260 l -14 246 b 3 217 -9 246 -3 237 b 8 186 6 205 8 195 b 5 175 8 181 7 177 b 135 11 26 104 70 49 l 164 2 b 175 -3 172 0 175 -2 b 161 -6 175 -5 170 -6 b 252 -17 179 -14 210 -17 b 282 -16 262 -17 273 -17 l 298 -16 b 315 -18 309 -16 315 -16 b 257 -26 315 -21 296 -24 l 234 -27 b 55 13 159 -27 99 -14 l 69 18 b 50 12 56 18 50 16 b 64 -2 50 9 54 4 b 125 -31 83 -14 103 -23 b 187 -39 142 -37 163 -39 b 233 -37 195 -39 211 -39 b 321 -22 256 -35 286 -30 b 410 3 357 -14 387 -6 b 446 23 434 12 446 18 l 446 25 b 446 26 446 26 446 26 b 530 -40 451 26 479 4 l 536 -45 l 537 -45 b 511 -4 526 -29 517 -16 b 502 15 505 7 502 13 b 601 -47 539 -13 572 -34 l 644 -67 l 652 -70 b 702 -84 667 -77 684 -81 z m 907 665 b 911 734 909 688 911 711 b 906 820 911 762 909 791 b 867 951 897 884 884 928 b 907 672 895 883 907 790 z m 866 953 b 829 989 857 977 844 989 l 828 989 b 834 986 829 988 831 987 b 848 976 838 984 842 981 b 866 953 854 970 860 963 z m 319 269 b 311 271 317 269 314 270 b 302 274 307 273 304 273 l 303 272 l 302 271 l 302 271 l 298 273 b 297 272 298 273 298 273 b 296 279 296 272 296 274 b 294 323 294 292 294 307 l 292 367 b 324 473 292 383 302 418 l 359 555 b 388 599 359 557 369 571 b 500 782 457 703 494 764 b 533 835 511 817 522 835 b 583 744 551 835 568 804 b 597 628 593 707 597 668 l 595 621 b 586 570 589 595 586 578 b 589 553 588 563 589 557 b 581 544 589 547 586 544 b 524 582 570 544 551 557 b 509 594 518 587 513 591 b 494 600 504 597 499 600 b 485 598 488 600 485 599 b 486 597 485 597 486 597 l 463 587 l 444 578 b 431 567 440 574 435 570 b 420 562 425 564 422 562 b 417 564 418 562 418 562 b 411 570 415 568 413 570 b 380 472 402 570 392 538 b 353 303 370 420 361 364 b 352 295 353 298 353 296 b 337 276 349 282 344 276 b 329 277 334 276 331 277 b 323 279 327 278 325 279 b 322 274 323 279 322 277 b 319 269 322 271 321 269 z m 539 -29 b 541 -24 541 -29 541 -28 b 537 -16 541 -22 540 -19 l 513 4 b 526 -11 513 2 518 -3 b 538 -24 534 -18 538 -23 b 539 -29 538 -27 538 -29 z "},"R":{"ha":909,"x_min":0,"x_max":0,"o":"m 207 -57 b 210 -56 209 -57 210 -57 l 209 -54 b 159 -29 208 -54 192 -45 b 100 2 119 -12 100 -2 b 102 3 100 3 100 3 b 98 23 100 5 99 12 b 97 40 98 29 97 35 l 97 41 l 109 12 b 123 -7 109 -1 113 -7 b 137 0 126 -7 131 -5 l 144 7 b 153 -10 144 -4 147 -10 b 178 7 158 -10 166 -4 b 216 57 197 28 210 44 b 237 98 230 73 237 87 b 236 103 237 100 236 102 b 233 107 236 106 235 107 b 232 94 233 98 233 94 l 231 120 b 229 142 230 128 229 136 b 239 152 229 149 233 152 b 271 130 247 152 258 144 l 286 111 l 273 120 b 292 87 273 109 279 98 b 330 61 303 77 316 68 l 343 54 b 351 52 346 53 349 52 b 359 54 354 52 357 53 l 359 54 b 388 37 362 54 372 48 b 484 -14 418 14 450 -3 b 535 -22 500 -20 517 -22 l 556 -22 b 626 -27 580 -22 603 -24 b 718 -33 651 -31 682 -33 l 709 -27 b 710 -25 709 -26 709 -25 b 713 -26 711 -25 712 -25 b 720 -28 715 -26 717 -27 l 738 -22 b 826 13 768 -12 798 -1 b 868 45 854 26 868 37 b 863 53 868 47 867 50 l 859 57 b 854 62 855 59 854 61 l 860 61 b 876 91 869 61 873 71 b 876 125 876 98 876 109 b 874 147 876 140 875 147 l 874 144 l 873 137 l 873 142 b 856 168 873 149 867 157 b 849 163 854 168 851 166 b 837 156 844 159 840 156 b 833 157 836 156 835 157 b 826 169 831 158 828 162 b 821 201 824 176 822 186 b 818 206 820 205 819 206 b 805 189 816 206 811 200 l 798 172 l 784 193 b 768 191 782 191 777 191 b 727 193 760 191 747 191 b 650 204 707 195 682 199 b 576 220 619 210 595 215 b 594 221 582 221 588 221 b 694 227 628 221 661 223 b 777 255 727 230 754 239 b 845 307 807 279 830 296 b 735 258 821 292 784 275 b 565 227 686 240 629 230 l 493 307 b 494 307 494 307 494 307 b 501 302 496 307 498 305 b 551 326 510 302 526 310 b 595 346 572 339 587 346 b 688 387 623 346 654 359 b 777 465 722 413 751 439 b 810 496 793 480 804 490 l 846 565 b 875 640 865 604 875 629 b 874 644 875 642 875 643 l 877 643 b 887 709 884 643 887 665 b 876 838 887 751 884 794 b 906 790 895 806 904 790 b 909 801 908 790 909 793 l 909 809 b 873 935 903 867 890 909 b 846 960 862 951 852 960 b 838 955 842 960 840 958 b 811 971 830 965 821 970 l 821 974 b 764 1029 813 977 794 996 b 693 1102 739 1060 715 1084 b 603 1129 693 1107 663 1116 l 513 1147 l 456 1143 b 315 1117 418 1139 371 1131 b 139 1051 258 1103 199 1081 b -22 927 79 1021 25 979 b -35 909 -31 917 -35 911 b -35 909 -35 909 -35 909 b -1 934 -33 909 -21 917 b 36 966 17 950 29 961 b 272 1083 140 1044 218 1083 b 294 1078 281 1083 289 1082 b 304 1065 300 1074 304 1069 b 284 1048 304 1056 297 1050 l 279 1047 b 244 1060 269 1047 258 1051 b 175 1002 229 1050 205 1031 b 113 952 139 968 118 952 l 112 952 b 106 942 112 949 110 946 l 97 935 l 89 925 l 81 912 l 96 924 b 86 913 94 922 90 918 b 14 814 50 876 26 842 b 9 791 11 806 9 798 b 17 767 9 782 12 774 b 28 725 24 757 28 743 b 9 612 28 699 22 661 b -3 543 1 578 -3 555 b 3 528 -3 534 -1 530 b -13 519 -7 526 -13 524 l -12 510 l -13 506 b -18 471 -15 502 -17 490 b -22 336 -19 455 -20 410 b -23 287 -22 310 -23 294 l -23 283 l -12 326 l -14 293 b -16 285 -15 292 -16 290 b -10 201 -16 268 -14 240 l -5 151 b -21 163 -11 153 -16 157 b 60 26 -1 113 26 67 b 189 -54 95 -16 138 -42 b 207 -57 198 -56 204 -57 z m -47 243 b -55 349 -52 277 -55 313 l -55 382 b -40 366 -47 372 -42 366 l -47 376 b -59 387 -51 382 -55 387 l -60 387 b -67 361 -64 387 -67 378 b -66 331 -67 357 -66 347 b -48 243 -65 315 -59 286 z m 298 520 l 369 800 b 382 848 378 819 382 835 l 382 860 b 417 895 382 874 393 886 b 456 902 429 899 442 902 b 527 888 474 902 497 897 b 626 795 557 878 590 847 l 625 783 b 614 720 623 761 619 740 b 591 685 608 696 600 685 l 589 686 l 590 680 l 589 680 b 578 676 586 680 583 679 b 569 665 574 673 571 669 b 526 620 562 647 547 631 b 459 589 505 608 483 598 b 400 561 435 581 416 571 b 373 545 385 551 376 545 b 372 546 372 545 372 546 b 427 606 372 550 391 570 l 467 648 b 505 697 492 675 505 691 b 504 699 505 698 505 699 z "},"S":{"ha":685,"x_min":0,"x_max":0,"o":"m 309 -176 b 337 -174 317 -176 326 -176 b 367 -167 347 -172 357 -170 b 385 -161 376 -164 382 -162 l 380 -162 b 308 -174 355 -170 330 -174 b 279 -172 298 -174 288 -173 b 304 -176 288 -174 296 -176 z m 273 -171 l 273 -170 b 176 -124 238 -161 206 -146 b 98 -53 145 -102 119 -79 l 96 -52 l 96 -52 b 153 -113 103 -65 123 -85 b 273 -171 184 -140 223 -159 z m 355 -150 l 368 -149 b 451 -134 396 -145 423 -140 b 469 -138 456 -136 463 -138 b 578 -72 495 -138 531 -116 b 637 -12 610 -41 630 -21 b 646 -5 642 -7 644 -5 b 648 -8 647 -5 648 -6 b 627 -63 648 -14 641 -33 l 605 -107 l 625 -79 b 665 12 638 -60 652 -29 b 685 175 678 54 685 108 b 642 258 685 197 671 225 b 603 296 621 283 608 296 l 603 294 b 602 295 602 294 602 294 b 572 327 600 297 591 307 b 515 386 554 347 535 366 b 465 435 496 406 479 422 b 439 454 451 448 443 454 l 439 454 l 387 543 l 385 542 b 370 579 378 542 374 554 b 367 631 368 595 367 612 b 370 693 367 645 368 666 b 391 777 372 720 379 748 b 444 823 402 806 420 821 l 441 768 l 435 746 b 422 648 427 711 422 678 b 423 617 422 641 422 631 b 439 578 424 603 429 590 b 473 564 447 569 458 564 b 488 566 477 564 483 565 b 486 557 486 562 486 559 b 490 554 486 555 487 554 b 529 570 497 554 510 559 l 547 581 b 551 578 550 581 551 580 b 541 562 551 574 548 570 b 541 561 541 562 541 561 b 551 568 543 561 547 564 b 561 579 557 574 561 578 b 592 624 561 580 571 595 b 623 668 613 653 623 667 b 627 687 623 670 625 677 b 652 768 635 715 643 741 b 668 800 660 789 665 800 b 670 794 669 800 669 798 b 673 846 672 814 673 831 l 673 876 l 673 906 b 662 954 673 920 669 937 l 650 980 b 629 1000 646 982 639 988 b 619 1011 623 1006 619 1010 l 618 1011 b 614 1041 616 1011 614 1021 b 583 1069 614 1049 604 1059 l 551 1084 b 518 1095 551 1084 539 1088 b 420 1109 486 1104 454 1109 b 332 1094 393 1109 363 1104 b 243 1029 300 1084 271 1063 b 195 979 216 996 200 979 b 193 983 194 979 193 981 b 235 1044 193 991 207 1012 b 353 1136 262 1076 301 1106 b 393 1160 380 1150 393 1158 l 392 1160 b 347 1140 389 1160 374 1153 b 259 1088 309 1120 279 1103 b 186 991 252 1082 227 1049 l 124 902 l 123 902 b 88 774 116 902 104 859 b 62 602 71 684 62 626 b 95 503 62 591 73 557 l 128 422 b 127 422 127 422 127 422 b 159 383 127 418 138 406 l 214 326 b 226 312 222 317 226 313 l 225 311 l 218 316 b 89 447 193 337 150 380 l 0 545 b 74 446 6 524 31 490 b 218 311 117 401 165 356 b 334 218 262 273 300 242 b 391 185 365 196 384 185 l 392 185 b 417 196 405 193 413 196 b 420 193 419 196 420 195 l 420 187 b 396 161 419 183 412 174 b 336 128 380 147 360 136 b 302 123 325 125 313 123 b 259 130 288 123 273 125 l 263 132 l 260 144 b 254 155 258 151 256 155 l 250 153 b 241 149 247 153 244 151 b 233 141 237 147 235 144 b 229 130 231 138 229 134 l 229 127 l 205 163 l 205 168 b 199 175 205 173 203 175 l 194 175 b 187 182 192 180 189 182 b 172 161 182 182 178 175 b 165 149 169 153 167 149 l 154 159 l 154 158 b 147 155 154 157 152 156 b 134 150 140 154 136 152 b 127 133 132 138 130 133 b 124 141 125 133 124 136 l 124 144 b 108 123 119 139 114 132 b 89 84 95 104 89 92 b 90 78 89 82 90 80 b 84 80 87 79 85 80 b 81 69 82 80 81 77 l 81 66 b 79 59 81 62 81 60 b 52 36 61 57 52 50 b 69 -14 52 22 58 5 b 94 -49 79 -31 87 -43 l 97 -52 b 195 -117 129 -83 161 -104 b 303 -137 228 -130 264 -136 b 291 -141 295 -138 291 -140 b 325 -149 291 -144 302 -146 b 355 -150 335 -149 345 -150 z "},"T":{"ha":762,"x_min":0,"x_max":0,"o":"m 119 996 l 124 1005 b 119 1004 121 1004 119 1004 b 118 1000 118 1004 118 1002 z m 89 683 b 119 686 96 683 106 684 b 154 696 131 688 142 691 b 171 705 165 700 171 703 b 170 706 171 706 171 706 l 170 706 b 157 703 167 706 163 705 b 102 690 139 694 121 690 b 65 696 92 690 80 692 b 9 730 50 699 31 711 b 0 739 3 736 1 739 l 0 739 b 13 723 0 737 4 732 b 60 686 33 703 48 690 b 89 683 70 684 79 683 z m 366 -90 b 377 -86 369 -90 372 -88 b 394 -73 382 -84 387 -79 b 418 -58 401 -67 409 -62 b 404 -57 411 -58 406 -58 b 401 -52 402 -56 401 -55 b 405 -43 401 -50 402 -47 l 411 -37 b 414 -56 411 -49 412 -56 l 414 -56 b 431 -28 418 -56 424 -47 b 442 7 438 -7 441 5 b 444 127 442 8 443 48 b 451 254 444 207 447 249 b 463 277 459 257 463 264 l 463 279 l 464 287 b 465 282 465 287 465 286 b 465 258 465 279 465 271 b 486 135 465 216 472 175 b 477 247 479 172 477 209 b 491 399 477 287 481 338 b 517 536 500 461 509 507 l 519 546 b 511 520 518 546 515 537 l 499 483 l 503 497 b 517 549 505 508 510 525 b 528 581 524 569 528 580 l 526 570 l 537 616 l 545 636 b 603 806 584 734 603 790 b 602 810 603 808 602 809 l 758 826 l 806 827 b 837 840 827 827 837 831 b 832 854 837 843 836 848 l 829 863 b 837 868 829 867 831 868 b 852 865 840 868 846 867 l 859 865 b 865 872 863 865 865 867 l 861 883 b 862 886 861 885 861 886 l 884 879 l 885 884 b 896 928 888 913 892 928 b 898 926 897 928 897 927 l 895 935 l 890 949 b 804 1045 867 1002 839 1034 l 677 1090 b 651 1091 671 1090 662 1091 b 610 1097 627 1093 614 1095 l 613 1099 b 560 1104 608 1103 591 1104 b 513 1101 537 1104 522 1103 b 486 1096 503 1097 494 1096 b 450 1107 469 1096 457 1100 l 446 1111 b 426 1099 446 1103 439 1099 b 416 1105 420 1099 416 1101 b 427 1108 417 1105 420 1107 b 572 1137 427 1118 475 1128 l 717 1147 b 651 1170 705 1162 684 1170 b 483 1140 609 1170 553 1160 b 345 1095 430 1124 384 1109 b 277 1071 305 1081 283 1073 l 298 1070 l 291 1068 b 144 1030 240 1053 191 1040 b 144 1029 144 1030 144 1030 l 144 1028 b 141 1017 142 1026 141 1023 b 146 1007 141 1013 142 1010 l 140 1003 b 89 974 111 983 94 974 b 86 975 87 974 87 975 b 54 953 69 964 59 956 l 37 934 b 18 907 27 922 21 913 l 18 905 b 23 908 19 905 21 906 b 35 915 29 913 33 915 b 37 912 36 915 37 914 b 31 900 37 911 35 907 b 5 864 23 888 15 877 b 1 853 2 861 1 857 b 2 841 1 848 1 844 l 8 829 b 7 830 7 829 7 830 l 10 816 b 22 778 14 803 17 790 b 30 759 26 765 29 759 b 31 760 31 759 31 759 b 33 765 31 763 33 764 b 39 761 36 765 38 764 b 41 753 39 758 41 755 l 43 745 l 68 750 b 81 742 76 750 81 747 b 81 734 81 739 81 736 l 77 726 l 113 725 b 119 723 113 724 115 723 l 138 723 l 151 724 b 174 720 167 724 174 722 b 223 736 194 724 210 730 b 246 747 236 743 244 746 l 246 747 l 273 757 b 312 774 288 762 300 768 l 317 780 l 295 715 b 271 640 280 672 272 647 l 264 614 b 186 323 235 517 209 420 b 159 151 168 243 159 186 b 178 112 159 125 165 112 b 175 157 176 125 175 140 b 182 262 175 187 178 222 b 195 336 189 311 193 336 b 197 274 196 336 197 315 b 194 262 195 272 194 268 b 207 191 194 250 198 227 b 222 109 217 152 222 124 b 219 92 222 102 221 96 b 212 67 214 85 212 76 b 239 5 212 50 221 28 b 305 -65 257 -22 279 -45 l 317 -73 b 316 -66 317 -70 316 -68 b 317 -63 316 -64 317 -64 b 319 -63 318 -63 319 -63 b 339 -74 322 -63 329 -66 b 355 -87 348 -81 353 -86 b 366 -90 358 -89 362 -90 z m 515 58 l 507 78 b 488 128 501 91 494 108 l 487 128 b 515 58 493 101 503 78 z m 242 1059 b 256 1063 251 1059 256 1060 b 249 1067 256 1065 254 1067 b 241 1062 245 1067 243 1065 l 241 1061 b 242 1059 241 1059 241 1059 z "},"U":{"ha":715,"x_min":0,"x_max":0,"o":"m 281 3 b 378 11 302 3 335 6 b 492 39 420 16 458 25 b 498 45 496 41 498 43 b 490 47 498 46 496 47 b 408 36 475 47 448 43 b 403 35 406 35 404 35 b 401 36 401 35 401 36 b 413 45 401 37 405 41 b 446 63 427 52 438 58 b 456 68 452 66 455 68 l 458 67 b 471 77 466 73 470 77 b 472 78 471 77 471 77 l 471 77 b 469 78 469 77 469 77 l 469 81 b 479 95 469 83 473 87 b 499 112 488 106 494 112 l 505 113 b 514 117 508 114 511 115 b 527 137 518 126 522 133 l 523 113 b 590 193 537 127 559 153 l 644 261 l 654 283 b 703 383 675 330 692 363 b 720 404 710 397 716 404 b 749 491 730 404 740 433 b 780 600 758 551 768 587 b 779 606 780 602 780 604 l 779 620 b 782 627 779 625 780 627 b 785 626 783 627 784 627 b 779 641 782 630 780 635 b 781 658 779 648 780 653 l 787 675 b 786 688 786 679 786 683 b 790 736 786 696 787 713 l 796 777 b 747 1103 796 783 780 891 l 747 1103 b 745 1096 745 1103 745 1101 b 755 993 745 1074 748 1040 l 764 930 l 735 972 b 701 1029 715 1003 704 1021 b 690 1053 696 1041 692 1049 b 684 1057 688 1056 686 1057 b 682 1055 683 1057 682 1056 b 682 1053 682 1055 682 1053 l 682 1048 l 675 1052 b 650 1074 670 1055 661 1063 l 632 1088 l 633 1063 l 633 1067 b 620 1087 629 1076 625 1083 b 599 1091 616 1090 609 1091 b 591 1088 593 1091 591 1090 b 604 1078 591 1086 595 1083 l 608 1076 l 588 1080 l 593 1082 b 578 1088 589 1086 585 1088 b 574 1088 577 1088 576 1088 b 540 1084 555 1088 545 1086 b 553 1082 547 1084 552 1083 l 553 1081 b 536 1072 553 1078 547 1076 l 522 1067 l 529 1069 l 532 1069 b 540 1057 537 1069 540 1065 b 534 1046 540 1049 538 1046 b 532 1053 533 1046 532 1048 b 530 1057 532 1055 532 1057 b 501 1034 525 1057 515 1049 b 472 972 481 1011 472 991 b 488 949 472 962 477 954 b 516 868 498 944 508 917 l 524 795 b 530 779 528 795 530 789 b 490 587 530 751 517 687 b 500 690 490 604 494 638 b 498 734 500 699 500 713 b 467 786 497 754 487 772 b 467 785 467 786 467 786 b 468 781 467 785 467 783 b 481 718 472 771 476 750 b 483 684 482 707 483 696 b 471 574 483 656 479 619 b 401 374 463 528 440 462 b 394 365 400 374 397 371 l 393 359 b 349 307 393 351 378 334 l 298 264 b 296 260 298 262 298 260 b 268 275 289 260 279 265 l 250 288 b 248 388 248 288 248 321 b 250 441 248 423 248 441 b 249 461 249 446 249 453 b 256 553 249 494 252 526 b 271 591 260 573 264 586 b 319 757 282 600 298 656 b 340 908 333 826 340 876 b 332 937 340 928 337 937 b 304 899 326 937 317 924 b 317 959 304 904 309 924 b 318 972 317 965 318 969 b 317 973 318 972 318 973 b 307 948 316 973 313 965 l 302 939 b 302 943 302 940 302 941 b 302 966 302 951 302 959 b 303 983 303 972 303 979 b 302 991 303 989 303 991 l 284 954 l 291 987 l 292 997 b 290 994 291 997 291 996 b 274 956 282 968 277 956 b 273 956 273 956 273 956 b 273 961 273 957 273 958 b 274 980 273 968 273 975 l 276 996 b 247 1004 262 996 253 998 l 245 1004 b 244 1001 245 1004 244 1003 l 243 1000 b 237 1008 242 1000 240 1003 l 233 1015 b 180 982 211 1015 193 1004 b 165 968 174 973 169 968 b 159 970 163 968 161 969 b 163 974 160 970 161 972 b 169 986 167 977 169 981 b 162 996 169 993 167 996 b 159 995 161 996 161 996 b 151 983 157 994 154 989 b 142 960 148 975 145 968 b 136 937 140 951 138 943 l 134 928 b 127 932 132 930 129 932 b 116 922 124 932 121 928 b 88 842 111 913 101 886 b 74 800 81 816 76 802 l 72 788 l 62 760 b 42 694 56 741 50 719 b 25 643 32 660 26 643 l 25 644 b 27 656 25 645 26 649 b 55 815 36 702 45 755 b 83 975 64 876 74 928 b 37 757 69 922 54 849 b 1 468 19 665 7 568 b 0 409 1 448 0 429 b 29 189 0 332 9 259 b 99 71 48 119 71 79 b 140 56 127 61 140 56 l 139 56 b 133 57 136 57 134 57 l 132 57 b 133 56 132 56 132 56 b 188 20 161 33 179 20 b 193 22 191 20 193 20 l 193 25 l 208 23 b 214 24 212 23 214 24 l 221 21 b 222 22 221 22 221 22 b 233 20 222 22 227 21 b 245 17 239 20 243 18 l 227 18 b 205 18 214 18 206 18 b 203 16 203 17 203 17 b 221 9 203 14 209 12 b 281 3 237 5 257 3 z m 728 989 b 733 1000 731 995 733 999 l 733 1000 l 731 998 b 729 995 730 997 729 996 z "},"V":{"ha":890,"x_min":0,"x_max":0,"o":"m 66 304 b 69 307 68 304 69 304 l 69 309 b 62 319 68 316 65 319 b 59 316 60 319 59 318 b 61 308 59 314 60 311 b 66 304 62 305 64 304 z m 394 -37 b 455 -7 406 -37 426 -26 b 496 15 476 7 490 15 b 500 14 498 15 499 15 b 502 13 500 14 501 13 b 610 125 513 13 549 50 b 737 298 671 202 714 260 b 801 409 780 369 801 406 l 800 408 b 785 389 800 408 794 401 b 753 344 777 377 766 362 b 715 288 741 326 728 307 b 682 238 702 268 690 251 b 667 218 672 225 667 218 b 707 311 667 222 680 253 b 795 503 734 368 764 432 b 862 675 827 574 849 631 b 859 675 861 675 860 675 b 857 674 859 674 858 674 b 856 673 857 673 857 673 l 857 675 b 873 741 860 685 865 707 l 873 740 b 884 841 876 740 880 774 b 890 977 888 913 890 959 b 863 1037 890 1003 880 1023 b 847 1064 853 1047 848 1057 l 846 1067 b 825 999 844 1067 837 1044 l 813 953 b 806 926 809 935 807 926 b 806 929 806 926 806 927 l 817 1024 b 821 1071 819 1046 821 1061 b 819 1078 821 1076 820 1078 b 762 1034 799 1071 780 1056 l 748 1015 b 739 1049 743 1038 741 1049 b 736 1038 737 1049 736 1045 l 734 1002 b 732 1008 734 1002 733 1004 b 726 1021 730 1017 728 1021 b 724 1021 726 1021 725 1021 b 717 1011 722 1020 720 1017 b 708 991 713 1005 711 998 b 701 970 705 983 703 977 l 698 962 l 692 966 b 648 873 687 964 673 934 b 612 775 624 817 612 785 l 612 774 b 496 499 583 699 544 607 b 374 281 430 354 389 281 b 328 337 352 281 336 300 b 313 505 318 376 313 432 b 319 656 313 551 315 602 b 347 901 328 762 337 844 b 374 1048 365 991 374 1040 l 373 1049 b 366 1025 372 1049 370 1041 b 322 801 352 966 338 892 b 300 629 307 715 300 658 b 298 604 300 617 299 609 l 297 625 b 292 650 294 635 292 644 b 292 656 292 652 292 654 b 296 661 292 659 294 660 b 284 667 288 663 284 665 l 285 667 b 292 666 286 667 288 667 b 299 664 295 665 297 664 l 300 664 l 296 666 b 290 682 292 668 290 673 l 294 731 b 298 795 296 757 298 779 b 292 825 298 811 296 821 l 287 850 l 267 899 b 268 880 267 890 268 884 b 267 874 268 876 267 874 b 252 901 264 874 260 883 b 243 919 248 913 244 919 l 243 918 b 245 905 243 916 244 911 l 241 916 b 233 930 238 925 235 930 b 227 900 230 930 228 920 b 224 876 227 884 226 876 b 216 920 222 876 220 890 b 213 941 215 928 214 935 b 211 949 212 946 212 949 b 195 931 206 949 201 943 l 191 925 b 191 926 191 925 191 926 l 191 942 b 189 948 191 946 191 948 b 176 930 186 948 182 942 l 169 917 l 163 955 b 159 928 161 955 159 946 b 153 897 157 909 155 899 b 137 886 145 889 140 886 b 133 893 134 886 133 888 b 134 916 133 902 134 909 b 136 924 135 922 136 924 b 138 921 137 924 137 923 b 138 918 138 919 138 918 l 138 925 b 137 932 138 928 138 930 b 129 934 136 933 134 934 b 105 928 120 934 113 932 b 98 920 100 925 98 922 l 79 876 b 56 832 66 848 58 833 b 31 655 39 828 31 769 b 35 543 31 629 33 591 b 50 391 37 494 41 444 b 81 300 58 337 68 307 b 73 280 75 299 73 292 b 75 262 73 275 73 269 b 81 239 77 254 79 247 b 83 224 83 232 83 227 b 83 222 83 224 83 223 b 44 291 81 222 68 245 l 26 340 b 8 397 14 370 8 389 b 10 401 8 399 9 401 b 24 387 12 401 17 396 b 26 388 25 387 26 387 b 20 401 26 391 24 395 b 7 410 15 408 11 410 b 0 394 2 410 0 405 b 47 262 2 357 18 313 b 146 114 75 211 109 161 b 247 4 184 66 218 29 b 286 -21 265 -13 279 -21 b 294 -13 290 -21 293 -18 l 299 -20 l 299 -20 b 301 -20 300 -20 300 -20 b 302 -22 301 -21 301 -22 b 306 -25 304 -24 305 -25 l 307 -25 b 327 -17 312 -20 319 -18 b 352 -20 335 -17 343 -18 b 373 -28 360 -23 367 -26 l 382 -32 b 394 -37 385 -35 389 -37 z "},"W":{"ha":1023,"x_min":0,"x_max":0,"o":"m 132 -3 b 142 -1 138 -3 142 -2 l 140 -1 b 123 0 138 0 132 0 b 54 39 98 1 75 14 b 1 125 33 64 16 92 b -34 213 -14 158 -26 187 l -46 252 l -37 218 b -12 138 -32 195 -23 169 b 34 53 0 108 16 79 b 100 -1 52 26 75 9 b 122 -3 106 -2 114 -3 z m 705 -203 b 733 -199 714 -203 723 -201 l 746 -194 l 732 -196 b 688 -202 713 -200 699 -202 b 595 -157 659 -202 627 -187 b 541 -95 573 -136 555 -115 b 524 -61 529 -79 524 -67 b 524 -58 524 -60 524 -58 b 537 -67 526 -58 530 -61 b 569 -93 546 -75 556 -83 b 618 -114 587 -107 604 -114 b 644 -104 627 -114 636 -111 b 673 -111 654 -109 663 -111 b 752 -73 695 -111 722 -98 b 885 92 791 -43 836 13 l 895 119 b 910 145 903 136 907 145 b 941 186 920 145 930 159 b 984 369 956 229 970 290 l 993 410 b 994 406 994 410 994 409 l 1002 428 b 1019 479 1007 443 1013 460 b 1034 547 1029 513 1034 536 b 1031 557 1034 552 1034 555 b 1043 578 1039 557 1043 565 l 1042 588 l 1097 842 b 1101 916 1099 869 1101 894 b 1090 1015 1101 949 1097 983 b 1065 1098 1084 1047 1076 1075 b 1053 1147 1057 1118 1053 1134 b 1031 1175 1053 1166 1046 1175 b 1021 1175 1028 1175 1025 1175 l 1010 1171 l 999 1168 l 988 1168 b 975 1178 981 1168 977 1171 b 977 1193 975 1183 976 1188 l 977 1194 b 955 1200 977 1198 970 1200 b 902 1192 939 1200 922 1197 b 852 1165 882 1186 865 1177 b 838 1133 843 1156 838 1146 b 841 1117 838 1128 839 1123 l 836 1118 b 842 1099 840 1112 842 1105 b 838 1078 842 1093 840 1086 b 836 1067 837 1075 836 1071 b 839 1066 837 1067 838 1066 b 846 1068 841 1066 843 1067 b 852 1070 849 1069 851 1070 b 855 1067 854 1070 855 1069 b 852 1058 855 1065 854 1063 l 850 1051 b 851 1050 850 1050 850 1050 l 854 1053 b 860 1057 857 1055 859 1056 b 863 1059 861 1059 863 1059 b 869 1023 865 1059 867 1047 b 872 948 871 996 872 970 b 869 935 871 939 871 935 l 867 917 b 852 840 863 917 858 891 b 842 782 847 801 844 782 b 837 821 840 782 838 795 b 833 882 837 829 836 850 b 806 991 829 955 819 991 b 800 986 802 991 800 989 b 806 971 800 981 802 977 l 814 960 b 837 790 829 897 837 840 b 825 687 837 764 833 730 b 775 532 818 644 801 592 b 707 308 749 471 726 396 b 684 240 698 262 690 240 b 678 245 684 240 682 242 b 669 387 672 252 669 299 b 678 578 669 462 672 526 b 694 631 682 613 687 631 b 696 639 695 631 696 633 b 678 743 696 661 690 696 b 660 782 671 769 665 782 b 654 774 658 782 656 779 b 639 747 648 755 643 747 b 634 762 635 747 634 751 b 639 776 634 771 635 776 l 639 784 l 631 805 b 614 800 631 802 625 800 b 602 801 612 800 608 800 b 582 804 595 802 589 802 b 572 805 577 804 574 804 b 569 806 570 806 570 806 b 568 805 568 806 568 806 l 551 802 b 543 792 547 795 545 792 b 536 797 541 792 539 793 b 526 804 532 802 528 804 b 490 758 516 804 505 789 l 492 777 b 491 778 492 777 492 778 l 490 776 l 486 762 l 484 757 b 483 758 483 757 483 758 b 482 765 482 759 482 761 l 466 747 b 451 712 466 747 461 734 b 413 627 441 690 429 661 b 365 524 397 593 381 559 b 323 437 349 490 334 460 b 302 401 311 413 304 401 b 249 334 275 357 258 334 b 246 336 248 334 247 335 l 244 335 b 243 305 244 315 244 305 b 222 370 233 305 226 327 b 219 448 220 394 219 420 l 219 487 b 243 695 224 552 232 621 b 256 808 252 761 256 799 b 254 816 256 813 255 815 l 256 849 b 254 892 256 878 255 892 b 253 886 254 892 254 890 b 248 874 252 878 250 874 b 243 905 248 875 245 885 l 242 919 b 231 930 241 926 237 930 b 226 927 229 930 228 929 b 221 916 224 925 222 922 b 214 898 219 909 217 903 b 197 889 210 892 205 889 l 198 947 b 172 920 193 946 184 937 b 161 908 165 912 162 908 b 164 916 161 909 162 911 b 166 926 165 920 166 923 b 165 929 166 928 166 929 l 164 926 l 161 924 b 106 903 159 922 140 916 b 68 847 94 897 81 878 l 48 798 l 49 796 b 46 783 49 793 48 789 b 37 759 43 774 40 766 l 33 755 b 32 766 32 756 32 760 b -9 530 5 622 -9 543 l -8 521 b -9 513 -8 516 -9 513 b -13 495 -11 513 -12 507 b -14 441 -14 486 -14 469 l -16 448 b -19 441 -18 448 -19 446 b -13 431 -19 434 -17 431 b 10 250 -11 377 -3 317 b 68 87 23 183 42 129 l 79 73 b 72 77 76 73 74 75 b 65 84 70 78 68 81 b 39 121 52 107 43 119 l 37 119 l 38 114 b 94 51 45 92 64 71 b 183 10 123 31 153 17 b 205 7 191 8 199 7 b 237 27 222 7 233 14 b 250 20 239 22 243 20 b 277 26 255 20 264 22 b 329 53 289 31 307 39 b 390 97 351 66 372 81 b 422 137 408 113 419 125 b 429 146 425 143 427 146 b 453 90 433 146 441 127 b 494 -18 463 58 477 22 b 660 -201 536 -119 591 -180 b 705 -203 669 -203 684 -203 z m 243 338 l 244 339 l 244 397 b 240 357 241 381 240 368 b 243 338 240 349 241 343 z m 245 400 l 256 466 b 267 526 263 498 267 518 b 265 532 267 530 266 532 b 260 527 264 532 262 530 b 244 400 251 511 245 468 z m 47 843 b 79 951 56 880 67 916 b 124 1063 104 1025 119 1063 b 117 1071 122 1068 119 1071 b 83 1018 109 1071 98 1053 b 47 843 80 1010 68 952 z m 1016 323 b 1026 346 1018 323 1021 330 b 1067 481 1040 388 1053 433 b 1096 597 1086 553 1096 592 l 1096 597 b 1053 458 1094 597 1079 551 b 1016 323 1028 376 1016 330 z m 2 228 l 2 231 b 4 251 3 237 4 244 b -1 290 4 265 2 278 b -7 302 -4 298 -6 302 b -9 297 -8 302 -9 300 b -1 238 -9 287 -6 267 b 1 231 -1 235 0 232 b 1 229 1 229 1 229 b 2 228 1 228 1 228 z m -13 378 b -16 399 -13 392 -14 399 b -18 390 -18 399 -18 396 b -16 380 -18 385 -18 381 z m -37 227 l -37 228 l -38 235 b -41 243 -39 240 -40 243 l -39 231 z "},"X":{"ha":669,"x_min":0,"x_max":0,"o":"m 29 -85 l 31 -83 b 45 -75 34 -77 39 -75 l 47 -76 l 70 -75 b 95 -81 85 -75 94 -77 l 174 -12 l 174 -41 b 177 -70 174 -60 175 -70 l 178 -68 b 182 -53 179 -66 180 -62 b 188 2 185 -35 187 -17 b 187 16 188 11 188 15 b 180 30 182 20 180 24 b 205 75 180 39 189 54 b 241 141 222 96 233 119 b 270 177 247 165 256 177 b 294 170 273 177 281 175 b 347 123 305 165 323 150 b 410 47 370 97 391 71 b 424 28 414 40 419 34 b 442 1 436 13 442 4 l 442 1 b 441 -1 442 0 441 -1 b 393 32 437 -1 421 10 l 360 57 b 324 77 342 70 330 77 b 321 73 322 77 321 75 b 361 33 321 61 334 47 b 450 -7 387 19 417 5 b 536 -39 484 -20 512 -31 b 574 -50 560 -46 573 -50 b 577 -51 575 -51 576 -51 b 579 -50 578 -51 578 -50 b 574 -38 579 -47 577 -44 l 570 -33 l 572 -35 b 582 -46 573 -37 576 -40 b 599 -56 587 -52 593 -56 b 610 -52 601 -56 605 -54 b 651 -14 619 -49 633 -37 b 661 -3 656 -7 660 -3 b 662 -4 662 -3 662 -3 l 663 8 b 655 15 661 8 659 10 b 648 26 652 20 649 23 b 649 28 648 27 648 28 l 652 27 b 653 28 652 27 653 27 b 572 147 653 35 626 75 b 500 247 543 186 518 219 b 471 273 490 247 480 256 b 447 328 463 291 454 309 b 425 370 437 356 429 370 b 422 369 425 370 423 370 b 444 404 426 376 433 388 l 460 425 b 602 564 555 515 602 561 b 535 505 601 564 578 545 b 531 503 533 503 532 503 b 530 503 530 503 530 503 b 736 826 530 514 599 622 l 738 825 b 739 827 739 825 739 826 b 736 848 739 833 738 841 b 732 873 733 859 732 867 b 735 876 732 875 733 876 l 738 889 b 736 890 737 889 736 890 l 736 892 b 743 902 737 894 739 897 b 747 911 746 907 747 909 l 728 917 b 738 918 734 917 738 918 l 738 919 b 730 923 737 920 734 921 b 712 925 724 924 718 925 b 704 929 707 925 704 926 b 706 934 704 930 705 932 b 689 968 704 957 698 968 b 677 964 685 968 681 966 b 669 956 673 960 671 958 l 666 953 b 670 962 666 954 667 956 b 672 976 671 965 672 970 b 661 986 672 983 668 986 b 603 961 650 986 631 978 b 584 952 594 955 588 952 b 580 954 582 952 581 953 b 582 963 580 957 581 960 l 585 968 l 599 964 b 601 965 600 964 601 964 b 589 974 601 967 597 970 b 571 978 582 977 576 978 b 556 960 561 978 556 972 b 466 840 556 947 526 907 l 376 741 b 375 743 375 741 375 742 b 397 777 375 745 382 757 b 444 854 424 816 439 842 l 388 788 b 330 722 351 744 331 722 b 315 738 322 722 317 727 b 311 777 313 748 311 761 b 296 850 309 803 304 827 b 252 971 285 876 270 916 b 246 985 248 981 247 985 l 248 979 b 245 983 247 979 246 980 b 241 996 243 991 241 996 l 239 993 b 237 985 239 987 239 985 b 218 1005 235 985 229 991 b 214 1008 216 1007 214 1008 b 212 1000 212 1007 212 1004 l 212 988 l 212 985 b 202 1013 210 985 207 995 b 199 1020 201 1017 199 1019 l 197 1016 l 198 970 b 197 966 198 967 198 966 l 197 966 b 195 974 196 967 196 969 b 193 989 195 978 193 983 b 189 1004 191 994 190 999 b 187 1011 189 1008 188 1010 b 186 1002 186 1011 186 1008 b 188 968 186 996 187 984 b 187 966 188 967 188 966 b 181 977 186 966 184 970 b 176 996 178 983 176 989 b 182 1008 176 1002 178 1006 l 176 1008 b 167 1012 172 1008 169 1010 l 165 1011 l 166 1016 l 165 1016 b 159 1019 163 1017 161 1019 l 157 1020 b 153 1012 155 1020 154 1017 l 153 995 l 154 983 b 151 971 154 975 153 971 l 149 978 b 146 995 147 983 146 989 b 149 1005 146 1001 147 1004 l 144 1006 b 138 990 141 1006 138 1000 b 123 966 136 974 132 966 b 109 962 114 966 109 964 b 109 960 109 961 109 960 b 106 962 108 960 107 961 b 95 902 104 962 100 942 b 89 789 91 870 89 832 b 95 713 89 775 91 750 b 129 581 99 675 111 631 b 139 494 136 525 139 496 b 130 534 138 496 136 509 b 50 895 100 647 74 768 b 119 503 66 755 88 624 b 125 469 123 488 125 477 b 119 457 125 463 123 459 b 109 425 113 452 109 442 b 105 431 108 429 106 431 l 103 431 b 100 426 102 430 101 429 b 95 416 98 422 96 420 b 92 409 94 413 92 411 b 89 405 90 407 90 406 l 88 404 b 87 406 87 404 87 405 l -47 113 b -64 73 -58 108 -64 94 b -55 16 -64 58 -61 40 l -42 -27 b -34 9 -42 -24 -39 -12 l -34 17 l -41 -5 b -43 -7 -42 -7 -43 -7 l -43 -3 l -37 22 l -36 22 b -18 -6 -25 11 -19 1 b -26 -19 -18 -12 -20 -16 b -34 -29 -31 -22 -34 -26 b -3 -62 -34 -37 -24 -48 l 29 -83 l 28 -85 z m 210 -140 b 211 -140 211 -140 211 -140 b 203 -127 211 -138 208 -134 b 184 -102 193 -117 186 -109 b 181 -91 182 -94 182 -91 l 181 -93 b 184 -106 181 -96 182 -100 b 193 -126 186 -113 189 -119 b 208 -140 197 -133 201 -138 z m 50 900 b 28 1101 39 989 33 1055 l 25 1134 b 50 900 25 1069 33 991 z "},"Y":{"ha":652,"x_min":0,"x_max":0,"o":"m 831 -26 b 831 -24 831 -26 831 -25 l 831 -22 z m 827 -28 l 828 -27 b 827 -26 828 -27 827 -26 b 826 -24 827 -25 827 -25 z m 215 -175 b 237 -153 218 -175 225 -168 l 248 -141 l 255 -135 b 256 -136 256 -135 256 -135 b 243 -165 256 -138 252 -148 b 251 -154 244 -165 247 -161 b 258 -142 254 -147 257 -143 b 261 -136 259 -138 260 -136 l 262 -136 b 261 -144 262 -136 262 -139 b 260 -158 260 -150 260 -155 l 260 -160 l 262 -157 b 294 -130 264 -154 275 -144 l 327 -102 b 356 -68 347 -85 356 -74 b 353 -63 356 -66 355 -64 l 357 -60 l 434 69 b 435 71 434 70 434 71 b 436 74 435 72 435 73 b 440 81 436 75 437 77 b 446 94 442 85 444 90 b 448 102 446 99 447 102 b 449 104 448 103 448 104 b 452 108 450 105 450 106 b 463 120 456 115 460 119 b 486 163 471 137 479 151 b 496 187 493 174 496 182 l 496 189 b 509 213 505 200 509 208 l 513 218 b 521 213 518 218 521 216 b 512 196 521 210 517 203 b 488 161 500 180 492 169 b 493 153 488 156 490 154 b 527 209 501 153 513 172 l 547 267 l 547 274 b 567 294 553 274 559 281 b 592 343 574 307 583 323 b 652 451 608 379 628 415 b 735 516 675 487 703 509 b 702 510 722 515 711 513 b 673 492 692 507 683 501 b 637 452 664 484 652 470 l 694 595 l 709 637 b 745 732 720 665 731 696 b 781 827 758 767 770 799 b 802 868 793 854 800 868 l 804 880 l 781 840 l 783 853 l 783 863 b 780 873 783 870 782 873 b 778 873 779 873 779 873 b 772 865 777 872 774 869 b 762 842 770 860 766 852 b 797 937 785 901 796 932 b 795 941 797 940 796 941 l 793 941 b 779 928 790 939 785 935 b 761 915 770 919 764 915 l 760 915 b 760 918 760 916 760 916 b 778 966 760 922 766 939 l 777 966 b 773 962 777 966 775 964 b 766 949 771 959 768 955 b 758 935 763 944 760 939 b 753 926 755 930 753 926 l 751 924 b 760 941 751 925 754 931 b 768 966 766 951 768 960 b 760 979 768 971 766 976 b 741 960 753 972 747 966 b 747 972 745 966 747 970 b 745 978 747 975 746 977 b 730 987 739 984 734 987 l 726 987 b 725 988 725 987 725 987 b 726 991 725 989 726 990 b 722 996 726 994 725 996 b 706 988 718 996 712 993 b 690 962 696 981 690 972 b 692 955 690 960 691 958 l 692 953 b 690 946 692 951 692 948 b 676 939 686 941 682 939 b 671 940 674 939 673 939 b 684 946 677 940 681 942 b 690 966 688 953 690 960 b 685 976 690 972 688 976 b 679 972 683 976 681 975 l 681 979 l 681 980 b 677 975 680 979 678 977 l 675 970 b 652 978 667 975 659 978 b 608 933 635 978 621 963 b 603 924 605 927 604 924 b 600 922 602 924 601 923 b 594 915 597 921 596 918 b 571 867 578 890 571 874 b 572 864 571 865 571 865 b 534 806 564 863 551 844 l 509 749 l 480 690 b 428 581 473 690 456 654 b 391 498 410 532 397 504 b 363 463 378 483 369 471 b 353 450 358 454 355 450 b 345 480 351 450 348 460 b 322 587 341 500 334 536 b 298 756 307 587 298 643 l 299 809 b 295 725 296 776 295 747 b 296 690 295 711 296 700 b 295 665 296 679 296 670 l 268 808 b 220 972 244 905 229 960 l 223 951 b 226 932 225 943 226 936 b 222 926 226 928 224 926 b 218 947 222 931 220 938 b 212 981 214 962 212 974 b 212 988 212 984 212 986 b 193 1012 212 994 206 1002 l 172 1026 b 165 1017 172 1020 170 1017 l 161 1017 b 147 1021 158 1017 153 1019 b 130 1025 138 1024 133 1025 b 123 1023 127 1025 125 1025 b 117 1034 120 1030 117 1034 b 116 1032 116 1034 116 1034 b 121 996 116 1027 118 1015 b 113 1009 117 1000 113 1004 b 111 1029 112 1019 111 1026 b 105 1035 110 1033 108 1035 l 100 1031 b 83 1023 94 1025 87 1023 b 73 1025 79 1023 77 1023 l 73 1025 b 52 1004 70 1025 63 1018 b 38 986 47 996 42 991 b 27 979 34 981 31 979 b 26 985 26 980 26 981 b 27 998 26 988 26 992 b 14 958 24 991 20 977 l 5 924 b 1 928 3 926 2 928 b 0 922 1 928 0 926 b 1 901 0 919 1 912 b 27 741 2 890 11 837 b 52 582 43 650 52 597 b 41 602 45 595 41 602 l 41 602 l 41 598 b 52 569 42 595 45 586 b 73 513 58 552 65 534 b 95 460 81 493 89 475 l 104 437 b 104 435 104 436 104 435 b 151 345 104 428 119 398 b 211 222 191 274 211 233 b 210 218 211 220 211 219 b 217 192 215 210 217 201 b 121 44 217 163 185 113 b 92 18 113 35 102 26 l 52 -7 b 181 111 88 -3 131 36 b 195 127 189 122 193 127 l 184 112 b 174 86 177 100 174 92 b 180 83 174 84 176 83 b 160 41 176 78 169 64 b 138 -34 151 19 144 -6 b 134 -76 135 -49 134 -63 b 138 -115 134 -87 135 -100 b 177 -138 142 -131 155 -138 b 195 -110 184 -127 190 -117 l 197 -109 b 194 -118 197 -111 196 -113 l 190 -126 b 182 -158 185 -138 182 -149 b 187 -163 182 -161 184 -163 b 199 -165 190 -164 194 -165 b 211 -165 204 -165 208 -165 b 215 -174 214 -166 215 -169 l 214 -174 b 215 -175 214 -174 214 -175 z m 422 20 l 426 21 b 455 100 437 41 447 68 b 443 79 451 95 447 88 b 437 71 441 75 439 73 b 422 28 427 48 422 35 z m 378 -39 b 385 -32 378 -39 380 -37 b 401 -15 390 -28 395 -22 b 416 5 408 -8 412 -1 l 416 9 b 406 5 413 6 410 5 l 394 -15 b 393 -16 393 -15 393 -16 b 387 -28 391 -22 389 -26 b 378 -39 381 -35 378 -38 z m 298 816 l 299 817 l 302 949 b 304 1077 304 1002 304 1045 b 300 1116 304 1103 303 1116 b 298 1114 299 1116 298 1116 b 288 1032 291 1098 288 1071 b 298 825 288 981 291 912 z "},"Z":{"ha":953,"x_min":0,"x_max":0,"o":"m 999 -98 b 989 -94 999 -98 996 -96 b 916 -74 968 -85 943 -79 l 916 -75 b 999 -98 967 -90 995 -98 z m 436 229 b 447 238 437 229 441 233 l 443 239 b 433 233 437 239 433 237 l 433 231 b 436 229 434 230 435 229 z m 54 -98 b 72 -96 60 -98 66 -97 b 88 -91 78 -94 83 -93 l 95 -89 l 103 -94 l 189 -84 b 404 -64 247 -77 318 -71 b 669 -54 490 -58 578 -55 b 910 -73 759 -54 840 -60 l 838 -50 l 838 -49 b 850 -45 838 -47 842 -46 b 927 -41 859 -44 884 -43 b 981 -38 963 -41 981 -40 b 1005 -23 981 -36 989 -31 b 1029 -12 1021 -16 1029 -12 b 1049 -11 1040 -12 1046 -12 b 1053 -8 1051 -10 1053 -9 b 1047 -5 1052 -7 1050 -6 b 1012 6 1025 1 1013 5 b 1010 7 1011 7 1010 7 l 1041 7 b 1050 9 1047 7 1050 7 l 1010 18 l 998 22 b 1000 22 998 22 998 22 b 1021 21 1006 22 1013 22 b 1051 19 1034 20 1044 19 b 1067 22 1061 19 1066 20 b 1048 37 1067 26 1061 31 b 1036 46 1040 42 1036 45 b 1040 47 1036 47 1037 47 b 1059 49 1049 47 1055 48 b 1063 54 1062 50 1063 52 b 1050 64 1063 56 1058 60 b 1038 74 1044 68 1040 71 l 1026 77 b 1034 80 1028 79 1031 80 b 1040 102 1038 81 1040 89 b 1036 115 1040 107 1038 111 b 1025 123 1032 118 1029 121 b 1017 126 1022 125 1019 126 b 1014 123 1015 126 1014 125 b 980 157 1013 137 1002 149 b 795 189 941 173 880 183 b 675 193 745 192 705 193 b 670 198 675 194 673 196 b 650 204 663 202 656 204 b 631 195 642 204 636 201 l 574 206 b 578 205 576 205 578 205 b 550 204 578 204 568 204 b 510 205 536 204 523 204 l 479 205 l 448 196 b 420 191 437 193 428 191 b 411 196 414 191 411 193 b 418 208 411 199 414 203 b 428 218 423 213 426 216 b 430 222 429 220 430 221 l 428 220 b 422 215 426 218 424 217 b 416 212 419 213 417 212 b 415 212 415 212 415 212 b 447 251 415 215 426 228 l 447 250 b 448 249 447 250 447 250 b 450 248 448 248 449 248 b 451 248 450 248 450 248 l 452 248 b 456 250 452 248 454 248 l 462 256 l 462 257 b 460 258 462 258 461 258 b 450 255 457 258 454 257 l 496 307 l 490 297 l 493 296 b 506 309 498 296 503 300 b 507 319 507 313 507 317 l 512 325 l 515 324 b 531 338 519 324 525 329 l 538 349 l 553 358 l 552 358 b 534 350 550 358 545 355 b 627 462 585 408 616 445 b 653 502 642 487 651 500 l 654 502 b 618 426 654 500 642 475 b 556 300 585 361 564 319 b 547 271 550 286 547 277 l 631 423 b 732 593 684 519 718 576 b 731 593 731 593 731 593 b 768 652 731 598 743 618 b 838 743 804 699 827 729 b 850 760 846 754 850 760 b 875 780 860 760 868 767 b 894 823 882 793 888 808 b 902 844 897 832 900 839 b 905 866 904 849 905 857 b 903 901 905 873 905 884 b 887 961 901 916 896 937 b 848 1019 878 985 865 1004 b 813 1031 838 1027 827 1031 b 783 1025 804 1031 793 1029 l 799 1027 l 812 1024 b 817 1018 815 1023 817 1021 b 816 1016 817 1017 817 1017 b 810 1014 815 1015 814 1015 b 798 1012 807 1013 803 1013 b 785 1010 793 1011 789 1010 b 777 1014 779 1010 777 1012 b 779 1018 777 1015 777 1016 b 782 1023 781 1020 782 1021 b 732 1033 782 1029 765 1033 b 688 1032 728 1033 713 1033 b 536 1017 663 1031 612 1027 b 306 976 460 1006 384 993 l 304 974 b 307 972 307 974 307 973 b 213 916 307 966 276 947 b 223 916 217 916 220 916 b 243 921 231 918 238 920 b 248 920 245 921 247 921 l 197 898 b 208 899 200 898 203 899 b 237 907 226 904 235 907 l 237 906 b 213 894 237 905 229 901 b 186 859 195 886 186 874 l 186 851 b 201 852 193 851 197 851 l 214 856 b 190 838 214 855 205 849 b 178 824 182 831 178 826 b 180 823 178 823 178 823 b 203 828 185 823 193 825 b 224 833 213 831 220 833 b 228 832 227 833 228 833 l 227 830 b 207 812 227 829 220 823 b 182 789 190 800 182 793 b 186 788 182 789 184 788 b 196 789 188 788 191 789 b 205 791 201 790 203 791 b 210 790 208 791 210 791 b 208 786 210 789 209 787 b 203 779 205 783 203 780 b 216 774 203 777 208 774 l 210 768 b 216 755 210 762 212 758 b 228 749 219 751 223 749 b 241 747 233 748 237 747 l 264 749 b 271 753 264 751 267 753 b 277 751 274 753 277 752 b 275 751 277 751 277 751 b 267 749 269 751 267 750 b 269 747 267 749 267 748 l 279 746 b 287 742 284 745 287 743 b 283 739 287 741 286 740 b 279 736 280 738 279 737 b 281 736 279 736 279 736 b 363 753 290 736 317 741 l 536 793 b 583 804 559 799 575 802 b 584 802 584 804 584 803 b 581 794 584 802 583 799 b 559 758 574 780 566 768 b 544 741 551 747 546 741 b 543 745 543 741 543 743 b 517 703 536 735 527 721 b 458 625 494 660 475 633 b 434 599 456 623 448 614 b 388 545 420 583 405 565 b 326 466 347 496 326 469 b 296 432 326 463 315 452 b 263 382 282 406 271 389 l 260 382 l 287 422 b 406 604 336 493 376 553 b 429 650 421 629 429 644 b 265 419 422 650 368 573 l 179 291 b 155 266 167 279 159 271 l 150 258 l 134 231 b 124 225 130 231 127 229 b 115 211 121 221 119 216 b 100 189 111 202 106 195 b 90 174 96 184 93 180 b 9 114 83 152 56 132 b 9 108 9 113 9 111 b 5 103 9 106 8 104 l 1 102 b -46 -3 -31 92 -46 57 l -45 -28 b -35 -24 -40 -28 -37 -26 l -31 -21 b -31 -23 -31 -22 -31 -22 b -29 -28 -31 -24 -30 -26 b -25 -31 -28 -30 -27 -31 b -22 -31 -24 -31 -23 -31 b 3 -28 -17 -29 -9 -28 l 3 -32 b 1 -31 3 -31 1 -31 b -3 -33 -1 -31 -2 -31 b -6 -31 -3 -31 -5 -31 b -9 -33 -7 -31 -8 -31 b -13 -45 -12 -35 -13 -39 b 7 -87 -13 -57 -6 -71 l 20 -75 b 23 -72 20 -73 21 -72 b 26 -75 25 -72 26 -73 b 54 -98 26 -90 35 -98 z m 467 265 b 473 270 469 265 471 267 b 482 281 475 273 478 277 b 486 287 485 284 486 286 l 486 287 l 481 284 b 463 267 469 276 463 271 b 464 266 463 267 463 266 z m 102 911 l 111 914 b 268 966 189 941 241 958 b 106 913 204 951 151 933 z "},"a":{"ha":755,"x_min":0,"x_max":0,"o":"m 600 -185 b 602 -178 602 -185 602 -182 l 602 -158 l 595 -109 b 620 -159 602 -109 610 -125 b 629 -184 624 -175 627 -183 b 633 -149 631 -184 633 -172 b 633 -131 633 -139 633 -133 b 635 -137 634 -132 634 -134 b 637 -149 635 -140 636 -144 b 642 -159 639 -153 640 -157 b 648 -163 644 -162 646 -163 l 652 -163 l 663 -163 b 673 -162 666 -163 669 -163 b 680 -158 676 -161 678 -160 b 682 -153 682 -157 682 -155 l 682 -149 b 676 -115 678 -132 676 -121 b 678 -109 676 -111 677 -109 b 687 -117 679 -109 682 -112 b 694 -123 690 -121 692 -123 l 694 -115 b 689 24 690 -93 689 -46 b 692 127 689 50 690 85 b 697 212 694 184 696 212 b 703 205 698 212 699 210 b 714 182 705 199 709 192 b 730 153 719 173 724 163 b 744 125 734 142 739 133 l 753 106 b 715 376 743 149 730 239 b 702 570 707 463 702 528 b 708 616 702 595 704 611 l 726 894 b 772 1048 727 910 743 962 b 783 1101 780 1071 783 1088 b 782 1103 783 1103 783 1103 b 766 1069 779 1103 774 1092 b 745 1006 755 1038 748 1017 b 733 979 740 988 736 979 b 730 983 732 979 731 981 b 728 996 730 985 728 989 b 726 1017 727 1002 726 1009 b 723 1038 725 1025 724 1031 b 720 1046 722 1043 721 1046 b 701 1041 711 1042 705 1041 b 696 1045 698 1041 696 1042 l 696 1056 b 696 1065 696 1059 696 1061 b 695 1076 696 1067 696 1072 b 683 1090 694 1081 690 1086 b 644 1099 675 1095 662 1098 b 648 1105 646 1099 648 1102 b 643 1114 648 1111 646 1114 b 640 1108 642 1114 641 1112 b 632 1073 637 1084 634 1073 b 631 1076 631 1073 631 1074 b 632 1081 631 1077 631 1079 b 633 1086 632 1083 632 1084 b 633 1088 633 1088 633 1088 l 632 1093 b 635 1105 633 1093 633 1097 l 635 1115 b 612 1102 629 1114 621 1109 b 585 1076 602 1094 593 1085 b 570 1055 576 1067 572 1059 b 569 1059 570 1055 569 1057 l 570 1071 b 570 1073 570 1072 570 1073 b 562 1062 568 1073 566 1069 b 526 1044 555 1050 543 1044 l 514 1044 b 472 1012 499 1033 485 1022 b 408 943 429 977 408 954 b 410 937 408 941 408 939 b 276 754 408 934 363 873 b 199 647 245 714 220 678 b 102 498 151 578 119 528 b 62 420 81 465 68 438 b 56 389 58 408 56 398 l 56 386 b 104 496 56 413 72 450 b 204 630 136 541 169 586 b 239 673 227 659 238 673 b 261 708 239 673 246 685 b 107 439 195 591 144 501 b 60 378 82 398 66 378 b 26 293 56 368 44 340 b -9 176 11 254 -1 215 b -14 135 -13 160 -14 146 b -2 91 -14 116 -10 101 l -3 -34 b 1 28 -2 -6 -1 14 b 6 53 2 41 4 50 b 12 57 8 56 10 57 b 26 47 16 57 20 54 b 38 36 31 40 36 36 b 43 32 41 35 42 34 b 43 12 43 21 43 14 b 50 8 43 9 45 8 b 71 17 54 8 60 11 b 71 10 71 14 71 12 b 85 -3 73 1 77 -3 b 142 11 108 1 127 5 b 191 40 158 17 174 26 b 357 137 271 83 327 115 b 446 186 399 170 429 186 b 472 120 463 186 472 164 b 470 81 472 109 471 96 b 468 34 469 66 468 50 b 483 -105 468 -16 473 -62 l 490 -141 l 491 -141 b 489 -126 491 -139 490 -134 b 476 36 480 -64 476 -10 b 481 68 476 57 478 68 b 500 28 486 68 492 55 b 534 -94 513 -14 525 -55 b 542 -120 538 -108 541 -117 l 538 -103 b 538 -102 538 -103 538 -103 l 538 -100 b 538 -92 538 -96 538 -94 l 564 -144 b 569 -114 566 -124 567 -114 b 575 -132 570 -114 572 -120 b 600 -185 582 -162 590 -180 z m 322 360 b 333 374 328 366 332 370 b 355 414 339 401 347 414 b 431 537 385 459 410 500 b 476 611 460 587 475 611 b 477 594 477 611 477 606 b 469 504 477 581 474 551 l 458 402 l 412 390 b 330 365 357 374 330 366 z m 732 465 l 728 488 b 724 547 725 502 724 522 l 724 577 b 736 666 724 594 728 623 b 712 545 720 618 712 578 b 713 515 712 540 713 530 b 732 465 714 501 720 484 z m 226 5 b 241 14 228 5 233 7 b 263 35 256 26 263 33 b 262 35 263 35 262 35 b 241 22 259 35 252 30 b 224 6 230 14 224 9 b 226 5 224 5 225 5 z "},"b":{"ha":802,"x_min":0,"x_max":0,"o":"m 341 -142 b 435 -99 361 -142 393 -127 b 584 31 477 -71 527 -27 b 732 208 640 88 690 147 b 802 375 779 277 802 333 b 772 469 802 406 792 437 b 753 519 760 486 753 502 b 736 547 753 529 747 538 b 650 587 716 562 688 575 b 630 595 637 591 631 594 b 629 599 629 595 629 597 b 696 720 629 613 652 653 b 736 783 711 743 724 764 b 753 821 747 802 753 814 b 749 850 753 840 751 850 b 744 831 748 849 746 843 l 741 814 b 747 882 741 838 743 860 b 753 937 751 900 753 919 b 748 991 753 951 751 968 b 690 1073 745 1013 726 1040 b 585 1141 663 1096 628 1118 b 539 1158 562 1152 547 1158 b 534 1154 536 1158 534 1156 b 536 1149 534 1153 535 1151 l 500 1149 b 499 1149 500 1149 500 1149 l 491 1148 b 467 1145 481 1146 473 1145 b 460 1147 463 1145 460 1145 b 425 1158 454 1154 442 1158 b 336 1140 408 1158 378 1152 b 172 1067 294 1128 239 1104 b 3 940 105 1031 48 988 b 113 1015 47 972 84 998 l 157 1040 b 111 992 141 1025 125 1009 l 59 930 b 43 906 54 930 49 922 b 28 831 33 880 28 855 b 45 795 28 807 34 795 b 61 800 50 795 55 796 l 59 791 b 42 747 54 791 48 777 b 24 646 36 718 30 685 b 9 541 18 608 13 572 b 0 479 4 506 1 486 b 1 496 0 485 0 491 l 3 545 l -4 478 b -24 381 -9 423 -16 391 l -2 688 b -28 549 -16 688 -24 642 b -33 380 -31 498 -33 442 l -33 284 b -26 166 -33 236 -31 197 b 1 36 -21 136 -12 92 b 32 -7 4 23 14 9 b 92 -50 50 -22 70 -37 b 169 -77 125 -68 151 -77 b 187 -68 178 -77 184 -75 l 416 -24 b 492 15 419 -22 444 -9 b 588 85 505 23 538 46 l 634 120 l 654 132 b 584 47 651 117 627 88 b 441 -72 541 5 493 -34 b 321 -136 390 -110 350 -132 b 341 -142 327 -140 334 -142 z m 667 1099 b 637 1120 666 1101 656 1108 b 604 1135 621 1130 610 1135 b 600 1134 603 1135 602 1135 b 667 1099 623 1122 645 1111 z m 786 895 b 793 941 791 895 793 910 b 770 1040 793 978 785 1010 b 746 1072 758 1061 750 1072 l 745 1072 b 748 1066 745 1071 746 1069 b 785 972 770 1030 783 999 b 787 943 786 962 787 951 b 784 913 787 930 786 920 b 783 902 783 908 783 905 l 783 898 b 786 895 784 896 785 895 z m 718 1051 l 718 1055 b 714 1067 718 1059 717 1063 b 699 1076 711 1073 706 1076 l 697 1075 b 699 1073 697 1074 698 1074 b 718 1051 703 1071 709 1063 z m 677 1092 b 678 1093 678 1092 678 1092 l 673 1094 b 677 1092 674 1093 675 1092 z m 185 132 b 184 140 184 132 184 135 b 192 243 184 162 186 196 l 199 310 l 203 315 l 214 321 b 230 330 220 326 226 329 b 235 327 232 330 234 329 l 235 335 l 239 330 l 242 201 b 245 239 244 214 245 227 b 245 252 245 244 245 248 l 245 280 b 252 313 245 290 248 301 b 274 342 258 325 265 334 b 307 360 288 354 299 360 b 310 364 307 360 308 361 b 316 370 312 366 314 368 b 441 425 352 393 393 412 b 499 433 460 431 479 433 b 533 431 511 433 522 433 b 602 383 579 421 602 406 b 602 374 602 382 602 379 b 589 349 601 368 597 359 b 564 321 582 339 573 330 l 526 292 b 406 231 524 292 484 271 l 341 195 l 342 193 b 277 168 342 186 320 178 b 186 133 226 156 195 144 z m 231 594 b 229 595 230 594 229 595 l 230 605 b 235 631 233 618 235 626 b 230 665 232 637 230 649 b 232 700 230 671 231 683 b 245 771 233 717 237 741 b 269 850 252 802 260 828 b 298 883 279 872 288 883 b 368 903 313 884 336 890 b 479 932 406 919 444 929 b 531 907 513 932 531 924 b 528 888 531 905 530 899 b 481 832 525 876 509 857 b 386 770 452 806 420 785 b 328 755 364 760 345 755 b 302 760 319 755 310 756 l 304 758 b 329 750 308 753 317 750 b 387 764 345 750 365 755 b 473 817 411 775 439 792 b 488 824 481 821 486 824 b 488 823 488 824 488 824 l 488 823 b 484 812 488 821 487 818 l 419 741 l 342 685 b 234 597 293 648 257 618 b 231 594 232 595 231 594 z "},"c":{"ha":667,"x_min":0,"x_max":0,"o":"m 2 474 l 71 705 l 70 705 b 24 602 59 705 44 670 b 1 484 9 547 1 508 b 2 474 1 479 1 476 z m 330 -119 b 444 -102 372 -119 410 -113 b 526 -60 477 -92 505 -77 b 572 -12 548 -41 564 -26 b 585 12 581 3 585 11 b 452 -88 556 -33 511 -66 b 328 -110 412 -103 370 -110 b 229 -98 306 -110 273 -106 b 96 -3 185 -91 141 -59 b 79 20 85 11 79 18 l 83 19 b 96 14 87 16 92 14 b 101 16 98 14 99 15 l 102 8 b 105 11 103 9 104 11 b 106 10 105 11 106 11 b 107 8 106 9 107 9 l 106 5 b 140 -18 106 2 117 -6 b 197 -65 177 -38 196 -54 b 269 -75 198 -71 222 -75 b 329 -73 289 -75 309 -74 b 379 -71 349 -72 366 -71 l 400 -68 b 469 -7 412 -49 435 -28 b 550 60 502 14 528 36 b 559 75 550 61 553 66 b 582 107 566 84 573 95 b 606 140 590 119 598 130 b 621 161 613 151 618 157 l 621 161 b 628 174 623 161 626 165 b 627 179 628 178 627 179 b 610 163 624 178 618 173 b 587 143 598 151 591 144 l 600 160 b 667 298 645 218 667 264 b 652 344 667 315 663 330 b 593 380 635 362 616 374 l 581 382 b 583 380 582 382 583 381 b 533 350 583 376 566 366 b 470 309 491 331 470 317 b 413 243 470 288 451 267 b 357 216 383 224 365 216 b 357 216 357 216 357 216 b 332 211 345 214 337 212 b 321 208 328 209 324 208 b 296 227 317 208 309 214 b 288 267 291 233 288 247 b 294 345 288 292 290 318 b 372 557 305 431 331 503 b 437 633 402 596 424 622 l 442 639 b 411 614 439 639 428 631 b 303 439 361 568 326 510 b 301 435 302 436 301 435 l 307 465 b 329 553 315 502 323 531 b 347 596 337 581 343 596 l 347 595 b 363 642 350 608 355 624 l 374 669 l 373 668 b 380 685 373 669 376 675 b 404 729 385 695 393 710 b 438 787 414 748 426 768 b 472 833 451 806 463 821 b 496 850 482 844 490 850 b 507 822 503 850 507 840 l 507 809 b 504 770 505 791 504 777 b 505 758 504 762 505 758 b 514 801 507 758 509 772 l 515 811 b 520 799 519 808 520 804 b 507 752 520 791 515 775 b 507 750 507 751 507 750 b 521 764 508 750 513 755 b 518 745 519 758 518 751 b 530 722 518 734 522 726 b 562 714 539 716 549 714 b 596 746 572 714 583 724 l 602 755 b 604 752 603 755 604 754 l 605 745 b 607 748 605 745 606 746 b 616 769 610 762 613 768 b 617 768 616 769 617 768 l 620 781 l 622 750 b 627 739 623 743 625 739 b 634 754 629 739 631 744 b 656 895 649 808 656 854 b 631 1007 656 940 648 977 b 502 1084 602 1059 558 1084 b 437 1079 495 1084 473 1082 b 273 949 399 1076 345 1033 l 258 933 b 378 1109 279 992 319 1050 b 210 939 315 1076 260 1019 b 85 683 160 859 119 774 b 13 448 51 593 27 515 b 0 366 4 409 0 381 b 6 349 0 355 2 349 b 16 170 10 247 14 186 l 18 163 b 45 76 20 147 29 118 b 127 -46 61 34 88 -7 b 294 -117 166 -85 222 -109 b 330 -119 307 -118 319 -119 z m 388 237 b 398 246 389 237 392 240 b 404 255 402 250 404 254 b 404 256 404 255 404 256 b 401 254 403 256 402 255 b 396 251 400 254 398 252 b 391 246 395 250 393 248 b 387 241 389 244 388 242 l 385 239 b 386 237 385 238 385 237 z m 627 188 l 632 189 b 640 196 637 190 640 193 b 640 201 640 199 640 200 l 638 201 b 635 198 637 201 636 200 l 633 195 z "},"d":{"ha":953,"x_min":0,"x_max":0,"o":"m 257 -43 l 280 -39 b 445 -3 346 -28 401 -16 l 448 -4 b 446 -6 446 -4 446 -5 b 448 -7 446 -7 446 -7 b 494 12 452 -7 467 -1 b 628 87 552 38 597 63 l 629 87 b 687 135 637 87 656 103 b 731 182 711 159 726 175 b 734 184 733 183 734 184 b 661 87 734 182 710 150 l 602 14 l 605 14 b 642 46 612 14 624 24 b 781 244 679 90 725 156 b 850 368 827 318 850 359 b 849 368 850 368 850 368 l 848 368 l 848 372 b 863 405 850 372 854 382 b 886 466 877 446 884 466 b 914 616 905 466 914 516 l 913 663 l 909 750 b 878 838 909 768 899 798 b 850 918 862 868 852 895 b 778 1016 848 947 825 980 b 590 1104 731 1052 669 1082 b 410 1125 534 1118 473 1125 b 307 1119 376 1125 342 1123 b 5 1013 205 1110 105 1075 b 0 1009 1 1011 0 1010 l 1 1009 b 66 1036 5 1009 26 1018 l 96 1049 b 342 1109 189 1082 272 1103 b 443 1114 380 1112 414 1114 b 506 1110 467 1114 488 1113 b 557 1102 540 1105 557 1103 b 556 1101 557 1101 556 1101 b 422 1109 517 1107 473 1109 b 306 1074 372 1109 334 1097 l 284 1062 b 187 1008 250 1043 218 1025 b 177 994 185 1003 182 998 b 165 970 169 985 165 977 b 176 952 165 965 169 959 b 178 949 178 951 178 950 b 172 939 178 947 176 945 b 157 914 162 931 157 922 b 160 902 157 911 158 907 b 163 884 161 898 162 892 b 171 858 164 867 167 859 b 183 851 176 857 180 854 b 189 848 185 849 187 848 b 201 864 192 848 196 853 b 204 865 202 865 203 865 b 214 853 206 865 210 861 b 226 840 220 845 224 840 b 229 835 228 838 229 837 l 252 853 l 258 855 b 220 767 253 850 240 821 b 147 553 199 712 175 641 b 78 301 119 465 96 381 b 60 168 66 247 60 203 b 65 123 60 151 62 136 b 73 102 68 109 71 102 b 75 117 74 102 75 107 l 75 131 b 122 426 75 220 90 319 b 133 451 127 443 131 451 b 135 444 134 451 135 449 b 132 420 135 438 134 430 b 123 398 130 406 126 398 b 130 378 127 394 130 387 b 123 335 130 369 127 355 b 120 316 121 328 121 321 b 113 288 117 316 115 307 b 106 170 109 253 106 214 b 109 113 106 138 108 120 b 111 104 110 111 111 108 b 94 77 111 96 105 87 b 77 54 85 71 80 63 l 94 57 b 106 62 100 60 104 62 b 107 62 107 62 107 62 b 96 48 107 60 104 56 b 77 25 83 35 77 28 b 81 23 77 24 78 23 b 105 19 97 23 105 22 b 99 11 105 17 103 14 b 89 -3 92 5 89 1 b 96 -13 89 -6 92 -9 b 213 -41 100 -16 140 -26 z m 921 433 b 932 456 925 433 929 441 b 950 610 940 488 946 539 b 953 691 952 641 953 668 b 952 701 953 698 953 701 b 945 633 951 701 949 678 b 937 578 945 625 941 606 b 926 518 932 559 929 539 b 916 445 919 479 916 454 b 918 435 916 440 916 437 b 921 433 919 434 920 433 z m 317 183 b 313 189 316 183 315 185 b 308 220 310 196 308 206 b 315 241 308 230 310 237 b 372 443 319 247 338 314 b 414 641 400 550 414 616 b 412 650 414 646 414 648 b 410 654 410 651 410 652 b 417 673 410 658 412 664 b 445 776 435 705 445 740 b 454 825 445 787 448 804 l 463 854 b 498 907 466 887 477 905 b 510 908 502 908 506 908 b 567 891 527 908 546 903 b 616 855 587 880 604 868 b 665 792 627 844 643 823 l 691 752 b 692 732 692 747 692 741 b 703 679 692 705 695 688 b 709 654 707 673 709 665 b 672 534 709 633 697 593 b 651 472 658 500 651 479 b 652 467 651 470 652 469 b 653 462 652 465 653 464 b 627 416 653 452 644 437 b 475 276 601 387 550 340 b 429 237 452 256 437 243 b 399 211 413 220 403 211 b 397 213 397 211 397 212 b 416 256 397 220 404 234 b 455 314 433 286 446 306 b 509 478 469 334 488 388 b 519 510 516 496 519 506 b 519 511 519 511 519 511 l 519 510 b 465 374 504 469 486 423 b 396 243 444 323 421 280 b 319 184 372 206 346 186 b 317 183 319 184 318 183 z "},"e":{"ha":677,"x_min":0,"x_max":0,"o":"m 251 -10 b 374 9 299 -10 340 -3 b 444 26 396 16 419 22 b 492 37 476 31 492 35 b 475 38 492 37 486 38 l 439 37 b 463 43 439 38 448 40 b 500 56 488 50 500 54 b 559 90 519 61 539 72 b 577 112 571 101 577 109 l 576 112 b 549 103 563 106 554 103 b 545 104 547 103 546 104 b 547 109 545 106 546 108 l 555 117 b 590 149 555 126 566 137 b 612 165 604 155 612 160 b 582 182 612 172 602 177 b 601 195 595 186 601 191 b 591 203 601 197 597 200 b 511 182 548 189 522 182 b 509 182 510 182 509 182 l 518 189 l 568 207 b 604 227 568 218 581 224 l 578 225 b 536 216 576 219 562 216 l 537 221 l 541 220 b 555 225 545 220 549 222 b 566 230 561 229 564 230 b 585 232 578 231 585 231 b 568 233 585 233 579 233 b 530 238 548 237 535 238 b 522 235 524 238 522 237 b 484 244 517 241 505 244 b 389 239 458 244 426 242 b 310 234 358 235 332 234 b 287 235 301 234 294 234 l 281 230 b 281 228 281 229 281 228 b 254 328 279 228 269 261 b 252 330 253 329 252 329 b 262 336 252 331 256 333 b 339 359 281 344 307 352 b 396 370 371 367 390 370 b 399 370 397 370 399 370 b 414 368 404 368 408 368 b 511 393 433 368 466 376 b 600 427 567 415 597 427 b 644 448 629 433 644 439 b 629 462 644 452 640 456 l 616 470 b 620 471 616 471 617 471 b 644 467 628 469 636 468 b 668 471 654 467 662 469 b 670 473 669 471 670 472 b 650 486 670 475 663 479 b 669 488 663 486 669 486 b 655 494 668 490 663 492 b 590 504 635 499 614 502 b 592 505 590 505 591 505 b 600 507 593 505 595 506 b 612 507 604 507 608 507 b 633 504 624 507 631 506 b 652 498 641 501 648 499 b 657 498 654 498 656 498 b 672 535 667 498 672 510 b 669 553 672 547 671 553 l 669 553 b 629 571 648 562 635 568 b 615 584 620 577 615 581 b 633 589 615 587 621 589 b 640 590 637 589 640 589 b 635 593 640 591 639 592 b 588 611 604 601 588 607 b 617 618 588 614 597 616 b 673 624 636 621 654 622 b 661 625 673 625 669 625 b 441 640 526 625 453 630 l 386 634 b 373 631 381 632 377 631 b 372 633 372 631 372 631 b 287 625 330 627 302 625 b 262 634 271 625 262 628 b 283 656 262 639 269 646 b 304 774 290 710 298 749 b 335 822 311 798 321 814 b 399 843 349 830 370 837 b 448 855 413 846 429 850 b 443 859 445 857 443 858 b 487 869 443 863 458 865 b 485 867 486 868 485 867 b 492 869 488 867 491 867 b 539 888 499 880 515 886 b 567 888 548 888 557 888 b 693 871 608 882 650 877 l 730 870 b 612 895 652 878 612 886 b 614 900 613 897 613 898 b 632 907 614 901 620 904 b 708 920 656 915 682 919 b 734 940 726 922 734 928 b 726 967 734 947 732 956 b 749 945 738 953 745 945 b 761 959 753 945 758 950 b 775 972 765 968 770 972 l 776 981 b 771 1009 776 988 774 998 b 774 1013 773 1010 774 1011 b 703 1072 774 1034 750 1053 b 555 1093 665 1086 615 1093 b 475 1089 531 1093 505 1091 b 473 1088 475 1088 475 1088 b 467 1086 471 1087 469 1087 b 459 1086 464 1086 461 1086 b 454 1088 457 1086 455 1086 b 439 1093 451 1091 446 1093 b 319 1051 420 1093 381 1079 b 200 1009 258 1023 218 1009 b 191 1010 197 1009 193 1010 b 485 1114 328 1074 426 1108 l 486 1114 b 484 1115 486 1115 486 1115 b 412 1107 476 1115 452 1112 b 220 1038 371 1101 307 1078 b 130 968 185 1017 155 994 b 90 938 111 948 97 938 b 83 940 87 939 85 940 b 67 909 73 940 67 930 b 68 903 67 906 67 904 l 68 903 b 57 894 68 899 64 896 b 41 877 50 892 44 886 b 37 825 39 869 37 852 b 50 807 37 817 41 812 l 62 800 b 81 753 75 779 81 764 b 73 719 81 741 79 730 b 54 620 60 690 54 656 b 35 508 54 596 48 559 l 16 437 b 14 446 15 439 14 441 b 37 633 14 465 22 527 b 25 666 33 655 28 666 b 9 582 19 666 14 638 b 0 358 3 509 0 435 b 4 286 0 310 1 286 l 12 191 b 12 189 12 191 12 190 b 35 127 12 181 20 160 l 52 92 b 42 117 48 103 45 111 b 37 142 39 122 37 130 b 37 153 37 147 37 151 l 39 159 b 38 155 38 157 38 156 b 44 131 38 149 40 141 b 71 79 49 118 58 100 b 237 -10 102 32 158 2 z m 296 -35 b 344 -28 328 -33 344 -31 l 344 -28 b 211 -17 297 -26 253 -23 b 70 15 169 -11 122 -1 b 69 13 69 14 69 14 b 90 -1 69 9 76 5 b 149 -20 104 -7 124 -14 b 220 -34 173 -26 197 -31 b 267 -35 226 -35 241 -35 z "},"f":{"ha":680,"x_min":0,"x_max":0,"o":"m 159 -1 b 173 0 161 -1 165 -1 b 206 13 180 1 191 5 b 264 118 243 33 262 68 b 239 221 264 146 256 181 l 240 229 l 243 238 b 243 237 243 238 243 237 b 256 181 248 199 253 181 b 265 221 260 181 263 195 l 269 309 b 273 330 269 319 271 326 b 298 341 277 336 286 339 l 367 360 b 608 430 450 382 531 406 b 707 470 674 451 707 464 b 695 474 707 472 703 473 l 692 474 b 693 475 692 475 692 475 b 700 477 694 475 696 476 b 711 479 703 477 707 478 b 719 480 714 479 717 479 b 723 481 721 481 722 481 l 724 483 b 718 482 722 482 720 482 b 714 484 715 482 714 483 b 720 488 714 484 716 486 b 730 492 724 490 728 491 b 732 493 731 492 732 492 b 721 500 726 495 723 498 b 718 511 719 503 718 506 b 727 523 718 513 721 517 l 736 529 b 715 535 722 529 715 531 b 732 550 715 538 721 543 l 735 553 b 716 574 730 567 724 574 b 707 573 713 574 709 574 l 712 576 b 716 578 715 576 716 576 b 701 587 716 583 711 585 b 659 603 691 587 677 593 b 686 597 671 600 681 597 b 694 598 692 597 694 597 l 694 599 b 679 614 694 601 689 606 l 662 624 b 656 623 661 623 659 623 b 622 631 648 623 637 625 l 602 639 b 580 637 601 638 593 637 b 471 640 563 637 527 638 b 433 637 453 640 440 639 l 385 629 b 357 628 373 629 363 628 b 349 629 351 628 349 628 b 497 648 383 635 433 642 b 594 662 559 654 591 659 b 509 653 576 659 547 656 b 323 627 424 647 361 638 l 336 741 l 336 746 b 399 795 336 763 357 780 b 557 838 440 811 493 825 b 732 867 620 850 678 860 b 829 880 785 875 817 879 b 868 892 842 881 854 885 b 900 914 881 899 892 907 b 909 928 906 920 909 924 b 908 930 909 928 909 930 b 888 951 895 941 888 948 b 895 955 888 954 890 955 b 921 949 901 955 909 953 b 913 985 921 967 918 979 b 892 999 908 991 901 996 b 857 1027 882 1002 869 1012 l 890 1011 b 899 1014 896 1011 899 1012 b 859 1046 899 1019 886 1029 b 818 1077 842 1057 828 1067 b 773 1093 809 1084 794 1089 b 667 1097 748 1096 713 1097 b 645 1093 652 1097 645 1096 b 646 1091 645 1093 646 1092 b 648 1090 647 1090 647 1090 b 652 1087 648 1089 650 1088 b 446 1076 524 1080 455 1076 l 420 1072 b 380 1066 401 1068 388 1066 b 565 1109 441 1083 503 1098 b 721 1136 627 1121 678 1130 l 785 1145 b 767 1147 782 1147 776 1147 b 536 1113 726 1147 649 1136 b 337 1064 469 1099 403 1082 b 108 1004 195 1024 119 1004 b 105 1004 106 1004 106 1004 b 66 975 104 1000 91 989 l 26 952 b 38 941 34 947 38 944 b 10 930 38 937 28 933 b -36 914 -5 926 -21 922 b -56 876 -49 907 -56 895 b -43 872 -55 873 -51 872 b -5 879 -33 872 -20 874 l 22 886 b -33 865 17 883 -1 876 b -52 857 -45 861 -52 858 l -14 865 b -18 864 -15 865 -16 865 b -26 861 -20 863 -23 862 b -35 857 -30 859 -33 858 b -39 852 -37 855 -39 854 b -35 850 -39 852 -38 850 b -61 836 -46 846 -55 842 b -71 817 -67 829 -71 823 b -57 808 -71 812 -66 808 l -52 817 b -50 810 -50 815 -50 812 b -56 794 -50 805 -52 800 l -64 785 b -31 794 -46 791 -35 794 b -28 793 -29 794 -28 794 b -41 779 -28 788 -33 783 l -54 772 b -47 767 -54 770 -52 769 b -33 760 -43 765 -39 763 b 1 741 -12 752 0 745 l 15 738 b 71 732 31 734 50 732 l 84 732 b 87 724 86 732 87 730 b 65 603 87 705 80 664 b 50 522 55 556 50 530 l 40 534 b 43 496 42 520 43 508 b 33 454 43 469 39 455 l 32 454 b 22 487 28 454 25 465 b 19 559 20 503 19 527 l 20 605 l 14 551 b 7 404 9 506 7 457 b 58 99 7 272 24 170 b 130 22 77 66 100 41 b 148 3 142 14 148 8 b 159 -1 148 1 152 -1 z m 267 23 b 273 34 267 23 269 26 b 288 94 283 56 288 76 b 286 113 288 100 288 106 b 279 128 285 119 283 124 b 272 134 276 132 274 134 b 271 134 271 134 271 134 b 274 128 271 133 272 131 b 277 113 276 125 277 120 b 269 69 277 105 274 90 b 262 33 264 51 262 39 b 264 24 262 28 262 26 b 266 23 264 23 265 23 z "},"g":{"ha":861,"x_min":0,"x_max":0,"o":"m 671 -178 l 673 -172 l 675 -164 b 679 -174 675 -169 677 -172 b 688 -176 681 -175 684 -176 b 697 -169 694 -174 697 -172 b 691 -167 697 -168 695 -167 l 702 -165 b 758 -151 724 -162 742 -157 b 781 -127 773 -144 781 -136 b 778 -118 781 -125 780 -121 l 790 44 b 891 -140 802 16 835 -46 b 810 25 862 -65 835 -9 b 783 79 791 53 783 71 b 791 93 783 85 785 90 b 800 233 793 100 795 146 b 807 245 803 234 805 238 l 810 257 b 795 264 800 257 795 260 b 824 299 795 272 805 283 b 927 346 857 327 891 342 b 941 348 934 347 939 347 b 945 351 943 349 945 349 b 935 355 943 353 939 355 b 932 357 935 356 933 357 b 931 358 932 357 931 357 l 933 358 b 960 359 945 358 954 359 b 968 362 964 360 967 361 b 968 364 968 363 968 363 b 959 371 968 366 965 368 l 951 374 l 962 381 l 989 400 l 993 405 l 951 422 l 956 420 b 970 418 960 419 965 418 b 985 419 977 418 981 418 b 994 431 991 420 994 425 b 991 438 994 433 993 436 b 981 445 989 440 985 443 b 971 449 977 447 974 448 b 966 451 968 450 966 450 b 964 452 965 451 964 451 l 985 453 b 996 454 992 453 996 454 b 994 456 996 455 996 456 b 986 462 991 457 989 459 b 979 473 983 465 981 468 b 975 481 977 477 975 479 b 932 496 975 484 961 488 b 948 503 932 497 937 499 b 979 518 968 509 978 515 l 979 519 b 910 536 979 525 956 531 b 786 555 874 541 833 547 l 705 569 b 868 598 706 571 760 581 l 957 611 b 931 615 954 614 945 615 b 774 596 900 615 848 609 l 604 565 l 597 559 b 595 559 597 559 597 559 l 588 559 b 543 549 567 554 552 551 l 538 547 b 452 496 491 545 463 528 b 446 486 450 490 448 486 l 445 486 b 434 497 443 486 439 490 b 427 486 429 490 427 486 b 427 483 427 484 427 484 l 426 482 l 426 481 l 427 481 l 405 439 b 387 384 393 414 387 395 b 395 373 387 376 390 373 l 401 374 b 419 380 412 378 418 380 b 420 379 420 380 420 380 l 405 372 b 393 361 397 367 393 363 b 404 359 393 360 397 359 l 410 359 l 416 356 b 402 358 410 357 406 358 b 396 355 398 358 396 357 b 404 347 396 353 399 350 b 411 338 408 342 411 340 l 411 336 b 406 336 410 336 409 336 b 399 334 401 335 399 335 b 402 333 399 334 400 334 b 446 329 404 332 418 331 b 426 317 433 329 426 325 b 427 307 426 316 427 313 b 444 288 428 301 433 295 b 461 281 449 283 455 281 b 479 286 467 281 473 283 b 477 280 477 283 477 281 b 477 279 477 279 477 279 b 488 283 479 279 483 280 b 495 287 490 285 492 286 l 375 199 b 372 196 375 197 374 196 b 338 210 366 196 355 201 l 319 222 l 317 221 b 307 248 314 221 311 230 b 290 389 296 290 290 337 b 292 422 290 394 291 406 b 306 471 292 439 297 456 b 378 610 334 518 357 565 l 390 646 b 389 651 389 648 389 649 b 422 691 389 659 399 672 b 458 736 446 712 458 728 b 455 745 458 740 457 743 l 456 739 b 451 729 456 732 454 729 b 449 733 450 729 449 730 b 506 814 449 747 468 774 l 562 872 l 578 861 b 590 844 586 854 590 848 l 589 843 b 580 841 589 842 586 841 l 578 831 b 580 829 578 831 579 830 b 580 826 580 828 580 827 b 576 812 580 819 578 814 b 570 787 573 809 571 800 b 572 743 570 771 571 756 b 585 711 576 722 580 711 b 591 720 587 711 589 714 b 595 729 593 726 595 728 l 596 728 b 595 726 596 728 596 727 b 594 719 595 725 595 722 b 591 701 592 711 591 705 b 592 698 591 699 591 698 b 603 715 594 698 597 704 b 612 733 608 727 612 733 b 613 732 613 733 613 733 b 606 707 613 730 610 722 b 604 702 605 703 604 702 b 600 678 602 691 600 683 b 604 670 600 673 602 670 b 614 675 606 670 610 671 b 625 680 618 677 622 680 b 629 680 627 680 628 680 b 629 677 629 679 629 677 b 627 673 629 676 628 675 l 623 663 l 623 659 l 626 659 b 641 676 635 663 640 669 b 642 687 641 684 641 687 b 644 681 642 687 644 685 b 646 671 645 677 646 673 b 644 667 646 668 645 667 b 637 663 640 667 638 665 b 640 652 637 659 638 656 b 652 646 644 648 648 646 b 668 662 660 646 665 651 b 665 659 666 661 665 660 b 663 656 664 657 663 656 l 662 659 b 667 665 662 663 663 665 b 682 656 670 665 675 663 l 694 646 l 699 654 b 710 673 701 660 705 666 b 726 693 715 681 720 687 b 743 704 731 699 737 703 b 735 700 739 702 736 701 b 733 694 734 699 733 696 l 736 690 b 743 669 741 684 743 677 b 760 694 749 675 754 684 b 774 722 766 704 770 713 b 780 733 777 728 779 731 b 781 735 781 734 781 735 l 781 732 l 787 745 b 817 858 803 745 813 783 l 819 930 l 817 950 b 848 844 821 950 831 915 l 860 801 b 861 802 861 801 861 801 b 850 865 861 804 857 825 b 840 901 848 873 845 886 b 821 951 833 916 827 932 b 785 1059 797 1008 785 1045 b 786 1066 785 1062 785 1064 b 764 1085 786 1069 779 1076 b 725 1122 739 1099 726 1112 b 631 1158 721 1146 690 1158 b 602 1158 627 1158 617 1158 b 547 1150 586 1157 568 1155 b 515 1136 526 1145 515 1141 l 484 1125 b 510 1142 501 1133 510 1138 b 506 1145 509 1143 508 1144 b 496 1139 499 1145 496 1143 l 353 1034 b 390 1064 371 1048 384 1059 b 410 1081 396 1069 402 1075 b 428 1096 417 1087 423 1093 l 435 1103 b 415 1088 432 1101 425 1096 b 260 953 361 1044 309 1000 b 180 850 207 902 180 868 b 187 839 180 846 182 842 b 184 837 186 839 186 838 b 169 828 177 831 172 828 b 165 832 167 828 165 829 b 173 853 165 836 168 843 b 216 931 181 873 195 899 b 355 1124 239 969 286 1034 b 432 1231 406 1191 432 1226 b 431 1232 432 1232 431 1232 b 380 1187 427 1232 410 1217 b 214 935 356 1162 301 1078 b 74 669 121 783 74 694 b 64 635 74 667 71 656 b 23 505 52 602 39 558 b -18 311 -5 413 -18 349 b -1 275 -18 288 -12 275 l 1 275 b -1 277 0 275 0 276 b -3 279 -1 277 -2 278 b -4 281 -3 279 -4 280 b 5 283 -4 282 -1 283 l 5 221 b 18 157 6 180 10 159 l 31 136 l 51 101 l 54 94 l 62 83 b 85 45 77 63 85 50 b 82 43 85 43 84 43 b 62 53 79 43 73 46 b -138 190 -68 144 -135 190 l -136 187 b -16 100 -130 181 -90 152 b 104 23 58 49 98 23 l 110 24 b 142 -5 119 24 130 14 b 172 -32 153 -23 163 -32 b 184 -28 176 -32 180 -31 l 184 -28 b 207 -50 184 -33 191 -40 b 273 -73 229 -66 251 -73 b 336 -66 296 -73 316 -71 b 385 -51 355 -61 372 -56 l 404 -43 b 379 -41 387 -43 379 -43 b 412 -31 379 -39 390 -36 l 435 -27 l 424 -30 l 420 -39 b 267 -142 367 -92 316 -127 b 224 -148 256 -146 241 -148 b 178 -127 211 -148 196 -141 l 183 -134 b 202 -144 189 -136 195 -139 b 233 -151 209 -149 219 -151 b 249 -150 238 -151 243 -151 b 293 -136 259 -146 273 -142 b 467 -20 343 -121 401 -82 b 505 10 490 0 503 10 b 509 -3 508 10 509 6 b 546 -69 509 -26 522 -49 l 544 -68 b 543 -70 543 -68 543 -69 b 551 -75 543 -71 545 -73 l 555 -87 b 600 -140 571 -123 586 -140 z "},"h":{"ha":949,"x_min":0,"x_max":0,"o":"m 928 1062 b 936 1078 933 1069 936 1074 b 935 1081 936 1080 935 1081 b 928 1069 931 1081 929 1077 z m 692 -134 l 698 -129 b 708 -118 702 -125 705 -121 b 713 -114 710 -115 712 -114 l 713 -115 b 718 -123 713 -120 715 -123 l 722 -123 b 749 -103 728 -121 738 -115 b 762 -85 758 -96 762 -90 b 761 -84 762 -85 762 -84 b 774 -66 767 -78 772 -72 l 775 -62 l 774 -61 b 769 -62 772 -61 771 -62 l 770 -45 b 770 -1 770 -33 770 -18 b 772 50 771 16 772 33 b 776 92 773 67 774 81 b 780 109 777 104 778 109 b 785 61 782 108 784 92 b 786 38 785 52 785 45 l 789 24 b 798 63 791 24 793 37 b 829 -30 800 40 811 9 b 852 -74 843 -59 850 -74 l 832 -26 b 804 129 814 18 804 70 b 827 312 804 169 812 230 b 914 603 842 394 871 491 b 1031 863 957 715 996 801 b 1058 894 1044 884 1053 894 l 1061 892 b 1066 875 1063 892 1065 886 l 1065 857 b 1067 884 1067 867 1067 877 b 1060 907 1067 899 1065 907 b 1049 901 1059 907 1055 905 b 1013 842 1043 897 1031 877 b 904 595 981 780 945 698 l 874 513 l 878 528 l 924 689 b 985 911 964 832 985 907 b 984 912 985 912 985 912 l 974 890 b 966 877 970 881 967 877 b 966 886 966 878 966 880 b 964 899 966 895 965 899 l 972 920 l 974 911 l 975 911 b 979 914 976 911 977 912 b 989 930 983 918 986 923 l 989 935 b 983 944 987 939 985 942 l 1002 995 b 993 983 997 987 994 983 b 991 987 992 983 992 985 b 995 1008 991 990 993 997 l 999 1023 b 991 1008 995 1013 992 1008 b 988 1023 989 1008 988 1013 l 988 1044 l 962 1036 l 968 1062 b 943 1053 962 1059 954 1057 l 923 1047 l 923 1068 b 917 1085 922 1080 920 1085 b 907 1074 913 1085 911 1081 b 894 1038 899 1049 894 1038 b 896 1044 895 1040 895 1042 b 897 1050 897 1047 897 1049 b 895 1052 897 1051 896 1052 l 894 1051 b 888 1044 893 1050 891 1048 l 899 1076 l 870 1068 l 869 1069 b 833 1029 864 1069 852 1056 b 769 931 813 1003 792 970 b 713 827 745 892 727 858 b 699 787 704 808 699 795 b 704 779 699 782 701 779 b 690 747 698 777 693 767 b 680 713 688 736 684 725 b 677 707 678 709 677 707 l 676 707 l 676 712 l 669 699 b 637 619 648 659 637 632 l 637 618 b 604 610 637 615 626 612 b 429 602 581 608 522 606 l 387 601 b 358 588 387 592 377 588 b 349 595 352 588 349 590 b 475 656 349 608 391 629 b 551 684 526 672 551 682 b 549 684 551 684 550 684 b 450 656 537 684 504 675 b 351 609 397 637 364 622 b 340 603 346 605 342 603 b 336 614 337 603 336 606 b 340 640 336 621 337 629 b 351 671 344 659 348 669 l 382 787 b 357 716 377 787 369 763 b 334 650 346 672 338 650 l 432 993 l 429 1005 b 425 1031 429 1013 427 1021 b 419 1060 423 1042 421 1051 b 411 1076 416 1071 413 1076 b 407 1065 410 1076 408 1072 b 405 1060 406 1061 406 1060 b 404 1065 405 1061 405 1062 b 403 1076 404 1069 404 1072 b 399 1086 402 1080 401 1084 b 395 1090 398 1088 397 1090 b 381 1078 391 1090 387 1086 l 387 1097 l 364 1099 b 336 1104 351 1100 341 1102 l 280 1072 l 263 1056 b 224 1015 252 1046 238 1032 b 168 893 186 971 168 930 b 135 791 168 871 157 837 l 102 728 b 100 731 101 728 100 729 b 122 799 100 739 108 761 b 241 1095 153 881 192 980 b 281 1175 264 1148 278 1175 b 283 1174 282 1175 282 1175 b 283 1171 283 1173 283 1173 b 282 1160 283 1166 283 1163 b 281 1150 281 1156 281 1152 l 281 1149 l 283 1150 b 292 1174 289 1157 292 1165 b 286 1183 292 1180 290 1183 b 210 1076 271 1183 245 1147 b 89 706 186 1027 146 903 b 31 524 56 593 37 532 b 0 378 10 499 0 451 b 12 195 0 317 4 255 b 30 67 20 130 26 88 b 35 72 31 71 33 72 l 36 70 b 45 66 39 67 41 66 b 54 68 48 66 51 66 l 59 45 l 63 32 b 64 33 64 32 64 32 b 64 43 64 33 64 37 b 71 35 65 42 67 39 b 94 6 81 18 89 9 b 97 15 96 6 97 9 l 97 24 b 99 25 98 24 98 25 b 111 14 100 25 104 21 l 116 5 l 126 10 l 132 10 l 143 5 l 148 10 b 171 31 153 10 161 17 b 182 50 177 41 180 47 b 186 54 184 53 185 54 b 189 53 186 54 188 54 b 190 43 189 52 189 48 b 194 27 191 33 192 27 b 220 135 199 27 208 63 b 236 232 230 189 235 221 l 237 233 b 238 237 237 236 237 237 b 239 220 239 237 239 231 b 271 53 239 182 250 126 b 288 3 281 20 286 3 l 288 4 b 279 58 288 9 285 27 b 264 148 274 85 269 115 b 254 254 257 192 254 227 b 260 288 254 271 256 283 b 330 317 276 302 299 311 b 428 331 361 323 394 328 b 505 341 457 334 483 337 b 549 360 528 345 542 351 b 556 366 551 363 554 366 b 576 196 566 366 573 309 b 606 -72 579 52 589 -37 l 607 -68 b 608 -63 608 -66 608 -64 b 609 -62 608 -62 608 -62 b 620 -75 611 -62 614 -66 l 622 -81 b 621 -83 622 -83 622 -83 l 621 -84 l 619 -84 l 658 -112 b 656 -123 657 -117 656 -120 b 660 -128 656 -126 658 -128 l 661 -128 b 667 -124 662 -128 664 -127 l 670 -121 b 665 -119 667 -121 666 -120 b 674 -108 665 -116 668 -112 b 684 -106 676 -106 680 -106 b 692 -132 689 -107 692 -116 b 692 -134 692 -133 692 -134 z m 456 604 b 458 606 458 604 458 604 b 451 614 457 611 455 614 b 444 605 448 614 446 611 l 444 604 b 445 604 444 604 444 604 b 446 606 445 605 446 605 b 448 607 447 606 447 607 l 449 606 b 456 604 452 604 454 604 z "},"i":{"ha":609,"x_min":0,"x_max":0,"o":"m 105 292 l 97 337 b 90 392 92 368 90 387 b 89 418 90 410 90 418 b 87 387 88 417 87 407 b 105 292 87 329 93 298 z m 118 -109 b 163 -75 123 -109 138 -98 b 235 -11 207 -36 231 -14 b 313 20 244 -4 270 6 b 378 36 349 31 370 36 b 380 35 379 36 380 36 b 391 32 382 33 387 32 b 409 44 396 33 402 37 l 419 55 l 424 54 b 444 58 429 54 436 56 b 467 75 459 60 467 66 b 475 64 469 68 472 64 b 481 66 477 64 479 64 b 484 75 483 68 484 71 b 494 71 485 73 488 71 b 519 81 499 71 507 74 l 533 92 b 532 93 532 92 532 92 b 539 100 532 94 534 96 b 555 119 550 108 555 115 b 539 121 554 121 549 121 l 526 121 b 519 121 522 121 519 121 l 521 122 b 530 124 522 123 525 123 b 545 128 534 125 540 127 b 565 132 553 130 559 131 b 574 136 570 134 574 134 l 575 141 b 555 159 575 150 568 156 b 511 165 542 163 528 165 l 498 164 b 512 167 499 165 504 166 b 568 172 549 169 568 170 l 505 172 b 531 175 506 173 515 174 b 559 179 549 176 558 178 b 560 183 559 180 560 182 b 556 189 560 186 559 188 b 550 198 552 191 550 194 b 566 208 550 203 555 207 b 568 209 566 208 567 209 l 561 209 b 569 220 566 214 568 218 b 565 222 569 221 568 222 l 547 221 b 537 224 541 221 537 222 b 524 256 537 238 533 248 b 443 279 509 266 482 273 b 380 298 408 284 387 290 b 378 311 378 301 378 306 b 394 381 378 325 383 348 b 443 506 405 415 421 456 b 505 639 465 555 485 600 b 548 713 526 679 540 703 b 559 719 552 717 555 719 b 566 717 562 718 565 718 l 569 717 l 568 720 b 556 726 564 724 560 726 b 432 512 533 726 492 654 b 418 486 425 494 420 486 b 418 487 418 486 418 486 b 421 500 418 489 419 494 b 432 513 425 509 428 513 l 431 519 b 428 532 429 523 429 527 b 429 551 428 541 428 547 b 448 577 430 564 436 572 b 448 579 448 577 448 578 b 464 637 448 585 453 604 b 487 724 479 688 487 717 b 549 836 487 778 508 815 b 572 844 551 839 559 842 b 659 852 599 850 627 852 b 676 850 671 852 676 851 b 678 852 677 850 678 850 b 686 859 682 854 684 857 b 690 871 688 861 690 865 b 688 865 688 867 688 865 b 686 863 687 864 687 863 l 687 869 b 694 886 689 880 692 886 b 696 882 695 886 696 884 l 701 891 b 701 883 701 888 701 886 b 703 882 701 882 702 882 b 707 883 704 882 705 882 b 713 884 709 884 711 884 b 720 882 716 884 718 884 b 722 890 721 884 722 887 b 713 897 721 892 718 895 l 713 897 b 728 926 722 897 726 907 b 733 943 728 937 729 943 l 724 951 l 716 958 l 716 960 l 719 962 l 716 977 b 686 1018 710 998 701 1012 b 598 1035 671 1025 642 1030 l 587 1036 l 590 1036 b 623 1042 612 1036 623 1038 b 621 1045 623 1043 622 1044 b 570 1054 613 1051 596 1054 b 441 1057 519 1054 477 1055 l 408 1059 l 281 1022 b 415 1099 296 1035 340 1060 l 528 1154 b 506 1159 521 1158 514 1159 b 317 1053 473 1159 410 1124 b 196 977 264 1012 224 987 l 142 917 b 87 848 107 878 89 854 b 83 819 84 836 83 826 b 83 807 83 817 83 812 b 87 794 84 802 85 798 b 90 785 89 791 90 788 b 87 774 90 782 89 779 b 86 768 87 772 86 770 b 90 759 86 765 87 762 b 103 751 93 755 98 753 b 125 746 111 747 119 746 l 131 747 b 125 753 131 749 129 751 l 132 755 b 144 757 136 756 140 757 b 142 755 144 757 143 756 b 124 740 130 747 124 741 b 125 739 124 740 124 739 b 132 741 127 739 130 740 b 143 743 135 743 139 743 b 146 740 145 743 146 742 b 145 734 146 739 146 736 b 143 730 144 733 144 731 b 142 724 142 728 142 726 l 142 724 l 207 732 b 203 740 205 736 203 739 l 205 740 b 220 723 208 740 212 734 b 223 709 222 720 223 715 b 214 705 223 707 220 705 l 212 705 b 204 707 212 707 209 707 b 197 696 199 705 197 702 b 199 688 197 692 198 690 b 201 684 201 686 201 685 b 190 655 199 684 195 675 b 164 593 180 621 171 601 b 138 508 154 581 145 553 b 122 336 127 449 122 391 b 129 266 122 305 124 281 b 131 252 130 261 131 256 b 117 209 131 239 126 225 b 81 159 109 192 96 176 b 41 126 65 143 52 132 l 21 100 b 14 85 16 93 14 88 b 14 84 14 85 14 84 b 28 86 20 84 24 85 b 30 87 28 87 29 87 b 31 86 30 87 31 87 b 3 59 31 85 21 75 b 0 52 1 57 0 54 b 6 51 1 52 3 51 b 5 42 5 51 5 48 b 8 33 5 39 6 36 b 12 23 9 29 11 26 b 8 14 12 20 10 17 l 7 12 b 18 14 9 12 13 12 b 30 18 24 17 28 18 b 31 18 31 18 31 18 b 32 16 32 17 32 17 b 13 -5 32 14 26 7 b 37 -16 20 -12 28 -16 b 52 -13 42 -16 47 -15 l 62 -7 b 55 -13 60 -9 58 -12 b 45 -18 52 -15 49 -16 b 39 -22 42 -20 40 -21 b 39 -23 39 -22 39 -23 b 68 -28 39 -25 48 -26 b 83 -30 77 -28 81 -28 l 73 -29 b 64 -43 67 -32 64 -37 l 122 -40 l 125 -38 l 126 -38 b 127 -41 126 -39 126 -40 b 130 -42 128 -41 129 -42 b 134 -43 131 -43 132 -43 l 159 -30 b 191 -16 176 -22 186 -17 b 193 -17 193 -16 193 -16 b 190 -20 193 -18 192 -18 b 187 -25 188 -23 187 -24 l 187 -26 l 189 -26 b 193 -24 190 -26 191 -25 b 199 -22 195 -24 197 -22 b 205 -19 201 -20 203 -20 l 207 -18 l 191 -29 b 157 -55 181 -36 170 -45 b 115 -104 129 -78 115 -94 b 117 -108 115 -105 115 -107 z "},"j":{"ha":825,"x_min":0,"x_max":0,"o":"m 273 174 l 272 175 b 269 179 272 176 271 177 b 233 264 247 201 235 229 b 229 300 233 288 231 300 b 228 284 228 300 228 294 b 233 233 228 267 229 249 b 270 175 239 201 252 182 z m 337 -123 l 456 -90 b 461 -92 458 -92 459 -92 b 590 7 475 -92 518 -59 b 636 46 618 32 634 45 l 694 138 b 908 588 802 312 873 463 b 923 659 918 628 923 651 b 922 661 923 661 923 661 b 877 550 920 661 905 624 b 779 319 829 420 796 343 b 791 373 779 327 783 345 b 819 427 800 405 809 423 b 816 436 817 428 816 431 b 838 550 816 450 823 488 b 876 755 863 650 876 719 b 868 790 876 771 873 783 b 854 823 859 800 854 810 b 862 858 854 836 857 847 b 885 884 870 876 878 884 b 891 880 887 884 889 883 b 896 886 892 883 894 886 l 899 884 b 912 876 901 879 905 876 b 922 877 913 876 917 876 b 945 886 926 878 934 880 b 978 904 956 891 967 897 b 1004 922 988 911 997 917 l 1015 930 b 999 925 1008 926 1002 925 b 994 928 996 925 994 926 b 996 935 994 930 994 932 b 999 940 997 937 998 939 b 1001 943 1000 941 1000 942 b 1000 943 1001 943 1001 943 l 983 935 l 1002 949 b 1015 966 1010 956 1015 962 b 1005 973 1015 970 1011 972 b 994 976 998 974 994 975 b 991 977 992 977 991 977 b 1015 985 991 979 999 982 l 1029 988 l 1007 991 b 1000 989 1002 991 1000 991 l 1000 988 b 998 989 999 988 998 989 b 992 998 997 990 995 994 l 991 1002 l 992 1000 b 1002 995 996 997 998 995 b 1017 1005 1007 995 1013 998 b 1023 1019 1021 1010 1022 1015 b 1017 1027 1023 1024 1021 1027 b 996 1020 1012 1027 1004 1025 b 988 1016 992 1018 989 1017 b 987 1017 987 1016 987 1016 b 996 1029 987 1017 989 1021 l 1002 1036 b 998 1038 1001 1037 1000 1038 b 989 1035 996 1038 993 1037 b 979 1029 986 1033 982 1031 b 970 1024 975 1026 972 1025 l 970 1025 b 973 1031 970 1025 971 1027 b 974 1033 974 1031 974 1032 b 922 1068 974 1041 957 1053 b 862 1086 896 1080 876 1086 b 852 1083 857 1086 854 1085 b 833 1078 847 1080 841 1078 b 768 1097 820 1078 798 1084 b 754 1101 759 1098 754 1100 l 754 1102 b 756 1110 755 1104 756 1107 b 749 1115 756 1114 753 1115 b 739 1114 746 1115 743 1114 b 677 1118 728 1114 707 1115 b 618 1124 641 1121 621 1123 b 614 1128 616 1126 614 1127 l 614 1128 b 784 1145 633 1139 690 1145 b 911 1142 821 1145 863 1144 b 781 1152 867 1148 824 1152 b 590 1130 707 1152 643 1144 b 546 1122 574 1125 560 1122 b 447 1095 524 1122 491 1113 b 330 1029 403 1076 364 1054 b 281 960 297 1005 281 982 b 301 979 294 973 300 979 b 302 979 302 979 302 979 b 300 975 302 978 301 977 b 283 951 295 969 290 961 b 276 934 279 943 276 937 b 281 931 276 932 278 931 b 271 912 274 925 271 919 b 273 904 271 908 271 905 l 275 903 b 297 916 286 911 294 916 b 299 914 298 916 299 916 b 292 892 299 911 296 903 b 288 884 290 887 288 884 b 313 868 288 873 296 868 l 319 868 b 315 859 317 865 315 862 b 318 852 315 857 316 855 b 329 844 320 850 323 847 b 347 838 334 842 340 840 b 362 836 353 837 357 836 l 369 835 l 403 838 b 490 849 425 839 454 843 b 602 877 525 855 562 864 b 619 880 608 879 614 880 b 644 842 635 880 644 867 b 625 745 644 822 637 790 b 611 677 616 709 611 687 b 613 667 611 673 612 669 b 615 656 614 664 615 661 b 601 607 615 646 610 629 b 512 452 583 566 553 514 l 492 418 b 515 446 493 418 501 428 b 545 492 523 456 532 471 b 585 551 568 531 582 551 l 586 551 b 587 548 587 551 587 550 b 578 515 587 543 584 532 l 505 327 b 506 326 506 327 506 327 b 424 224 506 320 479 286 b 390 185 410 208 399 195 b 376 170 380 175 376 170 b 367 163 375 169 372 167 b 357 158 361 160 358 158 l 307 150 b 258 146 290 147 274 146 b 214 163 229 146 214 152 b 210 168 214 164 213 165 b 159 220 176 197 159 214 b 160 222 159 221 159 222 b 175 232 170 227 174 230 l 175 233 b 153 242 175 236 168 239 b 133 248 141 244 135 246 l 133 249 b 155 260 133 252 140 256 b 170 267 165 264 170 266 l 165 267 l 160 267 b 142 264 152 265 146 264 l 140 264 b 157 282 151 272 157 278 b 140 289 157 287 151 289 b 121 288 134 289 127 289 b 104 287 114 288 109 288 l 97 286 l 119 297 b 88 293 109 297 98 296 b 57 281 68 287 58 283 b 62 285 57 282 58 283 b 79 295 65 287 71 290 l 82 297 l 73 295 b 22 277 48 288 31 282 b -19 233 3 268 -10 253 b -29 222 -22 226 -26 222 b -28 218 -28 222 -28 220 b -33 208 -28 216 -30 212 l -39 201 l -37 197 l -42 177 b -48 169 -46 177 -48 174 b -19 96 -48 158 -39 134 l 5 52 b 72 -26 5 41 27 15 b 109 -67 97 -50 109 -64 l 109 -68 b 35 -41 93 -68 68 -60 b -28 12 5 -26 -16 -8 b -45 44 -39 27 -45 38 b -43 47 -45 46 -44 47 b -36 43 -41 47 -39 45 l -24 34 b -24 35 -24 34 -24 34 l -30 41 l -39 49 b -53 56 -45 54 -50 56 b -56 52 -55 56 -56 54 b -49 31 -56 48 -54 41 b 27 -46 -29 -6 -3 -32 b 110 -76 58 -61 85 -71 l 113 -77 b 148 -94 136 -82 148 -88 l 148 -95 b 167 -102 148 -98 154 -100 b 271 -117 191 -108 226 -113 z "},"k":{"ha":1096,"x_min":0,"x_max":0,"o":"m 59 -35 b 60 -34 60 -35 60 -35 b 37 -4 60 -32 52 -22 b -26 77 8 28 -13 55 l -26 76 b 57 -35 -21 22 7 -15 z m 153 -38 b 172 -30 156 -38 163 -35 l 188 -21 l 218 68 l 222 60 b 233 115 225 60 229 79 b 237 170 235 143 237 161 l 245 183 b 250 208 246 189 248 198 b 256 239 252 218 254 229 b 268 263 259 255 263 263 b 275 257 270 263 273 261 b 308 215 283 244 294 230 b 295 260 299 234 295 249 b 296 264 295 263 295 264 b 300 243 298 264 299 257 l 306 253 b 328 229 307 251 314 243 b 382 179 342 214 361 197 b 493 107 435 132 472 109 l 515 98 b 669 51 584 66 635 51 l 680 52 b 892 60 702 56 773 58 b 987 82 933 68 964 75 b 1050 119 1012 90 1033 102 b 1049 119 1050 119 1050 119 b 1044 120 1046 119 1044 119 b 1027 125 1038 123 1032 125 l 1069 153 b 1096 189 1084 157 1094 168 b 1095 215 1096 199 1095 208 l 1088 242 l 1088 248 l 1052 297 b 1036 277 1047 284 1042 277 b 1029 288 1032 277 1030 281 b 1025 299 1029 296 1027 299 b 1009 283 1023 299 1017 294 b 1006 281 1008 282 1007 281 b 1004 283 1006 281 1005 282 b 1003 291 1004 283 1003 286 b 1015 298 1006 291 1010 294 l 950 311 b 920 319 930 314 920 317 l 920 319 b 947 332 928 321 937 326 b 1003 372 966 344 985 357 l 1018 383 b 1011 378 1017 383 1015 382 b 913 334 983 357 951 342 b 764 317 867 322 818 317 l 755 317 l 751 331 b 736 323 748 326 743 323 b 680 345 726 323 707 330 b 631 366 664 352 648 359 b 583 376 614 373 599 376 b 550 393 561 376 550 382 b 572 431 550 404 557 417 l 591 450 b 667 525 595 460 621 485 b 753 606 697 552 726 579 b 794 661 781 632 794 650 b 813 707 794 671 800 687 b 859 777 826 728 841 751 b 922 873 882 808 903 841 b 956 956 942 905 953 932 b 949 949 953 951 950 949 b 946 954 947 949 946 951 b 947 962 946 956 947 959 b 951 977 948 966 949 970 b 955 992 952 983 954 988 b 957 999 956 996 957 998 b 943 968 956 999 952 989 b 939 958 941 962 939 959 b 941 970 939 961 939 965 b 947 998 945 983 947 993 b 946 1001 947 1000 947 1001 b 944 1000 945 1001 945 1000 b 930 989 937 993 932 989 b 929 991 930 989 929 990 b 937 1009 929 995 932 1000 l 944 1021 b 946 1027 945 1025 946 1027 b 946 1029 946 1028 946 1029 b 945 1029 945 1029 945 1029 b 938 1024 944 1029 942 1027 b 930 1019 934 1021 931 1019 b 935 1031 930 1021 932 1025 b 937 1039 936 1034 937 1037 b 920 1059 937 1052 931 1059 b 899 1044 913 1059 906 1055 l 899 1048 b 888 1074 899 1065 896 1074 b 882 1073 885 1074 883 1074 b 878 1071 880 1072 879 1071 b 877 1072 878 1071 878 1071 b 870 1072 876 1072 873 1072 l 855 1069 b 831 1063 840 1065 831 1063 l 831 1063 b 771 1017 819 1063 800 1048 b 741 978 758 1002 747 989 b 632 859 725 949 688 909 l 549 788 b 627 933 586 846 612 895 b 645 1006 639 965 645 989 l 642 1026 b 598 903 642 1002 627 962 b 498 739 569 844 536 789 b 410 665 463 690 433 665 b 374 630 410 659 398 648 b 336 598 357 618 345 608 b 334 597 335 597 334 597 b 333 598 333 597 333 597 b 339 625 333 601 335 610 b 342 634 340 628 341 631 l 353 699 b 362 723 357 715 359 723 b 363 722 363 723 363 722 l 428 873 b 413 871 419 872 414 871 l 410 871 l 412 880 b 416 878 414 878 415 878 b 429 956 425 878 429 903 b 420 982 428 973 425 982 b 416 979 419 982 418 981 b 412 1002 416 994 415 1002 b 403 987 410 1002 406 997 b 396 984 402 985 399 984 b 382 994 391 984 387 987 b 380 996 382 995 380 996 b 373 987 378 996 375 993 l 366 972 b 372 1013 366 977 368 991 b 375 1030 374 1022 375 1027 b 374 1034 375 1033 375 1034 b 373 1034 374 1034 374 1034 b 370 1029 372 1033 372 1031 b 366 1019 368 1025 367 1023 b 361 1011 363 1016 362 1013 b 359 1008 360 1009 359 1008 l 359 1015 b 361 1029 361 1021 361 1025 b 359 1039 361 1034 361 1037 b 351 1046 357 1044 354 1046 b 336 1042 345 1046 340 1044 b 317 1024 323 1034 317 1028 l 316 1035 b 311 1042 314 1040 313 1042 l 310 1042 l 289 1028 l 213 960 l 212 960 b 193 935 208 960 201 951 b 128 796 172 899 151 852 l 90 703 b 88 722 89 709 88 715 b 91 751 88 731 89 741 b 38 527 68 665 51 591 b 17 422 25 463 18 429 b 16 399 16 422 16 414 b 9 371 15 380 12 371 b 3 331 5 371 3 357 b 13 193 3 298 6 252 l 24 96 b 20 87 22 94 20 92 b 54 14 20 74 31 50 l 79 -24 l 83 -18 b 87 -21 83 -20 84 -20 l 92 -22 l 91 -22 b 85 -25 90 -23 89 -24 z m 478 72 l 449 94 b 380 148 429 108 407 126 b 309 214 355 169 330 191 b 478 72 333 161 389 115 z m 91 752 b 118 849 100 785 109 817 b 91 752 105 813 96 781 z m 119 852 b 202 1054 140 912 168 979 b 234 1133 224 1104 234 1131 l 234 1134 b 212 1097 232 1134 224 1122 b 119 852 179 1033 148 951 z m -26 79 b -28 113 -28 92 -28 104 b -31 132 -28 125 -29 132 b -33 130 -31 132 -33 131 b -39 113 -37 125 -39 120 b -26 79 -39 104 -35 92 z "},"l":{"ha":804,"x_min":0,"x_max":0,"o":"m 316 383 b 322 390 317 383 319 385 l 326 396 b 316 391 320 394 316 392 b 315 387 315 390 315 389 l 315 385 b 315 383 315 384 315 383 b 316 383 315 383 315 383 z m -35 -39 b 12 -30 -22 -39 -6 -36 b 33 -18 22 -26 29 -22 l 98 -11 b 171 3 140 -6 165 -1 b 249 18 184 14 210 18 b 296 18 254 18 270 18 b 422 5 323 17 364 12 b 572 -18 479 -3 529 -10 l 636 -29 b 598 -12 636 -23 623 -17 b 395 13 557 -3 490 5 b 280 28 321 20 283 25 l 357 30 b 492 28 447 30 492 29 b 515 28 499 28 507 28 b 600 33 536 28 564 30 b 635 36 614 35 626 35 b 649 35 644 36 648 36 b 670 47 650 41 657 45 b 685 54 680 47 685 49 b 719 76 685 64 696 72 l 733 78 b 714 83 730 78 723 80 b 696 92 703 88 696 91 l 700 91 b 718 88 706 89 712 88 b 743 94 726 88 734 90 l 762 106 l 758 107 b 736 115 749 109 742 111 b 726 121 729 117 726 119 b 769 128 726 126 740 128 b 777 144 774 128 777 134 b 777 158 777 149 777 153 b 774 170 776 163 775 166 l 773 174 b 778 176 776 174 777 175 b 770 186 778 178 775 182 l 762 192 l 766 198 b 768 208 768 201 768 204 b 768 215 768 210 768 212 l 764 227 b 711 279 745 255 728 272 b 663 288 695 285 679 288 b 609 307 640 288 622 294 b 553 326 599 315 581 322 b 418 333 518 331 473 333 l 344 331 b 331 321 340 324 336 321 b 316 334 325 321 319 325 b 315 336 315 334 315 335 b 314 338 314 336 314 337 b 313 339 313 338 313 338 b 312 340 312 339 312 339 b 311 341 311 340 311 340 b 302 360 305 345 302 351 b 332 416 302 376 312 395 b 338 428 336 420 338 425 b 330 434 338 431 336 433 l 323 435 b 322 440 322 436 322 438 b 349 522 322 452 331 479 l 384 595 l 447 787 l 465 818 b 522 983 500 876 519 930 l 522 1001 l 521 1002 l 519 1000 b 513 991 517 995 515 992 b 507 994 511 991 509 992 l 504 1068 b 507 1073 506 1069 507 1071 b 498 1076 505 1075 503 1076 b 495 1075 496 1076 496 1076 b 498 1073 495 1074 496 1074 l 482 1074 l 451 1101 l 453 1108 b 455 1110 454 1109 454 1109 b 455 1112 455 1111 455 1112 b 455 1114 455 1113 455 1114 b 454 1116 454 1115 454 1116 b 453 1117 454 1117 454 1117 b 452 1116 452 1117 452 1117 b 450 1112 451 1116 451 1114 b 448 1106 450 1110 449 1108 b 444 1099 446 1104 445 1101 b 439 1092 441 1096 440 1094 b 435 1088 437 1090 435 1088 b 434 1090 434 1088 434 1088 l 435 1095 b 418 1113 435 1101 429 1107 l 407 1116 l 374 1092 b 376 1109 376 1099 376 1105 b 372 1116 376 1114 375 1116 b 359 1107 369 1116 365 1114 b 342 1086 354 1101 348 1095 b 337 1082 340 1084 338 1083 b 336 1086 336 1082 336 1084 l 337 1090 b 336 1093 337 1093 336 1093 b 294 1046 332 1093 318 1078 b 274 1023 281 1031 275 1023 l 276 1034 l 268 1017 l 263 1005 b 218 946 250 1005 235 985 b 170 817 201 906 186 863 b 139 730 159 783 149 754 b 113 687 127 701 119 687 b 105 683 111 685 109 684 l 103 682 b 49 509 73 593 55 535 l 47 502 b 45 484 46 497 45 491 b 38 384 45 462 43 429 b -22 213 25 270 5 213 b -26 214 -24 213 -25 213 b -31 214 -28 214 -30 214 b -71 184 -42 214 -56 204 b -116 115 -87 163 -102 140 l -145 60 l -141 58 b -116 41 -124 50 -116 45 b -117 39 -116 40 -116 39 b -130 36 -117 37 -122 37 l -119 33 l -121 22 b -121 9 -121 18 -121 14 b -118 2 -121 5 -120 2 b -110 7 -116 2 -113 4 b -104 2 -108 5 -106 3 b -100 1 -102 2 -100 1 b -106 -5 -100 -1 -102 -3 b -71 -26 -103 -15 -91 -22 b -45 -37 -60 -28 -52 -32 b -35 -39 -43 -38 -39 -39 z m 318 348 b 370 461 333 386 351 424 b 329 398 355 438 341 417 b 311 363 317 379 311 368 l 311 362 b 318 348 315 356 317 351 z m 373 465 l 416 528 l 404 513 b 373 465 393 498 382 482 z m 98 686 b 102 688 99 686 100 688 b 106 690 103 689 104 690 l 117 722 l 116 722 b 114 719 115 721 115 720 b 98 688 103 703 98 693 z m 118 726 b 130 747 125 736 130 743 b 129 749 130 748 130 748 b 127 750 128 749 127 749 z m 127 753 l 137 781 l 127 755 z m 138 784 b 228 985 163 840 193 907 b 297 1143 273 1087 296 1139 b 292 1151 296 1148 295 1151 b 264 1110 288 1151 278 1137 b 209 977 251 1082 233 1038 b 138 784 185 916 162 851 z m 335 446 b 338 451 336 447 336 448 b 342 459 339 453 340 456 b 347 467 344 462 345 465 b 349 470 347 469 348 470 b 350 474 349 470 349 471 b 351 483 351 476 351 479 b 352 492 352 486 352 489 b 351 498 352 496 351 498 b 334 450 349 498 343 481 l 334 446 z "}}}
